<?xml version="1.0" encoding="utf-8"?>
<!-- Generator: Adobe Illustrator 27.5.0, SVG Export Plug-In . SVG Version: 6.00 Build 0)  -->
<svg version="1.1" xmlns="http://www.w3.org/2000/svg" xmlns:xlink="http://www.w3.org/1999/xlink" x="0px" y="0px"
	 viewBox="0 0 500 500" style="enable-background:new 0 0 500 500;" xml:space="preserve">
<g id="Background_Complete">
	<g>
		<rect y="382.398" style="fill:#EBEBEB;" width="500" height="0.25"/>
		<rect x="416.779" y="398.494" style="fill:#EBEBEB;" width="33.122" height="0.25"/>
		<rect x="322.527" y="401.208" style="fill:#EBEBEB;" width="8.693" height="0.25"/>
		<rect x="396.586" y="389.208" style="fill:#EBEBEB;" width="19.192" height="0.25"/>
		<rect x="52.459" y="390.888" style="fill:#EBEBEB;" width="43.193" height="0.25"/>
		<rect x="104.556" y="390.888" style="fill:#EBEBEB;" width="6.333" height="0.25"/>
		<rect x="131.471" y="395.111" style="fill:#EBEBEB;" width="93.676" height="0.25"/>
		<path style="fill:#EBEBEB;" d="M237.014,337.8H43.915c-3.147,0-5.708-2.561-5.708-5.708V60.66c0-3.147,2.561-5.708,5.708-5.708
			h193.099c3.146,0,5.707,2.561,5.707,5.708v271.432C242.721,335.239,240.16,337.8,237.014,337.8z M43.915,55.203
			c-3.01,0-5.458,2.448-5.458,5.458v271.432c0,3.01,2.448,5.458,5.458,5.458h193.099c3.009,0,5.457-2.448,5.457-5.458V60.66
			c0-3.009-2.448-5.458-5.457-5.458H43.915z"/>
		<path style="fill:#EBEBEB;" d="M453.31,337.8H260.212c-3.147,0-5.707-2.561-5.707-5.708V60.66c0-3.147,2.561-5.708,5.707-5.708
			H453.31c3.148,0,5.708,2.561,5.708,5.708v271.432C459.019,335.239,456.458,337.8,453.31,337.8z M260.212,55.203
			c-3.009,0-5.457,2.448-5.457,5.458v271.432c0,3.01,2.448,5.458,5.457,5.458H453.31c3.01,0,5.458-2.448,5.458-5.458V60.66
			c0-3.009-2.448-5.458-5.458-5.458H260.212z"/>
	</g>
	<g>
		<g>
			
				<rect x="258.343" y="279.478" transform="matrix(-1 -1.224647e-16 1.224647e-16 -1 545.5754 661.8766)" style="fill:#E6E6E6;" width="28.889" height="102.92"/>
			<polygon style="fill:#F0F0F0;" points="263.83,382.398 258.343,382.398 258.343,372.858 269.583,372.858 			"/>
			
				<rect x="423.173" y="279.478" transform="matrix(-1 -1.224647e-16 1.224647e-16 -1 875.2351 661.8766)" style="fill:#E6E6E6;" width="28.889" height="102.92"/>
			
				<rect x="258.343" y="279.478" transform="matrix(-1 -1.224647e-16 1.224647e-16 -1 686.3053 659.374)" style="fill:#F0F0F0;" width="169.618" height="100.418"/>
			<g>
				
					<rect x="352.74" y="304.743" transform="matrix(6.123234e-17 -1 1 6.123234e-17 67.298 727.0646)" style="fill:#E6E6E6;" width="88.882" height="50.28"/>
				<path style="fill:#F0F0F0;" d="M392.208,290.538h9.947c4.321,0,8.452-2.074,11.423-5.735l0,0h-32.794l0,0
					C383.756,288.464,387.887,290.538,392.208,290.538z"/>
			</g>
			<g>
				
					<rect x="298.711" y="304.743" transform="matrix(6.123234e-17 -1 1 6.123234e-17 13.269 673.0356)" style="fill:#E6E6E6;" width="88.882" height="50.28"/>
				<path style="fill:#F0F0F0;" d="M337.67,290.538h9.947c4.321,0,8.452-2.074,11.423-5.735l0,0h-32.794l0,0
					C329.219,288.464,333.349,290.538,337.67,290.538z"/>
			</g>
			<g>
				
					<rect x="244.682" y="304.743" transform="matrix(6.123234e-17 -1 1 6.123234e-17 -40.7599 619.0067)" style="fill:#E6E6E6;" width="88.882" height="50.28"/>
				<path style="fill:#F0F0F0;" d="M283.641,290.538h9.947c4.321,0,8.452-2.074,11.423-5.735l0,0h-32.794l0,0
					C275.19,288.464,279.321,290.538,283.641,290.538z"/>
			</g>
			<polygon style="fill:#F0F0F0;" points="422.475,382.398 427.962,382.398 427.962,372.858 416.722,372.858 			"/>
		</g>
		<g>
			<g>
				<g>
					<g>
						
							<rect x="76.653" y="87.687" transform="matrix(-1 -1.224647e-16 1.224647e-16 -1 347.131 340.4077)" style="fill:#E6E6E6;" width="193.825" height="165.034"/>
						
							<rect x="72.291" y="87.687" transform="matrix(-1 -1.224647e-16 1.224647e-16 -1 340.8732 340.4077)" style="fill:#F5F5F5;" width="196.292" height="165.034"/>
						
							<rect x="95.84" y="79.888" transform="matrix(-1.836970e-16 1 -1 -1.836970e-16 340.6406 -0.2329)" style="fill:#FAFAFA;" width="149.194" height="180.632"/>
						<polygon style="fill:#FFFFFF;" points="238.588,244.801 167.496,95.607 143.348,95.607 214.441,244.801 						"/>
						<polygon style="fill:#FFFFFF;" points="207.596,244.801 136.503,95.607 119.876,95.607 190.968,244.801 						"/>
						
							<rect x="67.924" y="165.533" transform="matrix(-1.836970e-16 1 -1 -1.836970e-16 312.725 27.6828)" style="fill:#E6E6E6;" width="149.194" height="9.341"/>
						
							<rect x="130.013" y="165.533" transform="matrix(-1.836970e-16 1 -1 -1.836970e-16 374.8138 -34.4059)" style="fill:#E6E6E6;" width="149.194" height="9.341"/>
						
							<rect x="59.549" y="163.868" transform="matrix(-1.836970e-16 1 -1 -1.836970e-16 309.3755 30.1688)" style="fill:#F5F5F5;" width="160.108" height="11.807"/>
						
							<rect x="121.638" y="163.868" transform="matrix(-1.836970e-16 1 -1 -1.836970e-16 371.4644 -31.92)" style="fill:#F5F5F5;" width="160.108" height="11.807"/>
						
							<rect x="5.939" y="169.788" transform="matrix(-1.836970e-16 1 -1 -1.836970e-16 250.7401 89.6675)" style="fill:#E6E6E6;" width="149.194" height="0.831"/>
					</g>
				</g>
			</g>
			<g>
				<g>
					<path style="fill:#E6E6E6;" d="M69.003,77.502h209.988c0.555,0,1.01,0.454,1.01,1.01l0,0c0,0.555-0.454,1.01-1.01,1.01H69.003
						c-0.555,0-1.01-0.454-1.01-1.01l0,0C67.993,77.956,68.448,77.502,69.003,77.502z"/>
					<path style="fill:#E6E6E6;" d="M270.478,84.166L270.478,84.166c0.75,0,1.363-0.614,1.363-1.363v-2.928
						c0-0.75-0.613-1.363-1.363-1.363l0,0c-0.75,0-1.363,0.614-1.363,1.363v2.928C269.115,83.553,269.728,84.166,270.478,84.166z"/>
					<path style="fill:#E6E6E6;" d="M84.232,84.166L84.232,84.166c0.75,0,1.363-0.614,1.363-1.363v-2.928
						c0-0.75-0.613-1.363-1.363-1.363l0,0c-0.75,0-1.363,0.614-1.363,1.363v2.928C82.868,83.553,83.482,84.166,84.232,84.166z"/>
				</g>
				
					<rect x="69.326" y="78.511" transform="matrix(-1 -1.224647e-16 1.224647e-16 -1 334.8002 238.9324)" style="opacity:0.6;fill:#E0E0E0;" width="196.149" height="81.91"/>
			</g>
		</g>
		<g>
			
				<rect x="72.01" y="299.755" transform="matrix(-1 -1.224647e-16 1.224647e-16 -1 149.0585 682.1528)" style="fill:#E6E6E6;" width="5.038" height="82.643"/>
			<g>
				<g>
					<rect x="162.951" y="283.672" style="fill:#E6E6E6;" width="27.29" height="16.083"/>
					
						<rect x="54.561" y="283.672" transform="matrix(-1 -1.224647e-16 1.224647e-16 -1 217.512 583.4267)" style="fill:#F5F5F5;" width="108.391" height="16.083"/>
				</g>
			</g>
			<g>
				<g>
					<rect x="162.951" y="309.755" style="fill:#E6E6E6;" width="27.29" height="16.083"/>
					
						<rect x="54.561" y="309.755" transform="matrix(-1 -1.224647e-16 1.224647e-16 -1 217.512 635.5925)" style="fill:#F5F5F5;" width="108.391" height="16.083"/>
				</g>
			</g>
			<g>
				<g>
					<rect x="162.951" y="335.838" style="fill:#E6E6E6;" width="27.29" height="16.083"/>
					
						<rect x="54.561" y="335.838" transform="matrix(-1 -1.224647e-16 1.224647e-16 -1 217.512 687.7583)" style="fill:#F5F5F5;" width="108.391" height="16.083"/>
				</g>
			</g>
			
				<rect x="180.401" y="299.755" transform="matrix(-1 -1.224647e-16 1.224647e-16 -1 365.8402 682.1528)" style="fill:#E6E6E6;" width="5.038" height="82.643"/>
			
				<rect x="157.913" y="299.755" transform="matrix(-1 -1.224647e-16 1.224647e-16 -1 320.8647 682.1528)" style="fill:#F5F5F5;" width="5.038" height="82.643"/>
			
				<rect x="54.561" y="299.755" transform="matrix(-1 -1.224647e-16 1.224647e-16 -1 114.1593 682.1528)" style="fill:#F5F5F5;" width="5.038" height="82.643"/>
		</g>
	</g>
</g>
<g id="Background_Simple" style="display:none;">
	<g style="display:inline;">
		<path style="fill:#407BFF;" d="M435.498,259.228c17.695-41.355-8.058-96.424-50.601-119.398
			c-37.111-20.04-70.039-3.54-104.893-34.467c-32.474-28.815-53.44-65.066-104.645-62.637
			c-40.281,1.911-62.451,32.844-81.027,66.072c-50.799,90.865-24.352,155.171,70.923,194.246
			c45.54,18.677,104.039,36.149,153.579,34.611C378.279,335.809,413.553,310.513,435.498,259.228z"/>
		<path style="opacity:0.9;fill:#FFFFFF;" d="M435.498,259.228c17.695-41.355-8.058-96.424-50.601-119.398
			c-37.111-20.04-70.039-3.54-104.893-34.467c-32.474-28.815-53.44-65.066-104.645-62.637
			c-40.281,1.911-62.451,32.844-81.027,66.072c-50.799,90.865-24.352,155.171,70.923,194.246
			c45.54,18.677,104.039,36.149,153.579,34.611C378.279,335.809,413.553,310.513,435.498,259.228z"/>
	</g>
</g>
<g id="Shadow_1_">
	<ellipse id="_x3C_Path_x3E__89_" style="fill:#F5F5F5;" cx="250" cy="416.238" rx="193.889" ry="11.323"/>
</g>
<g id="Invoice">
	<g>
		<g>
			<g>
				<path style="fill:#407BFF;" d="M396.008,370.838H233.6c-6.842,0-12.013-5.598-11.491-12.44l19.897-260.765
					c0.522-6.842,6.547-12.44,13.389-12.44h162.408c6.842,0,12.013,5.598,11.491,12.44l-19.897,260.765
					C408.875,365.24,402.85,370.838,396.008,370.838z"/>
				<path style="opacity:0.5;fill:#FFFFFF;" d="M396.008,370.838H233.6c-6.842,0-12.013-5.598-11.491-12.44l19.897-260.765
					c0.522-6.842,6.547-12.44,13.389-12.44h162.408c6.842,0,12.013,5.598,11.491,12.44l-19.897,260.765
					C408.875,365.24,402.85,370.838,396.008,370.838z"/>
			</g>
			<g>
				<path style="fill:#407BFF;" d="M393.589,370.838H231.181c-6.842,0-12.013-5.598-11.491-12.44l19.897-260.765
					c0.522-6.842,6.547-12.44,13.389-12.44h162.408c6.842,0,12.013,5.598,11.49,12.44l-19.897,260.765
					C406.456,365.24,400.431,370.838,393.589,370.838z"/>
				<path style="opacity:0.7;fill:#FFFFFF;" d="M393.589,370.838H231.181c-6.842,0-12.013-5.598-11.491-12.44l19.897-260.765
					c0.522-6.842,6.547-12.44,13.389-12.44h162.408c6.842,0,12.013,5.598,11.49,12.44l-19.897,260.765
					C406.456,365.24,400.431,370.838,393.589,370.838z"/>
			</g>
			<path style="fill:#407BFF;" d="M231.498,366.691c-4.573,0-8.009-3.72-7.66-8.293l19.633-257.31
				c0.349-4.573,4.353-8.293,8.926-8.293h162.408c4.573,0,8.009,3.72,7.66,8.293l-19.633,257.31
				c-0.349,4.573-4.353,8.293-8.926,8.293H231.498z"/>
			<path style="opacity:0.2;" d="M392.764,136.079H276.54c-2.704,0-4.747-2.212-4.541-4.916l0,0
				c0.206-2.704,2.587-4.916,5.291-4.916h116.224c2.704,0,4.747,2.212,4.541,4.916l0,0
				C397.849,133.867,395.467,136.079,392.764,136.079z"/>
			<path style="opacity:0.3;fill:#407BFF;" d="M343.181,90.261h-18.775c-0.665,0-1.168-0.544-1.117-1.209l0,0
				c0.051-0.665,0.636-1.209,1.302-1.209h18.775c0.665,0,1.168,0.544,1.117,1.209l0,0C344.432,89.717,343.846,90.261,343.181,90.261
				z"/>
		</g>
		<g>
			<path style="fill:#F0F0F0;" d="M276.031,131.163c0.574-7.52-5.059-13.603-12.565-13.603h117.993
				c7.506,0,13.139,6.084,12.565,13.603H276.031z"/>
			<path style="fill:#FFFFFF;" d="M263.465,117.56c-7.506,0-14.067,6.084-14.641,13.603l-12.091,158.468
				c-0.574,7.52-7.135,13.603-14.641,13.603h117.993c7.506,0,14.068-6.084,14.641-13.603l12.091-158.468
				c0.574-7.52,7.135-13.603,14.641-13.603H263.465z"/>
			<path style="fill:#F0F0F0;" d="M327.519,289.631c-0.574,7.52,5.059,13.603,12.565,13.603H222.092
				c-7.506,0-13.139-6.084-12.565-13.603H327.519z"/>
			<path style="fill:#E0E0E0;" d="M258.454,286.503c0.442-5.791-1.376-10.476-7.156-10.476h90.863c5.78,0,10.129,5.29,7.156,10.476
				H258.454z"/>
			<path style="fill:#F0F0F0;" d="M327.519,289.631c0.574-7.52,7.135-13.603,14.641-13.603H224.167
				c-7.506,0-14.068,6.084-14.641,13.603H327.519z"/>
		</g>
		<path style="fill:#FFFFFF;" d="M383.311,328.92H247.856c-1.964,0-3.448-1.607-3.298-3.571l0,0c0.15-1.964,1.879-3.571,3.843-3.571
			h135.455c1.964,0,3.448,1.607,3.298,3.571l0,0C387.004,327.313,385.275,328.92,383.311,328.92z"/>
		<path style="fill:#FFFFFF;" d="M314.908,346.082h-68.361c-1.964,0-3.448-1.607-3.298-3.571l0,0
			c0.15-1.964,1.879-3.571,3.843-3.571h68.361c1.964,0,3.448,1.607,3.298,3.571l0,0
			C318.601,344.475,316.871,346.082,314.908,346.082z"/>
		<path style="fill:#FFFFFF;" d="M362.236,346.082h-27.69c-1.964,0-3.448-1.607-3.298-3.571l0,0c0.15-1.964,1.879-3.571,3.843-3.571
			h27.69c1.964,0,3.448,1.607,3.298,3.571l0,0C365.929,344.475,364.2,346.082,362.236,346.082z"/>
		<g>
			<path style="fill:#FFFFFF;" d="M389.928,278.178l-7.066,1.107c-0.283-0.888-0.551-1.505-0.807-1.849
				c-0.255-0.344-0.695-0.691-1.319-1.042l-0.414,5.43c3.726,1.015,6.185,2.086,7.375,3.212c1.574,1.515,2.271,3.437,2.094,5.766
				c-0.104,1.365-0.503,2.617-1.197,3.756c-0.694,1.14-1.542,2.091-2.545,2.855c-1.003,0.764-2.049,1.318-3.139,1.662
				c-1.09,0.344-2.407,0.548-3.951,0.61l-0.271,3.547h-2.74l0.271-3.547c-1.827-0.163-3.296-0.46-4.408-0.891
				c-1.112-0.432-2.055-1.029-2.829-1.792c-0.774-0.763-1.352-1.586-1.736-2.468c-0.383-0.882-0.639-1.949-0.769-3.2l7.65-0.882
				c0.131,1.239,0.366,2.133,0.705,2.684c0.34,0.551,0.931,1.039,1.775,1.464l0.506-6.632c-2.474-0.701-4.22-1.309-5.238-1.823
				c-1.018-0.513-1.872-1.336-2.561-2.47c-0.689-1.133-0.972-2.513-0.848-4.142c0.17-2.229,1.091-4.091,2.763-5.588
				c1.672-1.496,4.053-2.325,7.144-2.488l0.142-1.858h2.74l-0.142,1.858c2.789,0.175,4.882,0.838,6.276,1.99
				C388.784,274.599,389.63,276.176,389.928,278.178z M378.003,276.301c-0.821,0.264-1.403,0.591-1.745,0.981
				c-0.343,0.39-0.534,0.849-0.574,1.376c-0.042,0.553,0.081,1.034,0.365,1.443c0.288,0.409,0.816,0.751,1.586,1.026
				L378.003,276.301z M379.332,294.788c1.082-0.238,1.891-0.631,2.426-1.177c0.536-0.546,0.83-1.158,0.881-1.836
				c0.045-0.59-0.123-1.133-0.504-1.629c-0.378-0.496-1.16-0.957-2.344-1.382L379.332,294.788z"/>
		</g>
		<g>
			<path style="fill:#407BFF;" d="M256.725,161.672h3.363l-0.829,10.859h-3.363L256.725,161.672z"/>
			<path style="fill:#407BFF;" d="M262.517,161.672h3.133l3.63,6.007l0.458-6.007h3.163l-0.829,10.859h-3.163l-3.612-5.962
				l-0.455,5.962h-3.155L262.517,161.672z"/>
			<path style="fill:#407BFF;" d="M274.064,161.672h3.507l1.848,7.814l3.008-7.814h3.406l-4.86,10.859h-3.637L274.064,161.672z"/>
			<path style="fill:#407BFF;" d="M285.574,167.109c0.135-1.773,0.734-3.153,1.797-4.14c1.063-0.988,2.476-1.481,4.239-1.481
				c1.807,0,3.163,0.485,4.066,1.455c0.904,0.97,1.289,2.329,1.155,4.077c-0.097,1.269-0.39,2.31-0.879,3.122
				s-1.155,1.444-1.996,1.896c-0.842,0.452-1.865,0.678-3.07,0.678c-1.225,0-2.223-0.195-2.996-0.585
				c-0.773-0.39-1.376-1.007-1.81-1.852S285.478,168.378,285.574,167.109z M288.928,167.124c-0.084,1.096,0.06,1.884,0.431,2.363
				c0.371,0.479,0.907,0.718,1.608,0.718c0.721,0,1.297-0.234,1.728-0.704c0.431-0.469,0.693-1.311,0.785-2.526
				c0.078-1.022-0.071-1.769-0.447-2.241c-0.376-0.471-0.918-0.707-1.624-0.707c-0.676,0-1.238,0.24-1.684,0.719
				C289.278,165.225,289.013,166.018,288.928,167.124z"/>
			<path style="fill:#407BFF;" d="M299.181,161.672h3.363l-0.829,10.859h-3.363L299.181,161.672z"/>
			<path style="fill:#407BFF;" d="M311.69,168.087l2.873,0.889c-0.26,0.825-0.624,1.514-1.091,2.067
				c-0.467,0.553-1.026,0.97-1.677,1.252c-0.651,0.281-1.463,0.422-2.436,0.422c-1.18,0-2.131-0.172-2.853-0.514
				c-0.722-0.343-1.322-0.946-1.799-1.81c-0.477-0.863-0.664-1.969-0.562-3.316c0.137-1.796,0.72-3.177,1.749-4.141
				c1.029-0.965,2.418-1.447,4.166-1.447c1.368,0,2.422,0.276,3.162,0.83c0.74,0.553,1.257,1.402,1.55,2.548l-3.013,0.659
				c-0.078-0.331-0.169-0.573-0.271-0.726c-0.168-0.257-0.383-0.454-0.644-0.592c-0.261-0.138-0.56-0.207-0.895-0.207
				c-0.76,0-1.367,0.306-1.818,0.917c-0.341,0.454-0.548,1.166-0.622,2.138c-0.092,1.203,0.028,2.028,0.359,2.475
				c0.331,0.446,0.828,0.669,1.49,0.669c0.642,0,1.141-0.18,1.497-0.541C311.212,169.296,311.49,168.773,311.69,168.087z"/>
			<path style="fill:#407BFF;" d="M316.743,161.672h8.992l-0.177,2.318h-5.629l-0.132,1.726h5.222l-0.169,2.215h-5.222l-0.163,2.141
				h5.792l-0.188,2.459h-9.155L316.743,161.672z"/>
		</g>
		<polygon style="fill:#407BFF;" points="352.362,186.554 254.826,186.554 255.033,183.847 352.569,183.847 		"/>
		<polygon style="fill:#F0F0F0;" points="352.362,186.554 254.826,186.554 254.194,194.836 351.73,194.836 		"/>
		<polygon style="fill:#F0F0F0;" points="351.098,203.119 253.562,203.119 252.93,211.401 350.466,211.401 		"/>
		<polygon style="fill:#F0F0F0;" points="349.834,219.684 252.298,219.684 251.666,227.966 349.202,227.966 		"/>
		<polygon style="fill:#F0F0F0;" points="348.57,236.248 251.034,236.248 250.402,244.531 347.938,244.531 		"/>
		<polygon style="fill:#407BFF;" points="347.1,255.52 249.564,255.52 249.77,252.813 347.306,252.813 		"/>
		<polygon style="fill:#F0F0F0;" points="335.942,136.079 356.213,136.079 355.29,148.173 335.019,148.173 		"/>
	</g>
</g>
<g id="Character_1_">
	<g>
		<path style="fill:#FFB573;" d="M137.179,213.007l3.626,1.456c1.32,0.53,2.478,1.396,3.359,2.512l1.661,2.103
			c1.1,1.394,1.049,3.374-0.122,4.709l-1.767,2.015c-1.354,1.543-3.708,1.682-5.233,0.308l-1.69-1.522c0,0-5.203-3.653-6.731-8.478
			l1.004-1.004C132.92,213.471,135.087,212.699,137.179,213.007z"/>
		<path style="fill:#FFB573;" d="M147.104,177.919l-1.18,0.778l-1.313,0.902c-0.873,0.622-1.749,1.256-2.605,1.915
			c-1.704,1.325-3.369,2.696-4.912,4.152c-3.11,2.888-5.815,6.057-7.735,9.424c-0.246,0.419-0.472,0.844-0.68,1.271l-0.164,0.32
			c0.033-0.077,0.088-0.31,0.107-0.407c0.043-0.273,0.037-0.422,0.02-0.507c-0.096-0.289-0.105,0.462,0.121,1.204
			c0.446,1.584,1.37,3.599,2.394,5.54c2.059,3.939,4.644,7.988,7.077,11.982l0.064,0.104c1.009,1.657,0.484,3.819-1.173,4.829
			c-1.279,0.779-2.864,0.639-3.982-0.225c-2.057-1.596-3.895-3.243-5.719-5.023c-1.816-1.77-3.549-3.646-5.211-5.69
			c-1.642-2.083-3.246-4.222-4.598-7.13c-0.337-0.737-0.66-1.534-0.936-2.46c-0.274-0.923-0.497-2.003-0.518-3.366
			c-0.002-0.688,0.047-1.443,0.245-2.3c0.079-0.394,0.25-0.907,0.38-1.27l0.193-0.513c0.252-0.69,0.525-1.365,0.821-2.026
			c2.348-5.324,5.762-9.819,9.533-13.694c1.898-1.938,3.902-3.723,6.007-5.372c1.055-0.822,2.125-1.62,3.24-2.372
			c0.559-0.376,1.115-0.755,1.699-1.113l0.889-0.54l1.014-0.586c3.343-1.932,7.619-0.787,9.551,2.556
			c1.858,3.217,0.869,7.298-2.187,9.322L147.104,177.919z"/>
		<path style="fill:#263238;" d="M147.219,162.053c-5.844,0.034-12.241,2.53-20.443,12.697c0,6.07,12.813,14.139,12.813,14.139
			S160.592,161.976,147.219,162.053z"/>
		<path style="fill:#263238;" d="M103.833,402.441c-0.102,0-0.204-0.018-0.309-0.055c-1.213-0.426-2.353-3.511-2.426-5.222
			c-0.005-0.111,0.056-0.214,0.155-0.263c0.1-0.05,0.217-0.037,0.304,0.033c0.128,0.104,3.144,2.573,3.286,4.234
			c0.03,0.354-0.063,0.658-0.275,0.902C104.354,402.314,104.101,402.441,103.833,402.441z M101.737,397.831
			c0.274,1.627,1.201,3.753,1.974,4.024c0.111,0.04,0.252,0.052,0.434-0.156c0.11-0.126,0.155-0.284,0.139-0.483
			C104.199,400.24,102.716,398.711,101.737,397.831z"/>
		<path style="fill:#263238;" d="M105.71,398.77c-1.402,0-3.425-0.677-4.486-1.384c-0.092-0.061-0.14-0.171-0.121-0.28
			c0.018-0.109,0.099-0.198,0.205-0.226c0.16-0.043,3.931-1.025,5.357-0.16c0.305,0.184,0.495,0.438,0.566,0.753
			c0.099,0.437-0.028,0.802-0.359,1.03C106.602,398.69,106.192,398.77,105.71,398.77z M102.14,397.263
			c1.475,0.737,3.738,1.242,4.413,0.777c0.099-0.068,0.191-0.173,0.13-0.442c-0.037-0.163-0.138-0.293-0.309-0.397
			C105.536,396.694,103.427,396.991,102.14,397.263z"/>
		<path style="fill:#407BFF;" d="M90.742,396.492c1.69-2.061,4.535-4.811,7.461-10.591c0,0,9.275,2.282,7.453,4.958
			c-3.304,4.854-4.915,14.818-0.657,20.162c2.43,3.05-1.414,3.555-3.954,2.25c-4.041-2.076-3.87-2.848-5.968-6.281
			c-1.795-2.936-2.504-4.086-4.973-5.342C88.042,400.6,89.045,398.563,90.742,396.492z"/>
		<path style="fill:#263238;" d="M169.44,222.334c0,0-13.461,65.601-23.303,93.617c-10.337,29.424-38.884,74.825-39.981,76.775
			c-4.058-1.082-7.677-2.503-10.089-4.86c0,0,13.4-49.249,26.467-81.199c4.958-66.695,15.89-84.333,15.89-84.333H169.44z"/>
		<path style="opacity:0.2;" d="M148.905,257.43c-0.61,12.69-1.03,30.14-0.43,51.38c4.11-13.24,8.58-31.19,12.34-47.3
			C158.306,258.16,154.405,256.55,148.905,257.43z"/>
		<path style="fill:#FFB573;" d="M149.716,141.891c1.413,5.704,2.792,15.009,0.544,19.962c0,0,8.419,0.372,19.18,8.965
			c5.067-7.442-0.797-8.902-0.797-8.902c-4.473-1.05-4.253-7.007-4.247-11.25L149.716,141.891z"/>
		<g>
			<path style="fill:#407BFF;" d="M147.597,164.444c-4.2-0.464-1.295-8.444,0.888-7.667c5.516,1.965,17.895-0.222,21.723,1.889
				c3.828,2.111,2.861,6.444,2.861,6.444S152.123,164.944,147.597,164.444z"/>
			<path style="opacity:0.7;fill:#FFFFFF;" d="M147.597,164.444c-4.2-0.464-1.295-8.444,0.888-7.667
				c5.516,1.965,17.895-0.222,21.723,1.889c3.828,2.111,2.861,6.444,2.861,6.444S152.123,164.944,147.597,164.444z"/>
		</g>
		<path style="fill:#263238;" d="M172.101,131.821c0.135,0.763,0.649,1.311,1.148,1.222c0.499-0.088,0.794-0.779,0.659-1.542
			c-0.135-0.763-0.649-1.311-1.148-1.222C172.26,130.367,171.966,131.058,172.101,131.821z"/>
		<path style="fill:#263238;" d="M172.547,130.36l1.74-0.853C174.287,129.507,173.6,131.106,172.547,130.36z"/>
		<path style="fill:#263238;" d="M173.121,125.719c0.054-0.099,0.073-0.219,0.041-0.336c-0.065-0.243-0.314-0.388-0.557-0.323
			c-2.434,0.648-3.113,2.637-3.141,2.723c-0.078,0.239,0.051,0.496,0.29,0.575c0.238,0.078,0.495-0.051,0.575-0.289
			c0.025-0.078,0.575-1.613,2.51-2.128C172.964,125.907,173.063,125.824,173.121,125.719z"/>
		<path style="fill:#ED893E;" d="M173.004,133.676c0,0,1.655,3.184,3.263,4.635c-0.919,1.056-2.695,0.803-2.695,0.803
			L173.004,133.676z"/>
		<path style="fill:#FFB573;" d="M146,131.429c2.225,9.276,2.973,13.25,8.47,17.24c8.268,6.002,18.95,1.265,19.486-8.483
			c0.483-8.774-3.238-22.47-12.899-24.607C151.538,113.474,143.775,122.153,146,131.429z"/>
		<path style="fill:#263238;" d="M163.979,133.137c5.462-7.22,9.026-13.054,6.33-19.444c-2.252-5.341-8.479-3.778-9.349-1.111
			c-16.565-1.415-22.511,4.585-19.092,14.513c2.178,6.325-6.282,3.045-4.222,11.079c1.579,6.16-3.992,8.507-1.164,12.049
			c4.081,5.111,12.497-1.555,22.108,2.278C166.453,155.636,178.269,150.889,163.979,133.137z"/>
		<path style="fill:#FFB573;" d="M163.091,134.596c1.077,1.699,2.702,2.645,4.148,2.856c2.175,0.317,2.922-2.119,2.033-4.38
			c-0.8-2.035-2.896-4.653-4.942-3.926C162.315,129.861,161.86,132.653,163.091,134.596z"/>
		<path style="fill:#263238;" d="M166.322,408.556c-1.39,0-3.666-1.102-4.731-2.063c-0.082-0.074-0.113-0.19-0.079-0.295
			c0.033-0.105,0.126-0.181,0.236-0.193c0.163-0.019,4.039-0.44,5.323,0.623c0.274,0.227,0.426,0.505,0.45,0.828
			c0.034,0.446-0.145,0.789-0.505,0.966C166.828,408.514,166.592,408.556,166.322,408.556z M162.515,406.505
			c1.353,0.945,3.522,1.773,4.253,1.412c0.107-0.053,0.214-0.143,0.193-0.418c-0.013-0.167-0.094-0.31-0.248-0.437
			C165.958,406.437,163.827,406.424,162.515,406.505z"/>
		<path style="fill:#263238;" d="M161.779,406.566c-0.089,0-0.174-0.042-0.227-0.116c-0.066-0.09-0.071-0.209-0.017-0.305
			c0.082-0.143,2.023-3.522,3.64-3.934c0.345-0.088,0.657-0.046,0.934,0.124c0.381,0.235,0.553,0.583,0.483,0.978
			c-0.221,1.266-3.078,2.895-4.755,3.247C161.817,406.564,161.799,406.566,161.779,406.566z M165.512,402.729
			c-0.063,0-0.128,0.009-0.198,0.027c-0.948,0.242-2.214,1.955-2.923,3.064c1.561-0.537,3.506-1.798,3.648-2.605
			c0.02-0.117,0.01-0.257-0.225-0.402C165.722,402.757,165.622,402.729,165.512,402.729z"/>
		<path style="fill:#407BFF;" d="M173.751,412.069c-8.099-0.627-13.556-6.188-12.984-12.081c0.315-3.249-10.07-3.54-10.07-3.54
			c1.643,10.075-0.419,11.512-1.096,14.114c-0.68,2.613-0.513,5.479,1.636,5.533c2.573,0.065,3.771-0.427,6.968-0.303
			c3.738,0.146,7.781,0.292,14.424,0.303C175.284,416.1,177.353,412.348,173.751,412.069z"/>
		<path style="fill:#263238;" d="M183.44,222.334c0,0-0.706,49.682-4.628,82.333c-3.923,32.651-17.405,96.69-17.405,96.69
			c-3.896,0.757-7.547,0.879-10.77-0.099c0,0-4.26-50.028,2.897-98.369c-5.258-50.665-8.545-80.555-8.545-80.555H183.44z"/>
		<path style="fill:#407BFF;" d="M185.279,176.372c-0.168,3.839,5.893,12.715-1.587,17.859c1.398,3.124,2.579,24.313-0.252,28.102
			c-4.129,3.035-26.48,2.445-45.015,0c-0.783-7.661,3.434-23.531-1.732-48.276c-1.198-5.737,2.838-11.247,8.669-11.835
			c1.558-0.157,3.209-0.288,4.899-0.369c6.57-0.317,11.952-0.526,17.728,0.001c1.914,0.175,3.893,0.417,5.782,0.682
			C180.589,163.493,185.58,169.493,185.279,176.372z"/>
		<g style="opacity:0.3;">
			<path style="fill:#263238;" d="M137.165,172.722c-0.14,0.075-0.279,0.152-0.42,0.225l-0.003,0.002
				c-0.001,0.001-0.002,0.002-0.004,0.002c-0.125,0.067-0.172,0.224-0.104,0.349c0.068,0.126,0.224,0.172,0.349,0.104
				c0.153-0.082,0.302-0.17,0.453-0.255c1.984,0.733,4.137,2.389,5.366,2.559c-1.982-1.752-3.409-3.007-4.974-2.779
				c0.472-0.274,0.934-0.563,1.391-0.858c1.824,0.678,3.799,2.195,4.928,2.352c-1.838-1.626-3.159-2.785-4.612-2.557
				c0.344-0.227,0.685-0.458,1.021-0.696c0.191-0.134,0.379-0.273,0.568-0.411c1.644,0.714,3.388,2.226,4.421,2.43
				c-1.651-1.64-2.822-2.796-4.224-2.572c0.438-0.324,0.868-0.659,1.293-0.999c1.51,0.66,3.11,2.044,4.058,2.232
				c-1.519-1.508-2.596-2.573-3.885-2.372c0.364-0.294,0.726-0.592,1.082-0.896c0.086-0.074,0.171-0.149,0.257-0.224
				c1.332,0.698,2.653,2.08,3.521,2.331c-1.258-1.512-2.135-2.558-3.459-2.385c0.342-0.297,0.681-0.597,1.015-0.902
				c1.225,0.645,2.439,1.913,3.237,2.144c-1.156-1.389-1.962-2.351-3.176-2.2c0.355-0.324,0.705-0.653,1.051-0.988
				c1.07,0.658,2.092,1.86,2.801,2.109c-0.962-1.314-1.638-2.23-2.727-2.182c0.189-0.184,0.377-0.367,0.563-0.554
				c0.107-0.108,0.213-0.219,0.32-0.328c0.986,0.606,1.928,1.714,2.582,1.943c-0.888-1.212-1.511-2.057-2.516-2.01
				c0.292-0.3,0.579-0.605,0.86-0.915c0.905,0.484,1.752,1.415,2.357,1.592c-0.797-1.025-1.354-1.735-2.316-1.637
				c0.052-0.057,0.106-0.112,0.157-0.17c0.204-0.23,0.406-0.462,0.603-0.698c0.824,0.45,1.594,1.292,2.145,1.453
				c-0.723-0.931-1.232-1.58-2.094-1.513c0.234-0.283,0.458-0.575,0.665-0.883c0.025-0.037,0.016-0.088-0.021-0.114
				c-0.037-0.026-0.089-0.017-0.115,0.021l-0.001,0.002c-0.195,0.279-0.408,0.546-0.631,0.807c0.083-0.446-0.083-0.865-0.363-1.323
				c-0.114,0.007-0.229,0.013-0.343,0.021c0.183,0.458,0.416,0.973,0.546,1.483c-0.179,0.204-0.361,0.405-0.545,0.604
				c-0.043,0.047-0.089,0.092-0.133,0.138c0.191-0.721-0.185-1.351-0.769-2.158c-0.062,0.005-0.122,0.011-0.184,0.016
				c0.155,0.617,0.623,1.465,0.82,2.282c-0.263,0.276-0.53,0.548-0.802,0.816c0.253-0.919-0.38-1.734-1.278-2.882
				c0.043,0.688,0.845,1.885,1.164,2.994c-0.095,0.093-0.188,0.187-0.284,0.279c-0.181,0.174-0.365,0.345-0.548,0.516
				c0.253-0.985-0.429-1.864-1.393-3.098c0.047,0.741,0.906,2.03,1.257,3.227c-0.317,0.294-0.638,0.583-0.963,0.869
				c0.21-0.996-0.453-1.967-1.368-3.299c0.005,0.791,0.813,2.197,1.139,3.498c-0.261,0.228-0.525,0.453-0.791,0.675
				c0.234-1.084-0.487-2.139-1.482-3.589c0.006,0.857,0.881,2.384,1.236,3.795c-0.07,0.058-0.139,0.117-0.21,0.175
				c-0.364,0.298-0.734,0.589-1.105,0.876c0.293-1.105-0.396-2.356-1.342-4.06c-0.074,0.924,0.75,2.724,1.016,4.31
				c-0.418,0.317-0.841,0.627-1.27,0.928c0.482-1.254-0.295-2.664-1.385-4.627c-0.082,1.028,0.859,3.056,1.123,4.808
				c-0.125,0.086-0.249,0.175-0.375,0.26c-0.395,0.266-0.795,0.522-1.198,0.774c0.555-1.27-0.115-2.773-1.096-4.816
				c-0.046,0.072-0.097,0.141-0.141,0.214c0.076,1.203,0.77,3.125,0.926,4.795c-0.447,0.272-0.899,0.535-1.357,0.786
				c0.52-1.057,0.226-2.261-0.416-3.764c-0.148,0.424-0.261,0.86-0.35,1.305C136.887,170.973,137.091,171.877,137.165,172.722z"/>
			<path style="fill:#263238;" d="M162.714,165.789c-1.51-0.965-2.993-2.734-3.98-3.1c1.37,1.881,2.343,3.208,3.763,3.209
				c-0.484,0.251-0.961,0.513-1.435,0.781c-1.387-0.891-2.747-2.511-3.653-2.847c1.26,1.729,2.156,2.952,3.46,2.957
				c-0.406,0.233-0.811,0.47-1.21,0.713c-0.097,0.059-0.193,0.12-0.289,0.18c-1.205-0.9-2.29-2.474-3.107-2.86
				c1.003,1.692,1.703,2.864,3.037,2.903c-0.385,0.238-0.767,0.481-1.145,0.73c-1.108-0.83-2.105-2.275-2.857-2.63
				c0.921,1.555,1.565,2.632,2.787,2.675c-0.402,0.264-0.8,0.534-1.194,0.809c-0.953-0.819-1.771-2.168-2.432-2.526
				c0.742,1.45,1.264,2.462,2.347,2.586c-0.215,0.151-0.431,0.302-0.643,0.457c-0.123,0.09-0.245,0.183-0.368,0.273
				c-0.878-0.755-1.632-1.998-2.241-2.328c0.684,1.337,1.166,2.271,2.166,2.384c-0.336,0.25-0.668,0.504-0.994,0.767
				c-0.817-0.621-1.506-1.675-2.075-1.945c0.625,1.138,1.062,1.927,2.027,1.983c-0.06,0.048-0.122,0.094-0.182,0.143
				c-0.238,0.195-0.474,0.392-0.706,0.594c-0.742-0.575-1.369-1.528-1.888-1.774c0.567,1.033,0.966,1.755,1.828,1.826
				c-0.276,0.243-0.544,0.495-0.796,0.766c-0.031,0.033-0.029,0.085,0.003,0.116c0.033,0.032,0.085,0.031,0.117-0.002l0.002-0.001
				c0.237-0.245,0.49-0.475,0.751-0.697c-0.243,0.679,0.109,1.368,0.595,2.311c0.083-0.549-0.326-1.552-0.409-2.464
				c0.209-0.173,0.421-0.342,0.634-0.51c0.05-0.04,0.102-0.076,0.153-0.115c-0.343,0.771,0.05,1.541,0.602,2.613
				c0.092-0.607-0.37-1.725-0.448-2.73c0.303-0.231,0.61-0.458,0.921-0.679c-0.395,0.868,0.101,1.772,0.805,3.048
				c0.066-0.686-0.535-1.995-0.675-3.14c0.108-0.077,0.215-0.155,0.324-0.231c0.206-0.143,0.415-0.283,0.623-0.423
				c-0.406,0.933,0.128,1.909,0.885,3.28c0.071-0.739-0.573-2.148-0.73-3.385c0.36-0.24,0.723-0.475,1.088-0.705
				c-0.365,0.95,0.136,2.014,0.828,3.474c0.12-0.781-0.454-2.298-0.57-3.634c0.294-0.183,0.59-0.363,0.888-0.541
				c-0.402,1.034,0.142,2.189,0.895,3.779c0.13-0.848-0.493-2.493-0.619-3.943c0.079-0.046,0.156-0.094,0.235-0.139
				c0.407-0.236,0.818-0.465,1.23-0.69c-0.464,1.044,0.018,2.39,0.682,4.221c0.219-0.9-0.309-2.808-0.32-4.417
				c0.463-0.247,0.93-0.486,1.401-0.715c-0.675,1.162-0.131,2.677,0.634,4.788c0.244-1.002-0.364-3.153-0.347-4.925
				c0.137-0.065,0.274-0.133,0.412-0.197c0.432-0.2,0.868-0.39,1.305-0.575c-0.783,1.219-0.288,2.895,0.405,5.221
				c0.328-1.071-0.194-3.439-0.068-5.362c0.484-0.199,0.973-0.386,1.465-0.562c-0.943,1.33-0.4,3.175,0.372,5.763
				c0.358-1.172-0.219-3.772-0.07-5.867c0.15-0.052,0.299-0.106,0.45-0.155l0.004-0.001c0.001-0.001,0.003-0.001,0.004-0.002
				c0.134-0.047,0.205-0.194,0.158-0.329c-0.047-0.134-0.194-0.205-0.328-0.158c-0.164,0.057-0.325,0.12-0.487,0.18
				c-1.157-0.651-2.322-1.672-3.323-2.432c-0.266-0.008-0.533-0.012-0.8-0.018c1.303,1.543,2.372,2.587,3.7,2.606
				c-0.509,0.196-1.012,0.407-1.51,0.627c-1.693-0.959-3.403-2.77-4.493-3.102c1.558,1.896,2.678,3.25,4.148,3.255
				c-0.375,0.17-0.749,0.344-1.118,0.525C163.129,165.576,162.922,165.683,162.714,165.789z"/>
			<path style="fill:#263238;" d="M150.222,184.485c-1.103-1.198-1.876-2.034-2.953-1.864c0.167-0.203,0.334-0.406,0.498-0.612
				c0.095-0.12,0.187-0.241,0.281-0.361c1.048,0.492,2.107,1.488,2.782,1.643c-1.017-1.105-1.731-1.876-2.725-1.718
				c0.257-0.33,0.508-0.665,0.753-1.005c0.954,0.38,1.899,1.211,2.52,1.32c-0.906-0.93-1.539-1.573-2.484-1.369
				c0.045-0.063,0.092-0.124,0.137-0.187c0.177-0.251,0.352-0.504,0.521-0.761c0.869,0.355,1.728,1.106,2.294,1.204
				c-0.823-0.844-1.4-1.433-2.25-1.27c0.201-0.308,0.392-0.622,0.562-0.952c0.021-0.039,0.006-0.089-0.034-0.11
				c-0.04-0.022-0.09-0.007-0.112,0.033l-0.001,0.002c-0.163,0.299-0.345,0.588-0.537,0.873c0.053-0.719-0.471-1.289-1.191-2.067
				c0.067,0.551,0.729,1.408,1.053,2.265c-0.155,0.222-0.314,0.442-0.474,0.661c-0.038,0.051-0.078,0.101-0.116,0.152
				c0.124-0.835-0.46-1.471-1.28-2.357c0.074,0.609,0.818,1.564,1.162,2.511c-0.23,0.304-0.465,0.604-0.706,0.9
				c0.149-0.942-0.571-1.681-1.591-2.722c0.12,0.678,1.05,1.779,1.49,2.846c-0.084,0.103-0.166,0.207-0.251,0.309
				c-0.16,0.193-0.324,0.383-0.487,0.574c0.142-1.008-0.634-1.805-1.73-2.923c0.129,0.731,1.127,1.916,1.608,3.066
				c-0.283,0.328-0.569,0.651-0.86,0.971c0.097-1.014-0.669-1.904-1.727-3.126c0.093,0.785,1.052,2.093,1.522,3.349
				c-0.234,0.255-0.471,0.508-0.711,0.759c0.111-1.104-0.722-2.072-1.873-3.401c0.102,0.852,1.142,2.271,1.651,3.634
				c-0.063,0.065-0.125,0.132-0.189,0.197c-0.329,0.337-0.663,0.667-1.001,0.995c0.168-1.131-0.657-2.298-1.786-3.885
				c0.03,0.926,1.048,2.623,1.49,4.169c-0.38,0.362-0.766,0.717-1.158,1.064c0.339-1.3-0.59-2.615-1.892-4.444
				c0.033,1.031,1.195,2.941,1.652,4.653c-0.115,0.1-0.228,0.202-0.344,0.3c-0.362,0.309-0.731,0.608-1.104,0.903
				c0.428-1.383-0.497-2.866-1.788-4.922c-0.029,1.12,1.107,3.262,1.5,5.148c-0.414,0.321-0.834,0.632-1.261,0.933
				c0.314-0.872,0.111-1.78-0.378-2.817c0.12,1.194,0.212,2.352,0.293,3.492c0.046-0.034,0.092-0.066,0.138-0.1
				c2.053,0.507,4.378,1.912,5.618,1.944c-2.165-1.52-3.723-2.608-5.252-2.207c0.438-0.325,0.866-0.663,1.287-1.008
				c1.888,0.471,4.02,1.758,5.159,1.788c-2.008-1.41-3.45-2.416-4.868-2.026c0.316-0.265,0.629-0.532,0.937-0.805
				c0.175-0.155,0.346-0.314,0.518-0.472c1.713,0.526,3.615,1.834,4.664,1.922c-1.824-1.445-3.116-2.464-4.485-2.085
				c0.399-0.371,0.789-0.751,1.174-1.137c1.574,0.488,3.319,1.685,4.282,1.766c-1.677-1.329-2.867-2.267-4.125-1.923
				c0.329-0.333,0.656-0.669,0.975-1.011c0.078-0.083,0.153-0.167,0.231-0.251c1.402,0.545,2.868,1.771,3.759,1.924
				c-1.419-1.362-2.407-2.304-3.703-1.985c0.307-0.333,0.61-0.669,0.908-1.009c1.289,0.503,2.637,1.629,3.456,1.77
				c-1.303-1.252-2.212-2.118-3.401-1.832c0.316-0.362,0.628-0.729,0.934-1.099C148.34,183.236,149.489,184.317,150.222,184.485z"/>
			<path style="fill:#263238;" d="M167.631,183.757c-0.723,0.318-1.694,1.618-2.758,2.434c-0.313-0.15-0.624-0.303-0.933-0.458
				c1.088-0.216,1.77-1.296,2.706-2.786c-0.785,0.346-1.838,1.755-2.993,2.641c-0.081-0.042-0.163-0.081-0.244-0.123
				c-0.418-0.216-0.832-0.439-1.243-0.667c1.13-0.17,2.006-1.3,3.193-2.843c-0.877,0.299-2.202,1.769-3.553,2.643
				c-0.457-0.258-0.909-0.523-1.356-0.797c1.342-0.055,2.328-1.329,3.697-3.107c-0.976,0.333-2.464,2.001-3.967,2.939
				c-0.129-0.081-0.259-0.159-0.387-0.242c-0.401-0.256-0.795-0.522-1.186-0.792c1.448,0.006,2.596-1.312,4.185-3.147
				c-1.08,0.299-2.796,2.012-4.486,2.938c-0.428-0.302-0.848-0.613-1.261-0.934c1.628,0.081,2.892-1.369,4.66-3.41
				c-1.181,0.328-3.063,2.212-4.91,3.211c-0.124-0.099-0.251-0.195-0.373-0.296l-0.003-0.002c-0.001-0.001-0.002-0.002-0.003-0.003
				c-0.112-0.088-0.274-0.069-0.362,0.043c-0.088,0.111-0.069,0.273,0.043,0.362c0.136,0.107,0.276,0.21,0.413,0.314
				c0.115,2.112-0.55,4.745-0.218,5.941c0.821-2.515,1.406-4.323,0.577-5.669c0.439,0.324,0.887,0.634,1.34,0.936
				c0.101,1.943-0.507,4.358-0.202,5.456c0.762-2.332,1.302-4.005,0.516-5.248c0.345,0.225,0.692,0.446,1.044,0.661
				c0.199,0.122,0.401,0.239,0.603,0.358c-0.002,1.792-0.697,3.993-0.475,5.022c0.85-2.166,1.447-3.701,0.684-4.898
				c0.471,0.273,0.949,0.535,1.43,0.791c-0.007,1.648-0.642,3.666-0.438,4.611c0.781-1.992,1.33-3.404,0.634-4.507
				c0.415,0.218,0.832,0.432,1.252,0.638c0.102,0.05,0.205,0.098,0.307,0.147c-0.112,1.499-0.856,3.26-0.742,4.157
				c0.888-1.755,1.5-2.975,0.816-4.122c0.408,0.196,0.818,0.388,1.231,0.574c-0.105,1.38-0.788,2.998-0.683,3.822
				c0.816-1.612,1.379-2.734,0.758-3.788c0.439,0.197,0.88,0.388,1.324,0.572c-0.179,1.244-0.876,2.659-0.824,3.409
				c0.824-1.405,1.397-2.389,0.92-3.369c0.243,0.1,0.487,0.2,0.731,0.297c0.142,0.056,0.285,0.108,0.428,0.163
				c-0.165,1.146-0.808,2.45-0.759,3.141c0.76-1.296,1.289-2.204,0.846-3.108c0.391,0.149,0.785,0.292,1.181,0.427
				c-0.085,1.023-0.604,2.171-0.526,2.796c0.624-1.139,1.055-1.931,0.583-2.776c0.073,0.025,0.145,0.052,0.219,0.076
				c0.292,0.096,0.585,0.189,0.88,0.276c-0.086,0.935-0.553,1.976-0.482,2.546c0.567-1.034,0.961-1.758,0.558-2.523
				c0.353,0.102,0.709,0.193,1.074,0.26c0.044,0.008,0.087-0.02,0.096-0.064c0.009-0.045-0.02-0.088-0.064-0.098l-0.002-0.001
				c-0.333-0.068-0.664-0.158-0.992-0.259c0.703-0.16,1.095-0.827,1.629-1.744c-0.508,0.225-1.133,1.109-1.859,1.669
				c-0.258-0.083-0.515-0.171-0.77-0.261c-0.06-0.021-0.12-0.045-0.18-0.066c0.835-0.125,1.273-0.87,1.88-1.913
				c-0.562,0.249-1.256,1.239-2.063,1.845c-0.358-0.131-0.714-0.269-1.067-0.412c0.944-0.133,1.441-1.037,2.138-2.316
				c-0.614,0.313-1.395,1.523-2.286,2.256c-0.123-0.05-0.246-0.099-0.369-0.149c-0.231-0.097-0.461-0.197-0.691-0.298
				c1.005-0.159,1.541-1.134,2.29-2.508c-0.662,0.337-1.503,1.637-2.463,2.434c-0.396-0.174-0.789-0.354-1.18-0.539
				C166.144,186.119,166.772,185.125,167.631,183.757z"/>
			<path style="fill:#263238;" d="M161.857,197.091c0.89,0.3,1.794,0.994,2.365,1.057c-0.874-0.79-1.488-1.341-2.326-1.125
				c0.181-0.32,0.351-0.646,0.501-0.985c0.018-0.041,0-0.089-0.041-0.108c-0.041-0.019-0.09-0.001-0.11,0.04l-0.001,0.003
				c-0.143,0.308-0.307,0.609-0.481,0.905c0.007-0.721-0.551-1.256-1.32-1.988c0.102,0.546,0.817,1.359,1.194,2.194
				c-0.141,0.231-0.285,0.461-0.431,0.689c-0.035,0.054-0.072,0.106-0.107,0.159c0.071-0.841-0.552-1.439-1.426-2.271
				c0.112,0.604,0.915,1.509,1.318,2.433c-0.211,0.317-0.426,0.632-0.647,0.943c0.089-0.949-0.676-1.641-1.76-2.615
				c0.162,0.669,1.16,1.709,1.667,2.746c-0.077,0.108-0.153,0.217-0.231,0.324c-0.148,0.203-0.299,0.403-0.45,0.604
				c0.077-1.015-0.747-1.762-1.911-2.808c0.175,0.722,1.246,1.841,1.799,2.958c-0.261,0.345-0.527,0.686-0.797,1.023
				c0.033-1.018-0.788-1.858-1.921-3.011c0.143,0.777,1.183,2.022,1.73,3.246c-0.218,0.27-0.438,0.537-0.661,0.802
				c0.041-1.108-0.852-2.022-2.085-3.276c0.155,0.844,1.283,2.194,1.877,3.522c-0.059,0.069-0.117,0.14-0.176,0.209
				c-0.307,0.356-0.62,0.708-0.936,1.055c0.096-1.139-0.801-2.251-2.028-3.764c0.088,0.922,1.212,2.551,1.751,4.067
				c-0.356,0.386-0.719,0.764-1.089,1.136c0.256-1.319-0.755-2.572-2.169-4.315c0.098,1.027,1.378,2.86,1.943,4.539
				c-0.108,0.107-0.215,0.215-0.324,0.321c-0.342,0.331-0.692,0.653-1.045,0.972c0.34-1.408-0.677-2.829-2.095-4.8
				c0.042,1.12,1.311,3.186,1.822,5.044c-0.392,0.346-0.792,0.684-1.2,1.011c0.454-1.565-0.663-3.13-2.241-5.322
				c0.046,1.225,1.444,3.491,1.99,5.52c-0.125,0.098-0.248,0.198-0.374,0.294l-0.003,0.002c-0.001,0.001-0.002,0.002-0.003,0.003
				c-0.112,0.088-0.13,0.251-0.042,0.362c0.088,0.111,0.25,0.13,0.362,0.042c0.136-0.108,0.268-0.22,0.402-0.33
				c2.081,0.376,4.49,1.632,5.73,1.585c-2.257-1.38-3.881-2.367-5.382-1.871c0.417-0.353,0.822-0.717,1.221-1.088
				c1.914,0.35,4.123,1.5,5.262,1.458c-2.093-1.281-3.596-2.193-4.986-1.715c0.299-0.284,0.594-0.57,0.884-0.863
				c0.165-0.165,0.326-0.335,0.488-0.503c1.743,0.417,3.724,1.601,4.776,1.623c-1.911-1.327-3.266-2.263-4.607-1.797
				c0.375-0.395,0.74-0.8,1.1-1.209c1.602,0.388,3.419,1.472,4.385,1.492c-1.758-1.221-3.005-2.081-4.238-1.659
				c0.308-0.353,0.612-0.71,0.91-1.07c0.072-0.088,0.143-0.177,0.214-0.265c1.433,0.455,2.974,1.586,3.873,1.683
				c-1.502-1.27-2.548-2.147-3.822-1.747c0.285-0.352,0.566-0.706,0.842-1.065c1.319,0.421,2.734,1.459,3.561,1.548
				c-1.38-1.167-2.341-1.973-3.51-1.613c0.293-0.381,0.581-0.767,0.863-1.156c1.168,0.461,2.384,1.467,3.126,1.589
				c-1.176-1.126-2.001-1.911-3.065-1.674c0.154-0.213,0.308-0.427,0.458-0.643c0.087-0.126,0.171-0.253,0.258-0.378
				c1.077,0.425,2.197,1.352,2.881,1.464c-1.085-1.039-1.846-1.763-2.828-1.542c0.236-0.346,0.465-0.696,0.688-1.05
				c0.976,0.319,1.972,1.089,2.598,1.157c-0.963-0.871-1.635-1.473-2.566-1.208c0.041-0.066,0.084-0.129,0.125-0.195
				C161.546,197.621,161.704,197.358,161.857,197.091z"/>
			<path style="fill:#263238;" d="M167.925,208.251c0.205-0.271,0.428-0.531,0.66-0.784c-0.158,0.703,0.276,1.344,0.874,2.22
				c0.015-0.555-0.514-1.5-0.708-2.395c0.186-0.197,0.376-0.392,0.566-0.583c0.045-0.045,0.092-0.088,0.137-0.133
				c-0.246,0.807,0.238,1.523,0.919,2.52c0.017-0.614-0.579-1.667-0.779-2.655c0.273-0.267,0.549-0.529,0.831-0.787
				c-0.286,0.91,0.318,1.747,1.173,2.926c-0.019-0.688-0.776-1.914-1.055-3.034c0.098-0.089,0.195-0.18,0.294-0.269
				c0.187-0.167,0.377-0.332,0.566-0.497c-0.288,0.976,0.362,1.879,1.281,3.146c-0.02-0.743-0.833-2.061-1.14-3.269
				c0.328-0.282,0.659-0.56,0.993-0.834c-0.245,0.988,0.382,1.982,1.248,3.346c0.023-0.79-0.733-2.225-1.012-3.536
				c0.27-0.218,0.541-0.434,0.815-0.646c-0.273,1.075,0.41,2.155,1.352,3.64c0.025-0.857-0.795-2.414-1.098-3.837
				c0.072-0.056,0.143-0.112,0.216-0.167c0.375-0.284,0.754-0.562,1.136-0.836c-0.333,1.094,0.311,2.369,1.195,4.105
				c0.107-0.92-0.651-2.749-0.86-4.344c0.429-0.302,0.863-0.596,1.303-0.882c-0.527,1.235,0.199,2.673,1.217,4.674
				c0.119-1.024-0.749-3.085-0.949-4.846c0.128-0.082,0.255-0.166,0.384-0.246c0.404-0.252,0.813-0.494,1.225-0.731
				c-0.628,1.305,0.069,2.908,1.044,5.132c0.193-1.104-0.615-3.389-0.726-5.313c0.456-0.257,0.918-0.503,1.385-0.737
				c-0.772,1.436-0.007,3.2,1.076,5.674c0.212-1.207-0.681-3.717-0.789-5.814c0.143-0.069,0.284-0.142,0.428-0.209l0.003-0.002
				c0.001,0,0.003-0.001,0.004-0.002c0.128-0.063,0.18-0.217,0.117-0.345c-0.063-0.127-0.217-0.18-0.345-0.117
				c-0.156,0.077-0.308,0.159-0.462,0.238c-1.956-0.804-4.049-2.536-5.271-2.75c1.918,1.822,3.299,3.127,4.87,2.957
				c-0.481,0.257-0.954,0.528-1.421,0.808c-1.798-0.744-3.717-2.331-4.84-2.527c1.779,1.691,3.057,2.897,4.517,2.721
				c-0.352,0.214-0.701,0.433-1.045,0.658c-0.196,0.128-0.389,0.259-0.582,0.39c-1.617-0.772-3.306-2.346-4.33-2.587
				c1.591,1.698,2.72,2.896,4.129,2.723c-0.449,0.308-0.891,0.627-1.328,0.952c-1.486-0.714-3.034-2.155-3.975-2.377
				c1.463,1.561,2.502,2.664,3.797,2.509c-0.375,0.281-0.747,0.566-1.114,0.856c-0.089,0.071-0.176,0.144-0.265,0.214
				c-1.306-0.745-2.576-2.174-3.435-2.456c1.203,1.556,2.042,2.633,3.371,2.508c-0.353,0.284-0.702,0.572-1.047,0.865
				c-1.201-0.688-2.368-1.999-3.158-2.259c1.105,1.43,1.876,2.42,3.095,2.313c-0.366,0.312-0.728,0.628-1.085,0.949
				c-1.046-0.695-2.024-1.934-2.723-2.208c0.914,1.348,1.557,2.289,2.647,2.279c-0.195,0.177-0.39,0.353-0.583,0.533
				c-0.111,0.104-0.221,0.211-0.331,0.316c-0.964-0.641-1.865-1.782-2.51-2.036c0.843,1.243,1.436,2.111,2.442,2.1
				c-0.303,0.289-0.601,0.583-0.893,0.883c-0.887-0.516-1.7-1.477-2.298-1.676c0.76,1.053,1.29,1.782,2.256,1.719
				c-0.054,0.056-0.11,0.109-0.163,0.165c-0.212,0.222-0.422,0.447-0.627,0.676c-0.807-0.48-1.546-1.348-2.092-1.529
				c0.689,0.956,1.174,1.623,2.038,1.587c-0.244,0.275-0.479,0.558-0.696,0.858c-0.026,0.037-0.019,0.087,0.017,0.114
				c0.036,0.028,0.088,0.02,0.116-0.016L167.925,208.251z"/>
			<path style="fill:#263238;" d="M156.201,222.497c0.399-0.371,0.789-0.751,1.174-1.137c1.574,0.488,3.318,1.686,4.282,1.766
				c-1.677-1.329-2.867-2.267-4.125-1.923c0.329-0.333,0.656-0.669,0.976-1.011c0.078-0.083,0.153-0.168,0.231-0.251
				c1.402,0.545,2.868,1.771,3.759,1.924c-1.419-1.362-2.407-2.304-3.703-1.984c0.307-0.333,0.61-0.67,0.908-1.01
				c1.29,0.504,2.637,1.629,3.456,1.77c-1.303-1.251-2.212-2.118-3.401-1.832c0.316-0.362,0.628-0.728,0.934-1.099
				c1.137,0.534,2.287,1.615,3.019,1.784c-1.103-1.198-1.877-2.034-2.953-1.864c0.167-0.204,0.334-0.407,0.498-0.613
				c0.095-0.12,0.187-0.241,0.281-0.361c1.048,0.492,2.107,1.488,2.782,1.643c-1.017-1.105-1.731-1.876-2.725-1.717
				c0.257-0.33,0.508-0.665,0.753-1.005c0.954,0.38,1.899,1.211,2.52,1.319c-0.906-0.93-1.539-1.573-2.484-1.369
				c0.045-0.063,0.092-0.124,0.137-0.187c0.177-0.251,0.352-0.504,0.521-0.761c0.869,0.355,1.728,1.106,2.294,1.205
				c-0.823-0.844-1.4-1.433-2.25-1.27c0.201-0.308,0.391-0.623,0.562-0.952c0.021-0.04,0.006-0.089-0.034-0.111
				c-0.04-0.021-0.09-0.007-0.112,0.033l-0.001,0.002c-0.163,0.299-0.345,0.589-0.537,0.873c0.053-0.719-0.471-1.289-1.191-2.067
				c0.067,0.551,0.729,1.408,1.053,2.265c-0.155,0.222-0.314,0.442-0.474,0.661c-0.038,0.051-0.078,0.101-0.116,0.152
				c0.124-0.835-0.46-1.472-1.28-2.357c0.074,0.61,0.818,1.564,1.162,2.511c-0.23,0.304-0.465,0.604-0.706,0.9
				c0.149-0.941-0.571-1.681-1.591-2.721c0.12,0.678,1.05,1.779,1.49,2.845c-0.084,0.103-0.166,0.207-0.251,0.309
				c-0.16,0.193-0.324,0.384-0.487,0.574c0.142-1.007-0.634-1.805-1.73-2.923c0.129,0.731,1.127,1.915,1.609,3.066
				c-0.283,0.327-0.569,0.65-0.86,0.971c0.098-1.014-0.669-1.904-1.727-3.126c0.094,0.785,1.053,2.093,1.522,3.349
				c-0.234,0.255-0.471,0.508-0.711,0.759c0.111-1.104-0.722-2.072-1.873-3.401c0.102,0.851,1.142,2.27,1.651,3.634
				c-0.063,0.065-0.125,0.132-0.189,0.197c-0.329,0.337-0.663,0.667-1.001,0.994c0.168-1.131-0.657-2.298-1.786-3.885
				c0.03,0.926,1.049,2.623,1.49,4.17c-0.38,0.362-0.766,0.717-1.159,1.064c0.339-1.3-0.59-2.615-1.892-4.443
				c0.033,1.031,1.194,2.941,1.652,4.653c-0.115,0.1-0.228,0.202-0.344,0.3c-0.362,0.308-0.732,0.608-1.104,0.903
				c0.429-1.383-0.497-2.866-1.787-4.922c-0.029,1.107,1.077,3.21,1.482,5.08c0.257,0.018,0.514,0.036,0.77,0.053
				c0.31-0.26,0.618-0.522,0.921-0.791c0.175-0.155,0.346-0.314,0.518-0.472c1.177,0.361,2.438,1.085,3.456,1.536
				c0.254,0.011,0.506,0.021,0.759,0.032C158.646,222.979,157.453,222.15,156.201,222.497z"/>
			<path style="fill:#263238;" d="M150.669,219.419c-0.025,0.968,0.748,2.64,1.28,4.315c0.252,0.019,0.506,0.04,0.757,0.058
				C152.624,222.553,151.775,221.181,150.669,219.419z"/>
			<path style="fill:#263238;" d="M154.636,223.927c0.505,0.033,1.008,0.065,1.509,0.095
				C155.624,223.851,155.128,223.808,154.636,223.927z"/>
			<path style="fill:#263238;" d="M183.739,221.832c0.029-0.058,0.057-0.122,0.085-0.184c-0.123-0.042-0.246-0.082-0.368-0.125
				c-0.06-0.021-0.12-0.045-0.18-0.066c0.298-0.045,0.543-0.171,0.766-0.358c0.091-0.261,0.177-0.54,0.256-0.847
				c-0.367,0.374-0.768,0.811-1.204,1.138c-0.358-0.131-0.714-0.269-1.067-0.412c0.944-0.133,1.441-1.037,2.138-2.316
				c-0.614,0.313-1.395,1.523-2.286,2.257c-0.123-0.05-0.246-0.099-0.369-0.15c-0.231-0.097-0.461-0.197-0.691-0.298
				c1.005-0.159,1.541-1.134,2.29-2.508c-0.662,0.337-1.503,1.638-2.463,2.434c-0.396-0.174-0.789-0.354-1.18-0.539
				c0.998-0.203,1.625-1.197,2.485-2.565c-0.723,0.319-1.694,1.618-2.758,2.434c-0.313-0.15-0.624-0.302-0.933-0.458
				c1.088-0.216,1.77-1.296,2.706-2.786c-0.785,0.346-1.838,1.755-2.993,2.641c-0.081-0.042-0.163-0.081-0.244-0.123
				c-0.418-0.216-0.832-0.439-1.243-0.667c1.13-0.17,2.006-1.299,3.193-2.843c-0.877,0.299-2.202,1.77-3.552,2.644
				c-0.457-0.257-0.91-0.523-1.356-0.797c1.342-0.056,2.328-1.329,3.697-3.108c-0.976,0.333-2.464,2.001-3.967,2.939
				c-0.129-0.081-0.26-0.159-0.387-0.241c-0.401-0.256-0.795-0.522-1.186-0.792c1.448,0.006,2.596-1.312,4.185-3.147
				c-1.08,0.3-2.796,2.012-4.486,2.938c-0.428-0.302-0.848-0.612-1.261-0.934c1.628,0.081,2.892-1.369,4.66-3.41
				c-1.181,0.328-3.063,2.212-4.911,3.212c-0.124-0.099-0.25-0.195-0.373-0.296l-0.003-0.003c-0.001-0.001-0.002-0.001-0.003-0.002
				c-0.112-0.088-0.274-0.069-0.362,0.043c-0.088,0.112-0.069,0.273,0.043,0.362c0.136,0.107,0.276,0.209,0.413,0.314
				c0.115,2.112-0.55,4.746-0.218,5.941c0.822-2.515,1.407-4.323,0.577-5.668c0.439,0.324,0.887,0.634,1.34,0.936
				c0.101,1.943-0.507,4.358-0.202,5.456c0.762-2.333,1.302-4.005,0.516-5.248c0.345,0.225,0.693,0.446,1.044,0.661
				c0.199,0.122,0.401,0.239,0.603,0.358c-0.002,1.792-0.698,3.993-0.475,5.022c0.85-2.166,1.447-3.701,0.684-4.898
				c0.471,0.273,0.949,0.536,1.43,0.79c-0.007,1.648-0.642,3.666-0.438,4.611c0.781-1.992,1.33-3.404,0.634-4.507
				c0.415,0.218,0.832,0.432,1.252,0.638c0.102,0.05,0.205,0.098,0.307,0.148c-0.112,1.5-0.856,3.26-0.742,4.157
				c0.888-1.755,1.5-2.975,0.816-4.122c0.408,0.196,0.818,0.388,1.231,0.574c-0.102,1.338-0.741,2.893-0.684,3.739
				c0.016-0.002,0.031-0.005,0.047-0.007c0.79-1.562,1.321-2.664,0.713-3.697c0.439,0.197,0.88,0.388,1.324,0.572
				c-0.145,1.01-0.626,2.127-0.776,2.915c0.089-0.017,0.182-0.033,0.269-0.051c0.642-1.124,1.017-1.977,0.604-2.825
				c0.243,0.1,0.486,0.201,0.731,0.297c0.142,0.056,0.285,0.108,0.428,0.163c-0.1,0.694-0.373,1.444-0.564,2.083
				c0.159-0.043,0.316-0.087,0.463-0.133c0.344-0.714,0.482-1.317,0.189-1.916c0.391,0.149,0.785,0.292,1.181,0.427
				c-0.028,0.335-0.105,0.68-0.19,1.018c0.163-0.083,0.309-0.171,0.44-0.262c-0.002-0.247-0.055-0.49-0.193-0.737
				c0.073,0.025,0.145,0.052,0.219,0.076C183.504,221.76,183.622,221.795,183.739,221.832z"/>
			<path style="fill:#263238;" d="M145.26,200.96l0.004-0.001c0.001-0.001,0.003-0.001,0.004-0.001
				c0.137-0.038,0.217-0.18,0.179-0.317c-0.038-0.137-0.18-0.217-0.317-0.179c-0.167,0.046-0.332,0.099-0.498,0.148
				c-1.772-1.154-3.504-3.247-4.665-3.685c1.544,2.148,2.657,3.688,4.233,3.813c-0.521,0.163-1.036,0.341-1.547,0.529
				c-1.203-0.788-2.383-2.038-3.349-2.8c0.001,0.233-0.003,0.452-0.003,0.683c0.995,1.304,1.868,2.171,2.998,2.247
				c-0.385,0.146-0.769,0.295-1.15,0.452c-0.216,0.089-0.43,0.182-0.645,0.275c-0.414-0.304-0.819-0.674-1.212-1.057
				c-0.004,0.28-0.008,0.558-0.013,0.833c0.309,0.183,0.638,0.295,1.002,0.319c-0.345,0.151-0.684,0.314-1.025,0.475
				c-0.004,0.142-0.008,0.281-0.012,0.422c0.445-0.201,0.893-0.396,1.345-0.581c-0.748,1.116-0.303,2.664,0.324,4.819
				c0.308-0.984-0.16-3.171-0.028-4.937c0.141-0.057,0.282-0.116,0.424-0.17c0.444-0.172,0.891-0.333,1.34-0.49
				c-0.86,1.165-0.474,2.87,0.068,5.237c0.396-1.048,0.028-3.445,0.278-5.355c0.496-0.167,0.995-0.323,1.498-0.465
				c-1.027,1.266-0.604,3.142-0.001,5.774c0.433-1.146,0.024-3.778,0.309-5.859C144.954,201.044,145.106,200.999,145.26,200.96z"/>
			<path style="fill:#263238;" d="M139.077,207.23c0.034,0.118,0.067,0.232,0.102,0.355c0.176-0.563,0.077-1.553,0.005-2.612
				C139.153,205.744,139.117,206.498,139.077,207.23z"/>
			<path style="fill:#263238;" d="M142.621,221.859c-0.122-0.199-0.249-0.396-0.375-0.592c0.813-1.597,2.429-3.245,2.697-4.263
				c-1.738,1.547-2.965,2.645-2.827,4.058c-0.297-0.457-0.604-0.907-0.917-1.352c0.752-1.467,2.232-2.979,2.478-3.913
				c-1.598,1.423-2.727,2.433-2.606,3.731c-0.271-0.382-0.546-0.761-0.828-1.135c-0.068-0.091-0.139-0.18-0.207-0.271
				c0.778-1.287,2.239-2.52,2.543-3.371c-1.586,1.163-2.684,1.974-2.593,3.306c-0.275-0.359-0.554-0.716-0.838-1.068
				c0.718-1.184,2.059-2.316,2.339-3.099c-1.458,1.068-2.467,1.814-2.391,3.035c-0.202-0.251-0.41-0.497-0.617-0.743
				c-0.009,0.138-0.018,0.281-0.026,0.416c0.118,0.149,0.239,0.296,0.355,0.446c-0.126-0.035-0.252-0.054-0.38-0.061
				c-0.008,0.149-0.014,0.292-0.022,0.438c0.197-0.052,0.393-0.1,0.586-0.136c0.211,0.275,0.419,0.552,0.625,0.831
				c-0.403-0.113-0.809-0.09-1.241,0.03c-0.009,0.207-0.02,0.421-0.026,0.622c0.481-0.155,0.976-0.303,1.457-0.393
				c0.053,0.073,0.108,0.146,0.162,0.22c0.275,0.382,0.543,0.769,0.807,1.157c-0.702-0.233-1.494-0.056-2.44,0.323
				c0,0.184-0.005,0.379-0.002,0.557c0.836-0.191,1.789-0.446,2.672-0.539c0.291,0.436,0.574,0.878,0.849,1.324
				c-0.954-0.436-2.054-0.107-3.453,0.516c0.01,0.129,0.011,0.275,0.024,0.4c0.076,0.01,0.152,0.019,0.228,0.029
				c1.019-0.217,2.254-0.575,3.366-0.673c0.079,0.13,0.159,0.259,0.236,0.39c0.15,0.256,0.292,0.516,0.436,0.774
				c0.187,0.021,0.373,0.042,0.56,0.063C143.046,222.561,142.837,222.208,142.621,221.859z"/>
			<path style="fill:#263238;" d="M138.713,212.781c-0.012,0.162-0.022,0.308-0.034,0.468c0.32-0.334,0.588-0.64,0.7-0.905
				C139.141,212.498,138.921,212.641,138.713,212.781z"/>
			<path style="fill:#263238;" d="M144.592,223.063c0.296,0.032,0.592,0.064,0.889,0.094c0.799-1.269,1.645-2.45,1.808-3.26
				C146.083,221.102,145.105,222.091,144.592,223.063z"/>
			<path style="fill:#263238;" d="M143.583,222.955c0.827-1.689,2.292-3.424,2.505-4.48c-1.734,1.734-2.972,2.98-2.835,4.443
				C143.363,222.93,143.473,222.943,143.583,222.955z"/>
			<path style="fill:#263238;" d="M138.584,214.572c-0.019,0.267-0.036,0.532-0.054,0.791c0.723-0.851,1.673-1.624,1.921-2.213
				C139.65,213.663,138.998,214.09,138.584,214.572z"/>
		</g>
		<path style="fill:#FFB573;" d="M208.043,190.123l4.421-4.688l6.122,8.621c0,0-5.168,3.668-10.12,3.521l-0.568-1.266
			C206.975,194.252,207.028,191.976,208.043,190.123z"/>
		<path style="fill:#FFB573;" d="M219.549,185.886l1.729,3.258c0.788,1.485,0.232,3.328-1.247,4.129l-1.445,0.783l-6.122-8.621
			l3.501-1.047C217.364,183.968,218.864,184.596,219.549,185.886z"/>
		<path style="fill:#FFB573;" d="M184.683,173.29l0.372,1.914l0.42,2.021c0.301,1.348,0.595,2.701,0.935,4.037
			c0.652,2.681,1.424,5.307,2.264,7.847c0.869,2.521,1.844,4.953,2.965,7.108c1.128,2.134,2.428,3.997,3.665,5.104l-2.126-1.047
			c-0.623-0.085-0.735,0.105-0.412,0.094c0.306,0,0.888-0.16,1.516-0.434c1.277-0.561,2.795-1.454,4.259-2.493
			c1.492-1.023,2.986-2.186,4.484-3.388c1.491-1.188,3.014-2.5,4.466-3.689l0.154-0.127c1.504-1.231,3.721-1.011,4.953,0.493
			c0.915,1.117,1.026,2.63,0.408,3.838c-1.025,1.996-2.125,3.754-3.352,5.547c-1.226,1.773-2.566,3.489-4.075,5.164
			c-1.541,1.648-3.186,3.296-5.389,4.782c-1.115,0.738-2.361,1.464-3.993,2.037c-0.817,0.285-1.745,0.519-2.817,0.617
			c-1.066,0.1-2.293,0.057-3.563-0.256c-0.699-0.173-1.334-0.474-1.885-0.871l-0.242-0.177c-3.477-2.521-5.76-5.527-7.609-8.492
			c-0.914-1.49-1.729-2.991-2.466-4.495c-0.714-1.51-1.362-3.024-1.96-4.54c-1.186-3.029-2.129-6.083-2.932-9.145
			c-0.39-1.535-0.764-3.069-1.071-4.621c-0.157-0.775-0.309-1.553-0.444-2.338c-0.135-0.808-0.25-1.53-0.379-2.467
			c-0.527-3.829,2.15-7.359,5.979-7.886c3.693-0.508,7.109,1.965,7.819,5.577L184.683,173.29z"/>
		<path style="fill:#263238;" d="M175.094,162.791c5.813,0.601,10.468,4.458,13.718,16.75c-2.5,3.459-18.25,11.05-18.25,11.05
			S161.793,161.415,175.094,162.791z"/>
	</g>
</g>
</svg>
