<?xml version="1.0" encoding="utf-8"?>
<!-- Generator: Adobe Illustrator 27.5.0, SVG Export Plug-In . SVG Version: 6.00 Build 0)  -->
<svg version="1.1" xmlns="http://www.w3.org/2000/svg" xmlns:xlink="http://www.w3.org/1999/xlink" x="0px" y="0px"
	 viewBox="0 0 500 500" style="enable-background:new 0 0 500 500;" xml:space="preserve">
<g id="Background_Complete">
	<g>
		<rect y="382.398" style="fill:#EBEBEB;" width="500" height="0.25"/>
		<rect x="416.779" y="398.494" style="fill:#EBEBEB;" width="33.122" height="0.25"/>
		<rect x="322.527" y="401.208" style="fill:#EBEBEB;" width="8.693" height="0.25"/>
		<rect x="396.586" y="389.208" style="fill:#EBEBEB;" width="19.192" height="0.25"/>
		<rect x="52.459" y="390.888" style="fill:#EBEBEB;" width="43.193" height="0.25"/>
		<rect x="104.556" y="390.888" style="fill:#EBEBEB;" width="6.333" height="0.25"/>
		<rect x="131.471" y="395.111" style="fill:#EBEBEB;" width="93.676" height="0.25"/>
		<path style="fill:#EBEBEB;" d="M237.014,337.8H43.915c-3.147,0-5.708-2.561-5.708-5.708V60.66c0-3.147,2.561-5.708,5.708-5.708
			h193.099c3.146,0,5.707,2.561,5.707,5.708v271.432C242.721,335.239,240.16,337.8,237.014,337.8z M43.915,55.203
			c-3.01,0-5.458,2.448-5.458,5.458v271.432c0,3.01,2.448,5.458,5.458,5.458h193.099c3.009,0,5.457-2.448,5.457-5.458V60.66
			c0-3.009-2.448-5.458-5.457-5.458H43.915z"/>
		<path style="fill:#EBEBEB;" d="M453.31,337.8H260.212c-3.147,0-5.707-2.561-5.707-5.708V60.66c0-3.147,2.561-5.708,5.707-5.708
			H453.31c3.148,0,5.708,2.561,5.708,5.708v271.432C459.019,335.239,456.458,337.8,453.31,337.8z M260.212,55.203
			c-3.009,0-5.457,2.448-5.457,5.458v271.432c0,3.01,2.448,5.458,5.457,5.458H453.31c3.01,0,5.458-2.448,5.458-5.458V60.66
			c0-3.009-2.448-5.458-5.458-5.458H260.212z"/>
	</g>
	<g>
		<g>
			<circle style="fill:#FAFAFA;" cx="118.36" cy="107.435" r="27.787"/>
			<path style="fill:#F5F5F5;" d="M103.945,107.122c0-2.668-2.163-4.83-4.83-4.83c-0.482,0-0.947,0.073-1.387,0.204
				c0.07-0.484,0.108-0.979,0.108-1.483c0-5.649-4.58-10.229-10.229-10.229c-0.644,0-1.273,0.062-1.884,0.176
				c-1.572-2.573-4.398-4.296-7.634-4.296c-4.898,0-8.871,3.935-8.944,8.816c-0.05-0.001-0.099-0.007-0.149-0.007
				c-4.551,0-8.24,3.689-8.24,8.24s3.689,8.24,8.24,8.24h30.261l-0.006-0.007C101.855,111.873,103.945,109.744,103.945,107.122z"/>
			<path style="fill:#F5F5F5;" d="M351.847,129.498c0-2.668-2.163-4.83-4.83-4.83c-0.482,0-0.947,0.073-1.387,0.204
				c0.07-0.484,0.108-0.979,0.108-1.483c0-5.649-4.58-10.229-10.229-10.229c-0.644,0-1.273,0.062-1.884,0.176
				c-1.572-2.573-4.398-4.296-7.634-4.296c-4.898,0-8.871,3.935-8.943,8.816c-0.05-0.001-0.099-0.007-0.149-0.007
				c-4.551,0-8.24,3.689-8.24,8.24s3.689,8.24,8.24,8.24h30.261l-0.006-0.007C349.757,134.249,351.847,132.12,351.847,129.498z"/>
			<path style="fill:#F5F5F5;" d="M215.616,98.251c0-2.668,2.163-4.83,4.83-4.83c0.482,0,0.947,0.073,1.387,0.204
				c-0.07-0.484-0.108-0.979-0.108-1.483c0-5.649,4.58-10.229,10.229-10.229c0.644,0,1.273,0.062,1.884,0.176
				c1.572-2.573,4.398-4.296,7.634-4.296c4.898,0,8.871,3.935,8.944,8.816c0.05-0.001,0.099-0.007,0.149-0.007
				c4.551,0,8.24,3.689,8.24,8.24c0,4.551-3.689,8.24-8.24,8.24h-30.261l0.006-0.007
				C217.706,103.002,215.616,100.873,215.616,98.251z"/>
			<path style="fill:#F5F5F5;" d="M164.554,121.594c0-1.659-1.345-3.003-3.003-3.003c-0.3,0-0.589,0.045-0.862,0.127
				c0.044-0.301,0.067-0.609,0.067-0.922c0-3.512-2.847-6.359-6.359-6.359c-0.4,0-0.792,0.039-1.171,0.109
				c-0.977-1.6-2.734-2.671-4.746-2.671c-3.045,0-5.515,2.447-5.56,5.481c-0.031,0-0.061-0.005-0.093-0.005
				c-2.829,0-5.123,2.294-5.123,5.123s2.294,5.123,5.123,5.123h18.813l-0.004-0.004
				C163.254,124.547,164.554,123.224,164.554,121.594z"/>
			<path style="fill:#F5F5F5;" d="M176.769,174.089c0-1.659,1.345-3.003,3.003-3.003c0.3,0,0.589,0.045,0.862,0.127
				c-0.044-0.301-0.067-0.609-0.067-0.922c0-3.512,2.847-6.359,6.359-6.359c0.4,0,0.792,0.039,1.172,0.109
				c0.977-1.6,2.734-2.671,4.746-2.671c3.045,0,5.515,2.447,5.56,5.481c0.031-0.001,0.061-0.005,0.093-0.005
				c2.829,0,5.123,2.294,5.123,5.123s-2.293,5.123-5.123,5.123h-18.813l0.004-0.004
				C178.069,177.043,176.769,175.719,176.769,174.089z"/>
			<path style="fill:#F5F5F5;" d="M388.511,172.054c0-1.659,1.345-3.003,3.003-3.003c0.3,0,0.589,0.045,0.862,0.127
				c-0.044-0.301-0.067-0.609-0.067-0.922c0-3.512,2.847-6.359,6.359-6.359c0.4,0,0.792,0.039,1.172,0.11
				c0.977-1.6,2.734-2.671,4.746-2.671c3.045,0,5.515,2.447,5.56,5.481c0.031-0.001,0.061-0.005,0.093-0.005
				c2.829,0,5.123,2.294,5.123,5.123s-2.293,5.123-5.123,5.123h-18.813l0.004-0.004
				C389.811,175.007,388.511,173.684,388.511,172.054z"/>
		</g>
		<g>
			<rect x="153.625" y="200.038" style="fill:#F5F5F5;" width="8.209" height="180.94"/>
			<rect x="83.625" y="200.038" style="fill:#F5F5F5;" width="8.209" height="180.94"/>
			<rect x="203.625" y="246.299" style="fill:#E6E6E6;" width="8.209" height="134.679"/>
			<rect x="133.625" y="246.299" style="fill:#E6E6E6;" width="8.209" height="134.679"/>
			<g>
				<g>
					<polygon style="fill:#F5F5F5;" points="123.577,224.728 60.437,224.728 36.22,172.354 99.361,172.354 					"/>
				</g>
				<g>
					<polygon style="fill:#FAFAFA;" points="111.757,199.163 48.616,199.163 48.041,197.919 111.181,197.919 					"/>
				</g>
				<g>
					<g>
						<polygon style="fill:#FAFAFA;" points="71.69,224.728 70.19,224.728 45.973,172.354 47.473,172.354 						"/>
					</g>
					<g>
						<polygon style="fill:#FAFAFA;" points="82.223,224.728 80.723,224.728 56.507,172.354 58.007,172.354 						"/>
					</g>
					<g>
						<polygon style="fill:#FAFAFA;" points="92.757,224.728 91.257,224.728 67.04,172.354 68.54,172.354 						"/>
					</g>
					<g>
						<polygon style="fill:#FAFAFA;" points="103.29,224.728 101.79,224.728 77.574,172.354 79.074,172.354 						"/>
					</g>
					<g>
						<polygon style="fill:#FAFAFA;" points="113.824,224.728 112.324,224.728 88.108,172.354 89.608,172.354 						"/>
					</g>
				</g>
			</g>
			<g>
				<g>
					<polygon style="fill:#F5F5F5;" points="190.195,224.728 140.841,224.728 121.913,183.79 171.266,183.79 					"/>
				</g>
				<g>
					<polygon style="fill:#FAFAFA;" points="180.955,204.746 131.602,204.746 131.152,203.773 180.505,203.773 					"/>
				</g>
				<g>
					<g>
						<polygon style="fill:#FAFAFA;" points="149.637,224.728 148.465,224.728 129.536,183.79 130.709,183.79 						"/>
					</g>
					<g>
						<polygon style="fill:#FAFAFA;" points="157.871,224.728 156.698,224.728 137.77,183.79 138.942,183.79 						"/>
					</g>
					<g>
						<polygon style="fill:#FAFAFA;" points="166.104,224.728 164.932,224.728 146.003,183.79 147.176,183.79 						"/>
					</g>
					<g>
						<polygon style="fill:#FAFAFA;" points="174.338,224.728 173.165,224.728 154.237,183.79 155.409,183.79 						"/>
					</g>
					<g>
						<polygon style="fill:#FAFAFA;" points="182.571,224.728 181.399,224.728 162.47,183.79 163.643,183.79 						"/>
					</g>
				</g>
			</g>
			<g>
				<g>
					<polygon style="fill:#EBEBEB;" points="177.303,262.712 114.162,262.712 89.946,210.338 153.087,210.338 					"/>
				</g>
				<g>
					<polygon style="fill:#F5F5F5;" points="165.482,237.148 102.342,237.148 101.767,235.903 164.907,235.903 					"/>
				</g>
				<g>
					<g>
						<polygon style="fill:#F5F5F5;" points="125.416,262.712 123.916,262.712 99.699,210.338 101.199,210.338 						"/>
					</g>
					<g>
						<polygon style="fill:#F5F5F5;" points="135.949,262.712 134.449,262.712 110.233,210.338 111.733,210.338 						"/>
					</g>
					<g>
						<polygon style="fill:#F5F5F5;" points="146.482,262.712 144.982,262.712 120.766,210.338 122.266,210.338 						"/>
					</g>
					<g>
						<polygon style="fill:#F5F5F5;" points="157.016,262.712 155.516,262.712 131.3,210.338 132.8,210.338 						"/>
					</g>
					<g>
						<polygon style="fill:#F5F5F5;" points="167.55,262.712 166.05,262.712 141.834,210.338 143.334,210.338 						"/>
					</g>
				</g>
			</g>
			<g>
				<g>
					<polygon style="fill:#EBEBEB;" points="241.523,262.712 192.17,262.712 173.241,221.774 222.595,221.774 					"/>
				</g>
				<g>
					<polygon style="fill:#F5F5F5;" points="232.284,242.73 182.93,242.73 182.481,241.757 231.834,241.757 					"/>
				</g>
				<g>
					<g>
						<polygon style="fill:#F5F5F5;" points="200.966,262.712 199.793,262.712 180.865,221.775 182.037,221.775 						"/>
					</g>
					<g>
						<polygon style="fill:#F5F5F5;" points="209.199,262.712 208.027,262.712 189.098,221.775 190.271,221.775 						"/>
					</g>
					<g>
						<polygon style="fill:#F5F5F5;" points="217.432,262.712 216.26,262.712 197.332,221.775 198.504,221.775 						"/>
					</g>
					<g>
						<polygon style="fill:#F5F5F5;" points="225.666,262.712 224.494,262.712 205.565,221.775 206.738,221.775 						"/>
					</g>
					<g>
						<polygon style="fill:#F5F5F5;" points="233.9,262.712 232.727,262.712 213.799,221.775 214.971,221.775 						"/>
					</g>
				</g>
			</g>
		</g>
		<g>
			<path style="fill:#F5F5F5;" d="M299.653,380.978l-1.601-237.557c-0.01-1.524-1.249-2.754-2.773-2.754l0,0
				c-1.524,0-2.762,1.23-2.773,2.754l-1.601,237.557H299.653z"/>
			<g>
				<path style="fill:#F0F0F0;" d="M292.859,153.402l-25.762,33.435c-0.364,0.472-0.276,1.149,0.196,1.513h0
					c0.437,0.337,1.058,0.289,1.439-0.11l25.966-27.217l-1.376-3.218l1.956-2.538L292.859,153.402z"/>
				<path style="fill:#F0F0F0;" d="M295.278,155.266l-16.258-38.952c-0.229-0.55-0.861-0.81-1.411-0.58l0,0
					c-0.509,0.213-0.776,0.775-0.618,1.304l10.757,36.046l3.477,0.401l1.234,2.957L295.278,155.266z"/>
				<path style="fill:#F0F0F0;" d="M292.539,156.439l41.976,4.422c0.592,0.062,1.123-0.367,1.186-0.96l0,0
					c0.058-0.549-0.308-1.053-0.848-1.168l-36.788-7.854l-2.02,2.858l-3.187-0.336L292.539,156.439z"/>
			</g>
		</g>
		<g>
			<path style="fill:#F5F5F5;" d="M359.471,380.978l-1.779-263.952c-0.011-1.693-1.387-3.06-3.081-3.06l0,0
				c-1.693,0-3.069,1.367-3.081,3.06l-1.779,263.952H359.471z"/>
			<g>
				<path style="fill:#EBEBEB;" d="M351.922,128.116l-28.624,37.15c-0.404,0.524-0.306,1.277,0.218,1.681l0,0
					c0.486,0.374,1.176,0.322,1.599-0.122l28.852-30.242l-1.529-3.575l2.173-2.82L351.922,128.116z"/>
				<path style="fill:#EBEBEB;" d="M354.61,130.187l-18.064-43.28c-0.255-0.611-0.957-0.9-1.568-0.645l0,0
					c-0.566,0.236-0.862,0.861-0.687,1.449l11.953,40.051l3.863,0.445l1.371,3.286L354.61,130.187z"/>
				<path style="fill:#EBEBEB;" d="M351.566,131.491l46.64,4.913c0.658,0.069,1.248-0.408,1.318-1.066l0,0
					c0.064-0.61-0.342-1.17-0.942-1.298l-40.876-8.727l-2.244,3.176l-3.541-0.373L351.566,131.491z"/>
			</g>
		</g>
		<g>
			<path style="fill:#F0F0F0;" d="M419.269,380.978l-1.977-293.28c-0.013-1.882-1.542-3.4-3.423-3.4l0,0
				c-1.882,0-3.41,1.519-3.423,3.4l-1.977,293.28H419.269z"/>
			<g>
				<path style="fill:#E6E6E6;" d="M410.881,100.02l-31.805,41.277c-0.449,0.583-0.341,1.419,0.242,1.868l0,0
					c0.54,0.416,1.306,0.357,1.777-0.136l32.057-33.602l-1.699-3.973l2.415-3.134L410.881,100.02z"/>
				<path style="fill:#E6E6E6;" d="M413.868,102.322l-20.071-48.089c-0.283-0.679-1.063-1-1.742-0.716l0,0
					c-0.629,0.262-0.958,0.957-0.763,1.61l13.281,44.502l4.292,0.495l1.524,3.651L413.868,102.322z"/>
				<path style="fill:#E6E6E6;" d="M410.486,103.77l51.822,5.459c0.732,0.077,1.387-0.453,1.464-1.185l0,0
					c0.071-0.678-0.38-1.3-1.047-1.442l-45.417-9.696l-2.493,3.529l-3.934-0.415L410.486,103.77z"/>
			</g>
		</g>
	</g>
</g>
<g id="Background_Simple" style="display:none;">
	<g style="display:inline;">
		<path style="fill:#407BFF;" d="M212.453,80.376c30.197-18.297,69.727-4.396,85.864,26.016
			c14.318,26.985-2.507,53.496-11.266,79.614c-9.812,29.261-2.473,65.906,34.681,68.55c19.905,1.417,39.396-10.135,59.11-7.04
			c41.602,6.532,46.314,67.123,6.62,80.487c-18.275,6.153-38.166,2.506-57.348,0.53c-48.663-5.013-97.985,1.268-145.385,13.371
			c-24.445,6.242-50.595,13.984-74.245,5.197c-19.55-7.264-33.675-24.868-42.352-43.833c-13.56-29.638-14.528-67.986,7.674-91.848
			c13.245-14.236,32.83-21.268,52.203-22.933c20.158-1.732,44.617-0.112,55.855-16.935c9.4-14.072,3.423-32.847,4.819-49.715
			C190.353,101.674,199.702,88.103,212.453,80.376z"/>
		<path style="opacity:0.9;fill:#FFFFFF;enable-background:new    ;" d="M212.453,80.376c30.197-18.297,69.727-4.396,85.864,26.016
			c14.318,26.985-2.507,53.496-11.266,79.614c-9.812,29.261-2.473,65.906,34.681,68.55c19.905,1.417,39.396-10.135,59.11-7.04
			c41.602,6.532,46.314,67.123,6.62,80.487c-18.275,6.153-38.166,2.506-57.348,0.53c-48.663-5.013-97.985,1.268-145.385,13.371
			c-24.445,6.242-50.595,13.984-74.245,5.197c-19.55-7.264-33.675-24.868-42.352-43.833c-13.56-29.638-14.528-67.986,7.674-91.848
			c13.245-14.236,32.83-21.268,52.203-22.933c20.158-1.732,44.617-0.112,55.855-16.935c9.4-14.072,3.423-32.847,4.819-49.715
			C190.353,101.674,199.702,88.103,212.453,80.376z"/>
	</g>
</g>
<g id="Shadow_1_">
	<ellipse id="_x3C_Path_x3E__359_" style="fill:#F5F5F5;" cx="250" cy="416.238" rx="193.889" ry="11.323"/>
</g>
<g id="Plant_2">
	<g>
		<g>
			<path style="fill:#407BFF;" d="M413.066,398.339c0,0,1.055-51.65-6.143-107.651c-4.487-34.91-0.187-51.194-0.187-51.194
				l2.418,0.456c0,0-3.911,13.093,3.911,66.876c6.743,46.362,7.121,90.352,7.121,90.352L413.066,398.339z"/>
			<path style="fill:#407BFF;" d="M409.246,302.328c0,0,9.839-8.477,13.157-23.114h1.548c0,0-3.539,17.308-13.27,26.107
				L409.246,302.328z"/>
			<path style="fill:#407BFF;" d="M393.379,299.536c0,0,11.942,24.875,21.072,28.788v3.736c0,0-14.049-11-21.775-31.777
				L393.379,299.536z"/>
			<path style="fill:#407BFF;" d="M407.322,277.093c0,0-5.491-12.167-20.578-19.467l-0.811,1.46c0,0,11.504,3.796,21.487,25.745
				L407.322,277.093z"/>
			<path style="fill:#407BFF;" d="M407.3,262.839c0,0,4.265-8.698,18.572-17.154l0.707,0.684c0,0-15.911,11.778-19.171,23.927
				L407.3,262.839z"/>
		</g>
		<g style="opacity:0.4;enable-background:new    ;">
			<path style="fill:#FFFFFF;" d="M413.066,398.339c0,0,1.055-51.65-6.143-107.651c-4.487-34.91-0.187-51.194-0.187-51.194
				l2.418,0.456c0,0-3.911,13.093,3.911,66.876c6.743,46.362,7.121,90.352,7.121,90.352L413.066,398.339z"/>
			<path style="fill:#FFFFFF;" d="M409.246,302.328c0,0,9.839-8.477,13.157-23.114h1.548c0,0-3.539,17.308-13.27,26.107
				L409.246,302.328z"/>
			<path style="fill:#FFFFFF;" d="M393.379,299.536c0,0,11.942,24.875,21.072,28.788v3.736c0,0-14.049-11-21.775-31.777
				L393.379,299.536z"/>
			<path style="fill:#FFFFFF;" d="M407.322,277.093c0,0-5.491-12.167-20.578-19.467l-0.811,1.46c0,0,11.504,3.796,21.487,25.745
				L407.322,277.093z"/>
			<path style="fill:#FFFFFF;" d="M407.3,262.839c0,0,4.265-8.698,18.572-17.154l0.707,0.684c0,0-15.911,11.778-19.171,23.927
				L407.3,262.839z"/>
		</g>
		<g>
			<path style="fill:#407BFF;" d="M411.615,228.203c0,0,5.011,11.681-4.088,15.297C407.527,243.5,400.539,235.72,411.615,228.203z"
				/>
			<path style="opacity:0.1;fill:#FFFFFF;enable-background:new    ;" d="M411.615,228.203c0,0,5.011,11.681-4.088,15.297
				C407.527,243.5,400.539,235.72,411.615,228.203z"/>
		</g>
		<g>
			<path style="fill:#407BFF;" d="M434.692,241.926c0,0-4.134,10.57-12.187,7.168C422.505,249.094,422.936,239.765,434.692,241.926z
				"/>
			<path style="opacity:0.1;fill:#FFFFFF;enable-background:new    ;" d="M434.692,241.926c0,0-4.134,10.57-12.187,7.168
				C422.505,249.094,422.936,239.765,434.692,241.926z"/>
		</g>
		<g>
			<path style="fill:#407BFF;" d="M379.191,250.625c0,0,10.352,1.223,9.195,9.169C388.386,259.794,379.996,261.574,379.191,250.625z
				"/>
			<path style="opacity:0.1;fill:#FFFFFF;enable-background:new    ;" d="M379.191,250.625c0,0,10.352,1.223,9.195,9.169
				C388.386,259.794,379.996,261.574,379.191,250.625z"/>
		</g>
		<g>
			<path style="fill:#407BFF;" d="M393.976,294.107c0,0,6.925,5.79,2.323,11.002C396.298,305.109,389.373,302.425,393.976,294.107z"
				/>
			<path style="opacity:0.1;fill:#FFFFFF;enable-background:new    ;" d="M393.976,294.107c0,0,6.925,5.79,2.323,11.002
				C396.298,305.109,389.373,302.425,393.976,294.107z"/>
		</g>
		<g>
			<path style="fill:#407BFF;" d="M433.34,274.534c0,0-3.882,9.927-11.445,6.732C421.895,281.265,422.299,272.504,433.34,274.534z"
				/>
			<path style="opacity:0.1;fill:#FFFFFF;enable-background:new    ;" d="M433.34,274.534c0,0-3.882,9.927-11.445,6.732
				C421.895,281.265,422.299,272.504,433.34,274.534z"/>
		</g>
		<g>
			<path style="fill:#407BFF;" d="M421.484,238.913c0,0-5.265,11.569-14.064,7.274C407.42,246.187,408.469,235.781,421.484,238.913z
				"/>
			<path style="opacity:0.2;fill:#FFFFFF;enable-background:new    ;" d="M421.484,238.913c0,0-5.265,11.569-14.064,7.274
				C407.42,246.187,408.469,235.781,421.484,238.913z"/>
		</g>
		<g>
			<path style="fill:#407BFF;" d="M395.617,235.851c0,0,12.67,1.019,11.622,10.753C407.239,246.605,397.096,249.156,395.617,235.851
				z"/>
			<path style="opacity:0.2;fill:#FFFFFF;enable-background:new    ;" d="M395.617,235.851c0,0,12.67,1.019,11.622,10.753
				C407.239,246.605,397.096,249.156,395.617,235.851z"/>
		</g>
		<g>
			<path style="fill:#407BFF;" d="M385.666,248.865c0,0,8.906,5.417,4.55,12.162C390.216,261.027,381.845,259.157,385.666,248.865z"
				/>
			<path style="opacity:0.2;fill:#FFFFFF;enable-background:new    ;" d="M385.666,248.865c0,0,8.906,5.417,4.55,12.162
				C390.216,261.027,381.845,259.157,385.666,248.865z"/>
		</g>
		<g>
			<path style="fill:#407BFF;" d="M403.497,231.793c0,0,9.956,7.902,3.664,15.404C407.161,247.196,397.316,243.667,403.497,231.793z
				"/>
			<path style="opacity:0.3;fill:#FFFFFF;enable-background:new    ;" d="M403.497,231.793c0,0,9.956,7.902,3.664,15.404
				C407.161,247.196,397.316,243.667,403.497,231.793z"/>
		</g>
		<g>
			<path style="fill:#407BFF;" d="M402.123,296.06c0,0,0.31,9.022-6.643,9.073C395.48,305.133,392.856,298.184,402.123,296.06z"/>
			<path style="opacity:0.2;fill:#FFFFFF;enable-background:new    ;" d="M402.123,296.06c0,0,0.31,9.022-6.643,9.073
				C395.48,305.133,392.856,298.184,402.123,296.06z"/>
		</g>
		<g>
			<path style="fill:#407BFF;" d="M384.706,302.293c0,0,8.379-3.358,10.791,3.163C395.496,305.456,389.853,310.285,384.706,302.293z
				"/>
			<path style="opacity:0.2;fill:#FFFFFF;enable-background:new    ;" d="M384.706,302.293c0,0,8.379-3.358,10.791,3.163
				C395.496,305.456,389.853,310.285,384.706,302.293z"/>
		</g>
		<g>
			<path style="fill:#407BFF;" d="M388.434,297.22c0,0,8.83,1.877,7.201,8.637C395.634,305.857,388.258,306.725,388.434,297.22z"/>
			<path style="opacity:0.3;fill:#FFFFFF;enable-background:new    ;" d="M388.434,297.22c0,0,8.83,1.877,7.201,8.637
				C395.634,305.857,388.258,306.725,388.434,297.22z"/>
		</g>
		<g>
			<path style="fill:#407BFF;" d="M378.189,260.381c0,0,8.604-5.885,12.957,0.862C391.146,261.243,385.994,268.101,378.189,260.381z
				"/>
			<path style="opacity:0.3;fill:#FFFFFF;enable-background:new    ;" d="M378.189,260.381c0,0,8.604-5.885,12.957,0.862
				C391.146,261.243,385.994,268.101,378.189,260.381z"/>
		</g>
		<g>
			<path style="fill:#407BFF;" d="M425.894,269.242c0,0,4.353,9.73-3.23,12.88C422.664,282.122,416.703,275.688,425.894,269.242z"/>
			<path style="opacity:0.2;fill:#FFFFFF;enable-background:new    ;" d="M425.894,269.242c0,0,4.353,9.73-3.23,12.88
				C422.664,282.122,416.703,275.688,425.894,269.242z"/>
		</g>
		<g>
			<path style="fill:#407BFF;" d="M416.493,270.699c0,0,9.93,3.875,6.74,11.441C423.233,282.139,414.472,281.741,416.493,270.699z"
				/>
			<path style="opacity:0.3;fill:#FFFFFF;enable-background:new    ;" d="M416.493,270.699c0,0,9.93,3.875,6.74,11.441
				C423.233,282.139,414.472,281.741,416.493,270.699z"/>
		</g>
		<g>
			<path style="fill:#407BFF;" d="M434.692,251.063c0,0-8.661,7.335-14.129,0.514C420.563,251.577,425.376,243.574,434.692,251.063z
				"/>
			<path style="opacity:0.2;fill:#FFFFFF;enable-background:new    ;" d="M434.692,251.063c0,0-8.661,7.335-14.129,0.514
				C420.563,251.577,425.376,243.574,434.692,251.063z"/>
		</g>
		<g>
			<path style="fill:#407BFF;" d="M424.632,238.936c0,0,4.042,10.606-4.209,13.497C420.423,252.433,414.473,245.235,424.632,238.936
				z"/>
			<path style="opacity:0.3;fill:#FFFFFF;enable-background:new    ;" d="M424.632,238.936c0,0,4.042,10.606-4.209,13.497
				C420.423,252.433,414.473,245.235,424.632,238.936z"/>
		</g>
		<g>
			<path style="fill:#407BFF;" d="M382.246,401.875c0,0,15.205-2.068,23.936-5.647s27.192,0.488,32.994,2.366
				c5.802,1.879,14.242,3.281,14.242,3.281H382.246z"/>
			<path style="opacity:0.3;fill:#FFFFFF;enable-background:new    ;" d="M382.246,401.875c0,0,15.205-2.068,23.936-5.647
				s27.192,0.488,32.994,2.366c5.802,1.879,14.242,3.281,14.242,3.281H382.246z"/>
		</g>
	</g>
</g>
<g id="Plant_1">
	<g>
		<g>
			<path style="fill:#407BFF;" d="M83.474,398.452c0,0,8.046-51.03,8.506-107.49c0.286-35.196,6.754-50.747,6.754-50.747l2.334,0.78
				c0,0-5.65,12.442-5.19,66.789c0.397,46.848-5.192,90.483-5.192,90.483L83.474,398.452z"/>
			<path style="fill:#407BFF;" d="M94.581,263.788c0,0,12.608-3.116,22.182-14.674l1.381,0.7c0,0-10.978,13.841-23.636,17.292
				L94.581,263.788z"/>
			<path style="fill:#407BFF;" d="M71.117,280.313c0,0,19.982,19.028,20.891,28.92l3.554,1.152c0,0-6.134-16.755-23.518-30.509
				L71.117,280.313z"/>
			<path style="fill:#407BFF;" d="M94.218,277.546c0,0-3.792-12.799-17.749-22.076l-1.002,1.337c0,0,10.883,5.321,17.799,28.42
				L94.218,277.546z"/>
			<path style="fill:#407BFF;" d="M94.721,290.365c0,0,5.405-8.04,20.726-14.479l0.607,0.773c0,0-17.361,9.512-22.238,21.107
				L94.721,290.365z"/>
			<path style="fill:#407BFF;" d="M95.028,262.494c0,0-10.392-14.382-12.26-29.032l0.807-0.336c0,0,4.014,17.128,12.782,24.062
				L95.028,262.494z"/>
		</g>
		<g style="opacity:0.4;enable-background:new    ;">
			<path style="fill:#FFFFFF;" d="M83.474,398.452c0,0,8.046-51.03,8.506-107.49c0.286-35.196,6.754-50.747,6.754-50.747l2.334,0.78
				c0,0-5.65,12.442-5.19,66.789c0.397,46.848-5.192,90.483-5.192,90.483L83.474,398.452z"/>
			<path style="fill:#FFFFFF;" d="M94.581,263.788c0,0,12.608-3.116,22.182-14.674l1.381,0.7c0,0-10.978,13.841-23.636,17.292
				L94.581,263.788z"/>
			<path style="fill:#FFFFFF;" d="M71.117,280.313c0,0,19.982,19.028,20.891,28.92l3.554,1.152c0,0-6.134-16.755-23.518-30.509
				L71.117,280.313z"/>
			<path style="fill:#FFFFFF;" d="M94.218,277.546c0,0-3.792-12.799-17.749-22.076l-1.002,1.337c0,0,10.883,5.321,17.799,28.42
				L94.218,277.546z"/>
			<path style="fill:#FFFFFF;" d="M94.721,290.365c0,0,5.405-8.04,20.726-14.479l0.607,0.773c0,0-17.361,9.512-22.238,21.107
				L94.721,290.365z"/>
			<path style="fill:#FFFFFF;" d="M95.028,262.494c0,0-10.392-14.382-12.26-29.032l0.807-0.336c0,0,4.014,17.128,12.782,24.062
				L95.028,262.494z"/>
		</g>
		<g>
			<path style="fill:#407BFF;" d="M110.08,225.901c0,0,2.084,12.539-7.614,13.883C102.466,239.784,97.531,230.563,110.08,225.901z"
				/>
			<path style="opacity:0.1;fill:#FFFFFF;enable-background:new    ;" d="M110.08,225.901c0,0,2.084,12.539-7.614,13.883
				C102.466,239.784,97.531,230.563,110.08,225.901z"/>
		</g>
		<g>
			<path style="fill:#407BFF;" d="M124.695,273.358c0,0-5.528,9.913-13.046,5.449C111.649,278.807,113.34,269.623,124.695,273.358z"
				/>
			<path style="opacity:0.1;fill:#FFFFFF;enable-background:new    ;" d="M124.695,273.358c0,0-5.528,9.913-13.046,5.449
				C111.649,278.807,113.34,269.623,124.695,273.358z"/>
		</g>
		<g>
			<path style="fill:#407BFF;" d="M69.934,247.509c0,0,10.091,2.615,7.867,10.331C77.801,257.84,69.247,258.466,69.934,247.509z"/>
			<path style="opacity:0.1;fill:#FFFFFF;enable-background:new    ;" d="M69.934,247.509c0,0,10.091,2.615,7.867,10.331
				C77.801,257.84,69.247,258.466,69.934,247.509z"/>
		</g>
		<g>
			<path style="fill:#407BFF;" d="M65.768,279.206c0,0,3.374,8.373,9.751,5.601C75.518,284.807,75.1,277.391,65.768,279.206z"/>
			<path style="opacity:0.1;fill:#FFFFFF;enable-background:new    ;" d="M65.768,279.206c0,0,3.374,8.373,9.751,5.601
				C75.518,284.807,75.1,277.391,65.768,279.206z"/>
		</g>
		<g>
			<path style="fill:#407BFF;" d="M128.635,249.881c0,0-7.949,7.101-13.252,0.833C115.383,250.714,119.703,243.081,128.635,249.881z
				"/>
			<path style="opacity:0.1;fill:#FFFFFF;enable-background:new    ;" d="M128.635,249.881c0,0-7.949,7.101-13.252,0.833
				C115.383,250.714,119.703,243.081,128.635,249.881z"/>
		</g>
		<g>
			<path style="fill:#407BFF;" d="M112.34,238.091c0,0-5.054,11.663-13.929,7.529C98.411,245.62,99.271,235.197,112.34,238.091z"/>
			<path style="opacity:0.2;fill:#FFFFFF;enable-background:new    ;" d="M112.34,238.091c0,0-5.054,11.663-13.929,7.529
				C98.411,245.62,99.271,235.197,112.34,238.091z"/>
		</g>
		<g>
			<path style="fill:#407BFF;" d="M93.722,230.228c0,0,10.427,7.269,4.613,15.147C98.335,245.374,88.29,242.463,93.722,230.228z"/>
			<path style="opacity:0.2;fill:#FFFFFF;enable-background:new    ;" d="M93.722,230.228c0,0,10.427,7.269,4.613,15.147
				C98.335,245.374,88.29,242.463,93.722,230.228z"/>
		</g>
		<g>
			<path style="fill:#407BFF;" d="M76.588,246.643c0,0,8.09,6.574,2.859,12.667C79.447,259.31,71.407,256.322,76.588,246.643z"/>
			<path style="opacity:0.2;fill:#FFFFFF;enable-background:new    ;" d="M76.588,246.643c0,0,8.09,6.574,2.859,12.667
				C79.447,259.31,71.407,256.322,76.588,246.643z"/>
		</g>
		<g>
			<path style="fill:#407BFF;" d="M100.304,226.887c0,0,7.085,10.553-1.188,15.789C99.116,242.676,90.808,236.323,100.304,226.887z"
				/>
			<path style="opacity:0.3;fill:#FFFFFF;enable-background:new    ;" d="M100.304,226.887c0,0,7.085,10.553-1.188,15.789
				C99.116,242.676,90.808,236.323,100.304,226.887z"/>
		</g>
		<g>
			<path style="fill:#407BFF;" d="M65.115,287.559c0,0,8.487,3.076,10.679-3.523C75.794,284.036,69.992,279.398,65.115,287.559z"/>
			<path style="opacity:0.2;fill:#FFFFFF;enable-background:new    ;" d="M65.115,287.559c0,0,8.487,3.076,10.679-3.523
				C75.794,284.036,69.992,279.398,65.115,287.559z"/>
		</g>
		<g>
			<path style="fill:#407BFF;" d="M76.413,272.911c0,0-5.778,6.936-0.317,11.24C76.096,284.151,82.429,280.272,76.413,272.911z"/>
			<path style="opacity:0.2;fill:#FFFFFF;enable-background:new    ;" d="M76.413,272.911c0,0-5.778,6.936-0.317,11.24
				C76.096,284.151,82.429,280.272,76.413,272.911z"/>
		</g>
		<g>
			<path style="fill:#407BFF;" d="M70.438,274.894c0,0-0.936,8.978,5.997,9.512C76.435,284.406,79.535,277.656,70.438,274.894z"/>
			<path style="opacity:0.3;fill:#FFFFFF;enable-background:new    ;" d="M70.438,274.894c0,0-0.936,8.978,5.997,9.512
				C76.435,284.406,79.535,277.656,70.438,274.894z"/>
		</g>
		<g>
			<path style="fill:#407BFF;" d="M67.619,257.039c0,0,9.322-4.665,12.72,2.611C80.339,259.65,74.306,265.746,67.619,257.039z"/>
			<path style="opacity:0.3;fill:#FFFFFF;enable-background:new    ;" d="M67.619,257.039c0,0,9.322-4.665,12.72,2.611
				C80.339,259.65,74.306,265.746,67.619,257.039z"/>
		</g>
		<g>
			<path style="fill:#407BFF;" d="M124.384,241.796c0,0-0.514,10.647-8.702,10.03C115.682,251.826,113.272,243.393,124.384,241.796z
				"/>
			<path style="opacity:0.2;fill:#FFFFFF;enable-background:new    ;" d="M124.384,241.796c0,0-0.514,10.647-8.702,10.03
				C115.682,251.826,113.272,243.393,124.384,241.796z"/>
		</g>
		<g>
			<path style="fill:#407BFF;" d="M115.339,238.847c0,0,7.108,7.944,0.843,13.252C116.182,252.099,108.546,247.785,115.339,238.847z
				"/>
			<path style="opacity:0.3;fill:#FFFFFF;enable-background:new    ;" d="M115.339,238.847c0,0,7.108,7.944,0.843,13.252
				C116.182,252.099,108.546,247.785,115.339,238.847z"/>
		</g>
		<g>
			<path style="fill:#407BFF;" d="M123.457,282.411c0,0-9.575,6.094-14.068-1.406C109.388,281.004,115.242,273.728,123.457,282.411z
				"/>
			<path style="opacity:0.2;fill:#FFFFFF;enable-background:new    ;" d="M123.457,282.411c0,0-9.575,6.094-14.068-1.406
				C109.388,281.004,115.242,273.728,123.457,282.411z"/>
		</g>
		<g>
			<path style="fill:#407BFF;" d="M115.133,269.032c0,0,2.567,11.056-6,12.802C109.133,281.834,104.214,273.896,115.133,269.032z"/>
			<path style="opacity:0.3;fill:#FFFFFF;enable-background:new    ;" d="M115.133,269.032c0,0,2.567,11.056-6,12.802
				C109.133,281.834,104.214,273.896,115.133,269.032z"/>
		</g>
		<g>
			<path style="fill:#407BFF;" d="M82.803,224.943c0,0,7.172,7.092,1.562,12.466C84.365,237.409,76.904,233.776,82.803,224.943z"/>
			<path style="opacity:0.1;fill:#FFFFFF;enable-background:new    ;" d="M82.803,224.943c0,0,7.172,7.092,1.562,12.466
				C84.365,237.409,76.904,233.776,82.803,224.943z"/>
		</g>
		<g>
			<path style="fill:#407BFF;" d="M90.259,228.157c0,0,2.939,9.648-4.551,11.711C85.709,239.867,80.871,233.125,90.259,228.157z"/>
			<path style="opacity:0.2;fill:#FFFFFF;enable-background:new    ;" d="M90.259,228.157c0,0,2.939,9.648-4.551,11.711
				C85.709,239.867,80.871,233.125,90.259,228.157z"/>
		</g>
		<g>
			<path style="fill:#407BFF;" d="M76.824,232.101c0,0,10.077,0.433,9.534,8.183C86.358,240.283,78.391,242.607,76.824,232.101z"/>
			<path style="opacity:0.3;fill:#FFFFFF;enable-background:new    ;" d="M76.824,232.101c0,0,10.077,0.433,9.534,8.183
				C86.358,240.283,78.391,242.607,76.824,232.101z"/>
		</g>
		<g>
			<path style="fill:#407BFF;" d="M52.246,401.875c0,0,15.205-2.068,23.936-5.647s27.192,0.488,32.994,2.366
				c5.802,1.879,14.242,3.281,14.242,3.281H52.246z"/>
			<path style="opacity:0.3;fill:#FFFFFF;enable-background:new    ;" d="M52.246,401.875c0,0,15.205-2.068,23.936-5.647
				s27.192,0.488,32.994,2.366c5.802,1.879,14.242,3.281,14.242,3.281H52.246z"/>
		</g>
	</g>
</g>
<g id="Character_2">
	<g id="_x3C_Group_x3E__46_">
		<path style="fill:#E4897B;" d="M276.687,310.297c0,0-3.225,17.743-4.637,24.168c-1.413,6.425-28.314,44.499-28.314,44.499
			s-6.066,9.914-6.066,13.085s10.286,9.847,11.604,9.147c1.319-0.701,4.22-15.734,4.22-15.734l-1.319-3.934
			c0,0,27.457-35.627,29.684-40.901c2.228-5.275,7.318-26.944,7.318-26.944L276.687,310.297z"/>
		<g>
			<path style="fill:#407BFF;" d="M273.039,323.186c0,0,2.967-32.483,5.736-38.296c2.769-5.814,13.253,2.824,15.033,14.032
				c1.78,11.209-6.33,31.583-6.33,31.583L273.039,323.186z"/>
			<path style="opacity:0.4;fill:#FFFFFF;enable-background:new    ;" d="M293.38,309.81c-1,5.99-2.89,12.16-4.26,16.18
				c-0.94,2.76-1.64,4.51-1.64,4.51l-14.44-7.31c0,0,2.97-32.49,5.74-38.3c2.76-5.81,13.25,2.82,15.03,14.03
				C294.31,302.05,294.03,305.89,293.38,309.81z"/>
			<polygon style="fill:#407BFF;" points="272.05,320.51 272.05,325.004 288.072,333.059 290.445,328.082 			"/>
			<polygon style="opacity:0.6;fill:#FFFFFF;enable-background:new    ;" points="272.05,320.51 272.05,325.004 288.072,333.059 
				290.445,328.082 			"/>
		</g>
		<path style="opacity:0.2;enable-background:new    ;" d="M293.38,309.81c-1,5.99-2.89,12.16-4.26,16.18
			c-3.87-10.01-2.92-31.27-2.92-31.27L293.38,309.81z"/>
		<polygon style="fill:#E4897B;" points="355.054,404.546 342.14,405.988 330.228,407.308 331.427,397.239 331.43,397.209 
			331.44,397.21 332.297,397.202 341.645,397.105 351.224,397.016 		"/>
		<polygon style="opacity:0.2;enable-background:new    ;" points="342.14,405.988 330.228,407.308 331.427,397.239 331.44,397.21 
			332.297,397.202 341.646,397.096 341.645,397.105 		"/>
		<polygon style="fill:#407BFF;" points="336.747,393.329 335.844,410.407 340.222,409.845 340.321,392.843 		"/>
		<g>
			<path style="fill:#263238;" d="M353.763,404.826l-6.489-8.095c-0.217-0.274-0.216-0.662,0.003-0.935l4.88-6.07
				c0.441-0.538,1.235-0.617,1.773-0.176c0.072,0.059,0.137,0.126,0.195,0.199c2.057,2.653,3.425,4.689,6.061,7.978
				c1.624,2.026,6.735,7.967,8.977,10.765c2.242,2.797-0.229,5.377-1.4,4.436c-5.236-4.24-9.886-6.862-12.679-7.324
				C354.56,405.525,354.087,405.246,353.763,404.826z"/>
			<path style="opacity:0.2;enable-background:new    ;" d="M353.763,404.826l-6.489-8.095c-0.217-0.274-0.216-0.662,0.003-0.935
				l4.88-6.07c0.441-0.538,1.235-0.617,1.773-0.176c0.072,0.059,0.137,0.126,0.195,0.199c2.057,2.653,3.425,4.689,6.061,7.978
				c1.624,2.026,6.735,7.967,8.977,10.765c2.242,2.797-0.229,5.377-1.4,4.436c-5.236-4.24-9.886-6.862-12.679-7.324
				C354.56,405.525,354.087,405.246,353.763,404.826z"/>
		</g>
		<g>
			<path style="fill:#407BFF;" d="M289.692,270.011c3.338-5.653,10.907-10.331,16.498-9.649c5.59,0.682,32.945,39.184,32.945,39.184
				l17.547,36.465l-58.352,19.582c0,0,1.099-32.361-7.659-58.213C290.671,297.38,285.191,277.634,289.692,270.011z"/>
			<path style="opacity:0.2;fill:#FFFFFF;enable-background:new    ;" d="M289.692,270.011c3.338-5.653,10.907-10.331,16.498-9.649
				c5.59,0.682,32.945,39.184,32.945,39.184l17.547,36.465l-58.352,19.582c0,0,1.099-32.361-7.659-58.213
				C290.671,297.38,285.191,277.634,289.692,270.011z"/>
		</g>
		<path style="fill:#263238;" d="M340.06,330.6l-2.3,31.13c0,0-2.32,2.25-5.56,5.59c-8.34,8.55-22.78,24.27-20.05,27.79
			c3.8,4.9,16.47,3.73,16.47,3.73l4.33,13.01l0.98,2.94c0,0-0.33,0.09-0.93,0.24c-2.76,0.68-11.26,2.62-20.47,3.03
			c-12.41,0.55-26.11-1.66-28.76-13.43c-5.06-22.42,18.32-48.64,27-60.01c2.14-2.8,1.45-14.02,1.45-14.02H340.06z"/>
		<path style="opacity:0.2;enable-background:new    ;" d="M333,415.03c-2.76,0.68-11.26,2.62-20.47,3.03
			c-5.42-2.61-10.75-6.58-14.4-12.62c-10.48-17.41,21.56-49.67,21.56-49.67v-7.55l12.31,7.55l0.2,11.55
			c-8.34,8.55-22.78,24.27-20.05,27.79c3.8,4.9,16.47,3.73,16.47,3.73l4.33,13.01L333,415.03z"/>
		<path style="fill:#407BFF;" d="M356.699,406.092c0.399,0.424,0.642,0.971,0.687,1.552c-0.006,0.415-0.226,0.798-0.583,1.01
			c-0.184,0.155-0.442,0.187-0.658,0.082c-0.973-0.432-1.376-3.645-1.414-4.004c-0.016-0.079,0.021-0.159,0.091-0.199
			c0.072-0.044,0.163-0.04,0.231,0.01C355.658,404.997,356.21,405.517,356.699,406.092z M356.113,408.191
			c0.05,0.075,0.122,0.134,0.205,0.17c0.034,0.042,0.134,0.046,0.268-0.048c0.234-0.144,0.383-0.393,0.398-0.667
			c-0.26-1.019-0.898-1.901-1.784-2.469C355.309,406.231,355.619,407.254,356.113,408.191z"/>
		<path style="fill:#407BFF;" d="M355.096,404.579l0.061,0.076c0.177,0.986-0.222,3.492-1.034,3.92
			c-0.281,0.146-0.626,0.072-0.823-0.176c-0.226-0.216-0.347-0.52-0.333-0.833c0.009-1.274,1.796-2.971,1.882-3.054
			c0.057-0.047,0.135-0.062,0.205-0.039C355.078,404.503,355.093,404.54,355.096,404.579z M353.466,408.086l0.061,0.076
			c0.163,0.203,0.295,0.125,0.345,0.1c0.5-0.262,0.931-2,0.898-3.101c-0.723,0.653-1.23,1.511-1.453,2.46
			C353.308,407.789,353.361,407.954,353.466,408.086z"/>
		<polygon style="fill:#E4897B;" points="395.16,410.541 382.246,411.983 370.334,413.303 371.533,403.234 371.536,403.204 
			371.546,403.205 372.403,403.197 381.751,403.101 391.33,403.011 		"/>
		<path style="fill:#263238;" d="M393.869,410.821l-6.489-8.095c-0.217-0.274-0.216-0.662,0.002-0.935l4.88-6.07
			c0.441-0.538,1.235-0.617,1.773-0.176c0.072,0.059,0.137,0.126,0.195,0.199c2.057,2.653,3.425,4.689,6.061,7.978
			c1.624,2.026,6.735,7.967,8.977,10.765c2.242,2.797-0.229,5.377-1.4,4.436c-5.237-4.24-9.886-6.862-12.679-7.324
			C394.666,411.52,394.193,411.241,393.869,410.821z"/>
		<path style="fill:#407BFF;" d="M396.805,412.087c0.399,0.424,0.642,0.971,0.687,1.552c-0.006,0.415-0.226,0.798-0.583,1.01
			c-0.184,0.155-0.442,0.187-0.658,0.082c-0.973-0.432-1.376-3.645-1.414-4.004c-0.016-0.079,0.021-0.159,0.092-0.199
			c0.072-0.044,0.163-0.04,0.231,0.01C395.764,410.992,396.316,411.512,396.805,412.087z M396.219,414.186
			c0.051,0.075,0.122,0.134,0.205,0.17c0.034,0.042,0.134,0.046,0.268-0.048c0.234-0.144,0.383-0.393,0.398-0.667
			c-0.26-1.019-0.898-1.901-1.784-2.469C395.415,412.226,395.725,413.249,396.219,414.186z"/>
		<path style="fill:#407BFF;" d="M395.202,410.574l0.061,0.076c0.177,0.986-0.222,3.492-1.034,3.92
			c-0.281,0.146-0.626,0.072-0.823-0.176c-0.226-0.216-0.347-0.52-0.333-0.833c0.009-1.274,1.796-2.971,1.882-3.054
			c0.057-0.047,0.135-0.062,0.205-0.039C395.185,410.498,395.199,410.535,395.202,410.574z M393.572,414.081l0.061,0.076
			c0.163,0.203,0.295,0.125,0.345,0.1c0.5-0.262,0.931-2,0.898-3.101c-0.724,0.653-1.23,1.511-1.453,2.46
			C393.414,413.784,393.467,413.949,393.572,414.081z"/>
		<polygon style="opacity:0.2;enable-background:new    ;" points="382.246,411.983 370.334,413.303 371.533,403.234 
			371.546,403.205 372.403,403.197 381.753,403.091 381.751,403.101 		"/>
		<path style="fill:#263238;" d="M331.297,328.333c-2.674,12.293-29.673,70.362-12.618,85.808
			c12.526,11.344,59.254,0.644,59.254,0.644l0.727-14.16c0,0-36.776,1.215-40.641-3.053c-3.864-4.268,18.828-36.387,21.974-45.143
			c5.589-15.553-0.477-24.727-0.477-24.727L331.297,328.333z"/>
		<polygon style="fill:#407BFF;" points="376.853,399.324 375.951,416.402 380.328,415.84 380.427,398.838 		"/>
		<path style="fill:#407BFF;" d="M365.582,336.876l-53.931,1.053c0,0-13.201-42.086-32.316-53.95c0,0,2.221-3.925,7.102-8.518
			c4.541-4.286,11.393-9.153,20.9-11.967c5.266-1.56,11.35-2.478,18.314-2.313C325.651,261.181,353.604,276.421,365.582,336.876z"/>
		<path style="fill:#E4897B;" d="M306.19,264.19c-5.44,19.88-15.52,8.82-15.52,8.82s0.52-0.84,0.46-2.06
			c-0.04-1.1-0.54-2.52-2.29-3.92c-0.62-0.5-1.32-0.92-2.01-1.33l1.22-15.63c1.46,2.17,3.6,5.24,6.11,7.98
			C297.74,261.97,302.06,265.22,306.19,264.19z"/>
		<path style="opacity:0.2;enable-background:new    ;" d="M291.13,270.95c-0.04-1.1-0.54-2.52-2.29-3.92
			c-0.62-0.5-1.32-0.92-2.01-1.33l1.22-15.63c1.46,2.17,3.6,5.24,6.11,7.98C294.48,263.39,293.92,268.62,291.13,270.95z"/>
		<g>
			<path style="fill:#263238;" d="M262.789,249.219c0,0,2.6,9.443,10.145,11.051s-1.33-18.422-1.33-18.422L262.789,249.219z"/>
			<path style="fill:#E4897B;" d="M293.5,260.12c-0.04,0.44-0.11,0.9-0.2,1.36c-1,5.21-5.06,8.25-9.53,8.75
				c-2.88,0.32-5.93-0.42-8.45-2.31c-0.34-0.24-0.66-0.51-0.98-0.8c-0.62-0.58-1.25-1.23-1.87-1.94c-5.03-5.77-9.29-15.31-4.8-21.89
				c3.56-5.29,10.75-6.71,16.05-3.14c1.52,1,2.76,2.37,3.66,3.95C291.31,250.84,294.04,254.85,293.5,260.12z"/>
			<path style="fill:#263238;" d="M277.989,253.176c0.417,0.542,0.389,1.236,0.008,1.488c-0.382,0.252-0.989-0.02-1.372-0.589
				c-0.383-0.569-0.381-1.243-0.008-1.488C276.99,252.342,277.6,252.599,277.989,253.176z"/>
			<path style="fill:#263238;" d="M271.503,257.484c0.418,0.542,0.381,1.242,0.008,1.488c-0.373,0.246-0.989-0.02-1.372-0.589
				c-0.383-0.569-0.381-1.242-0.008-1.488C270.504,256.649,271.14,256.941,271.503,257.484z"/>
			<path style="fill:#DE5753;" d="M273.751,256.397c0.482,2.208,0.657,4.473,0.519,6.729c1.177,0.04,2.311-0.441,3.099-1.316
				L273.751,256.397z"/>
			<path style="fill:#263238;" d="M278.607,249.74c-0.113,0.1-0.271,0.133-0.414,0.086c-0.962-0.363-2.039-0.25-2.906,0.304
				c-0.176,0.136-0.428,0.104-0.564-0.072c-0.136-0.176-0.104-0.428,0.072-0.564c0,0,0.001-0.001,0.002-0.001
				c1.077-0.728,2.441-0.889,3.658-0.43c0.212,0.067,0.329,0.293,0.262,0.505c-0.001,0.003-0.002,0.006-0.003,0.009
				C278.687,249.635,278.651,249.691,278.607,249.74z"/>
			<path style="fill:#263238;" d="M267.23,257.098c-0.046,0.067-0.113,0.118-0.189,0.146c-0.22,0.033-0.424-0.118-0.457-0.338
				c-0.001-0.003-0.001-0.006-0.001-0.009c-0.204-1.289,0.232-2.596,1.169-3.504c0.168-0.145,0.422-0.126,0.567,0.042
				c0,0,0.001,0.001,0.001,0.001c0.139,0.171,0.121,0.42-0.043,0.568l0,0c-0.718,0.738-1.045,1.773-0.882,2.79
				C267.387,256.915,267.327,257.026,267.23,257.098z"/>
			<path style="fill:#263238;" d="M289.059,249.956c0.777-0.21,4.097,5.648,4.097,5.648s1.887-3.164,0.417-8.802
				c-2.901-11.126-5.725-12.291-8.982-12.293c-6.041-0.004-8.787,8.538-8.787,8.538c1.747-1.591,4.668-0.951,5.081,1.421
				c0.575,3.31,4.597,6.573,7.658,7.004C288.542,251.473,287.909,250.268,289.059,249.956z"/>
			<path style="fill:#E4897B;" d="M294.291,247.837c0.277,2.113-0.295,4.251-1.591,5.943c-1.732,2.228-4.273,1.081-5.201-1.429
				c-0.803-2.238-0.924-6.152,1.51-7.458C291.443,243.586,293.918,245.247,294.291,247.837z"/>
			<path style="fill:#263238;" d="M278.735,241.198c0,0-3.006,5.275-4.096,5.802c-1.09,0.527-0.888-1.943-0.888-1.943
				s-3.883,4.842-5.339,4.646c-1.456-0.197-0.939-3.098-0.939-3.098s-4.077,6.924-5.659,7.022c-1.582,0.099-2.005-5.44,0.976-10.055
				c0,0-2.031,3.692-3.349,2.901c-1.319-0.791,1.824-8.439,8.033-10.945c0,0-0.835,0-0.939-1.582
				c-0.105-1.583,7.432-4.879,13.422-2.637c0,0-2.054-2.11,0.847-2.637c2.901-0.527,5.396,3.561,5.396,3.561
				s-0.132-1.978,1.72-1.582c1.852,0.396,6.003,5.998,4.652,12.691L278.735,241.198z"/>
			<path style="opacity:0.3;enable-background:new    ;" d="M293.5,260.12c-0.04,0.44-0.11,0.9-0.2,1.36
				c-1,5.21-5.06,8.25-9.53,8.75c-2.88,0.32-5.93-0.42-8.45-2.31c-0.34-0.24-0.66-0.51-0.98-0.8c-0.62-0.58-1.25-1.23-1.87-1.94
				c3.35-0.29,6.48-2.23,8.33-3.86c2.77-2.42,6.92-7.08,4.17-11.62c-1.45-2.38,2.19,1.4,2.19,1.4S291.59,255.5,293.5,260.12z"/>
			<path style="fill:#263238;" d="M280.275,264.163L280.275,264.163c1.834-0.854,3.136-2.548,3.49-4.54
				c0.012-0.117-0.072-0.222-0.188-0.237c-0.113-0.017-0.218,0.06-0.235,0.172c-0.001,0.005-0.002,0.011-0.002,0.016
				c-0.364,1.836-1.572,3.392-3.26,4.201c-0.104,0.046-0.152,0.167-0.107,0.272c0.003,0.007,0.007,0.014,0.01,0.02
				c0.046,0.104,0.167,0.152,0.272,0.107C280.261,264.17,280.268,264.166,280.275,264.163z"/>
		</g>
		<g>
			<path style="fill:#407BFF;" d="M310.775,274.199c0,0,35.027,39.728,39.972,69.165l18.593-4.382c0,0-16.765-65.401-43.69-77.802
				l-14.876-0.019V274.199z"/>
			<path style="opacity:0.6;fill:#FFFFFF;enable-background:new    ;" d="M369.34,338.98l-18.59,4.38
				c-1.23-7.33-4.32-15.29-8.28-23.11c-3.11-6.17-6.76-12.26-10.46-17.88c-10.45-15.93-21.24-28.17-21.24-28.17v-13.04l14.88,0.02
				C352.58,273.58,369.34,338.98,369.34,338.98z"/>
		</g>
		<g>
			<path style="fill:#407BFF;" d="M306.19,260.362c0,0,4.008,3.828,4.585,13.837h7.335c0,0-1.055-11.125-4.944-13.689
				C311.709,259.55,306.19,260.362,306.19,260.362z"/>
			<path style="opacity:0.4;fill:#FFFFFF;enable-background:new    ;" d="M306.19,260.362c0,0,4.008,3.828,4.585,13.837h7.335
				c0,0-1.055-11.125-4.944-13.689C311.709,259.55,306.19,260.362,306.19,260.362z"/>
		</g>
		<g>
			<path style="fill:#407BFF;" d="M290.535,284.517c0,0,11.355,45.56,7.794,71.077c0,0-2.659-33.824-7.659-46.088
				c0,0-9.758-13.668-11.335-25.526l7.646-10.405C286.982,273.574,287.884,280.297,290.535,284.517z"/>
			<path style="opacity:0.6;fill:#FFFFFF;enable-background:new    ;" d="M290.535,284.517c0,0,11.355,45.56,7.794,71.077
				c0,0-2.659-33.824-7.659-46.088c0,0-9.758-13.668-11.335-25.526l7.646-10.405C286.982,273.574,287.884,280.297,290.535,284.517z"
				/>
		</g>
		<g>
			<path style="fill:#407BFF;" d="M289.692,270.011c0,0-2.308,7.78,0.843,14.506l-2.425,2.901c0,0-1.912-3.495-1.912-9.363
				C286.198,271.989,289.692,270.011,289.692,270.011z"/>
			<path style="opacity:0.4;fill:#FFFFFF;enable-background:new    ;" d="M289.692,270.011c0,0-2.308,7.78,0.843,14.506
				l-2.425,2.901c0,0-1.912-3.495-1.912-9.363C286.198,271.989,289.692,270.011,289.692,270.011z"/>
		</g>
		<g>
			<path style="fill:#263238;" d="M279.19,374.75c-1.14,1.77-1.43,2.6-1.43,2.6l3.49,4.18c-12.34,8.33-23.67,10.26-23.67,10.26
				c1.39-8.11,14.47-20.04,14.47-20.04l2.54,2.62c0,0,0.48-0.83,1.36-2.19c1.813-2.772,5.336-7.75,9.998-12.353
				c1.005-0.992,2.673-0.815,3.461,0.356l0,0c0.601,0.893,0.485,2.091-0.273,2.854C283.579,368.641,280.668,372.473,279.19,374.75z"
				/>
			<path style="opacity:0.4;fill:#FFFFFF;enable-background:new    ;" d="M281.25,381.53c-12.34,8.33-23.67,10.26-23.67,10.26
				c1.39-8.11,14.47-20.04,14.47-20.04l2.54,2.62c0,0,0.48-0.83,1.36-2.19c0.35,0.88,1.19,2.13,3.24,2.57
				c-1.14,1.77-1.43,2.6-1.43,2.6L281.25,381.53z"/>
			<path style="opacity:0.2;fill:#FFFFFF;enable-background:new    ;" d="M281.25,381.53c-12.34,8.33-23.67,10.26-23.67,10.26
				c1.39-8.11,14.47-20.04,14.47-20.04l2.54,2.62c0,0-2.5,2.98-3.03,5.55c0,0,3.83-0.4,6.2-2.57L281.25,381.53z"/>
		</g>
		<g>
			<path style="fill:#407BFF;" d="M210.922,416.238h62.117c0,0-7.729-2.254-9.615-4.449c-1.886-2.195-8.611-1.359-10.589-1.382
				c-1.978-0.022-5.934,1.949-8.308,0.765c-2.374-1.183-10.483-9.931-15.824-12.678c-5.341-2.747-8.11,6.468-10.879,8.289
				C215.055,408.604,210.922,416.238,210.922,416.238z"/>
			<path style="fill:#407BFF;" d="M196.908,419.249c0,0,15.349-7.882,20.012-8.077c4.663-0.194,10.993,3.28,12.575,3.62
				c1.582,0.34,13.055-0.747,15.429-1.49c2.374-0.742,10.281,1.337,12.657,0.99c2.376-0.348,9.426-5.129,11.835-5.903
				c2.409-0.774,20.805,9.191,22.981,9.747c2.176,0.556,7.517,1.219,7.517,1.219s-18.011,1.117-20.577,1.117
				c-2.566,0-5.52,2.769-15.911,2.176c-10.391-0.594-14.941,0.562-19.886,0.083c-4.945-0.479-6.132-1.864-11.67-1.864
				c-5.538,0-12.857,1.78-16.615,0.198C211.495,419.483,196.908,419.249,196.908,419.249z"/>
			<path style="opacity:0.2;fill:#FFFFFF;enable-background:new    ;" d="M196.908,419.249c0,0,15.349-7.882,20.012-8.077
				c4.663-0.194,10.993,3.28,12.575,3.62c1.582,0.34,13.055-0.747,15.429-1.49c2.374-0.742,10.281,1.337,12.657,0.99
				c2.376-0.348,9.426-5.129,11.835-5.903c2.409-0.774,20.805,9.191,22.981,9.747c2.176,0.556,7.517,1.219,7.517,1.219
				s-18.011,1.117-20.577,1.117c-2.566,0-5.52,2.769-15.911,2.176c-10.391-0.594-14.941,0.562-19.886,0.083
				c-4.945-0.479-6.132-1.864-11.67-1.864c-5.538,0-12.857,1.78-16.615,0.198C211.495,419.483,196.908,419.249,196.908,419.249z"/>
		</g>
		<g>
			<path style="fill:#407BFF;" d="M242.028,389.144c0.295,0.111,0.501,0.447,0.818,0.51c0.128,0.025,0.262,0.002,0.39,0.025
				c0.228,0.041,0.411,0.229,0.492,0.445c0.082,0.216,0.075,0.457,0.032,0.685c0.404-0.089,0.714,0.014,0.934-0.352
				c0.19-0.317,0.261-0.652,0.703-0.704c0.152-0.018,0.306,0.01,0.457,0.037c0.471,0.086,0.99,0.2,1.27,0.589
				c0.137,0.19,0.205,0.434,0.383,0.586c0.36,0.309,0.911,0.078,1.382,0.135c0.409,0.049,0.787,0.38,1.002,0.721
				c0.161,0.256,0.436,0.78,0.438,1.079c0.002,0.276,0.004,0.553,0.007,0.829c0.003,0.35,0.003,0.711-0.134,1.032
				c-0.12,0.281-0.312,0.87,0.202,0.922c0.161,0.017,0.357-0.057,0.467,0.063c0.076,0.083,0.06,0.213,0.1,0.318
				c0.055,0.142,0.205,0.219,0.313,0.326c0.087,0.086,0.149,0.194,0.199,0.306c0.321,0.727,0.29,1.546,0.101,2.292
				c-0.111,0.44-0.463,1.057-0.463,1.507c0,0.743,0,1.486,0,2.228c0,1.109-0.162,2.241-0.007,3.328
				c0.037,0.261,0.074,0.529,0.013,0.785c-0.053,0.221-0.156,0.316-0.323,0.431c-0.132,0.091-0.311-0.009-0.337,0.259
				c-0.014,0.146,0.045,0.288,0.068,0.432c0.049,0.306-0.089,0.771-0.321,0.359c-0.115-0.203-0.084-0.574-0.088-0.803
				c-0.009-0.579,0.027-1.158,0-1.738c-0.025-0.534-0.102-1.064-0.178-1.593c-0.025-0.173-0.056-0.358-0.177-0.483
				c-0.452-0.468-1.062,0.589-1.047,0.963c0.017,0.433,0.049,0.776-0.016,1.231c-0.221,1.555-0.436,3.101-0.125,4.654
				c0.041,0.206,0.071,0.462-0.098,0.586c-0.079,0.058-0.182,0.069-0.28,0.078c-0.188,0.017-0.406,0.024-0.535-0.115
				c-0.098-0.105-0.111-0.262-0.115-0.405c0-0.702,0.087-1.277-0.037-1.977c-0.014-0.082-0.03-0.166-0.079-0.233
				c-0.049-0.066-0.124-0.105-0.183-0.162c-0.184-0.176-0.173-0.467-0.159-0.721c0.05-0.967-0.061-1.934-0.173-2.896
				c-0.025-0.211-0.051-0.428-0.148-0.617c-0.097-0.189-0.281-0.349-0.494-0.353c-0.493-0.011-0.361,0.555-0.339,0.858
				c0.012,0.162,0.028,0.328-0.016,0.485c-0.044,0.156-0.165,0.304-0.326,0.324c-0.053,0.007-0.11-0.001-0.154-0.031
				c-0.092-0.062-0.105-0.19-0.109-0.301c-0.004-0.121-0.008-0.241-0.012-0.362c-0.002-0.049-0.004-0.1-0.028-0.143
				c-0.078-0.14-0.293-0.083-0.441-0.143c-0.21-0.086-0.289-0.921-0.346-1.158c-0.116-0.482-0.198-0.971-0.278-1.46
				c-0.133-0.816-0.182-1.722-0.495-2.496c-0.242-0.6-0.377-1.236-0.679-1.812c-0.077-0.147-0.162-0.293-0.193-0.455
				c-0.038-0.199,0.008-0.409-0.043-0.604c-0.058-0.222-0.235-0.404-0.263-0.631c-0.034-0.275,0.156-0.519,0.276-0.769
				c0.291-0.605,0.133-1.392-0.338-1.863c-0.228-0.228-0.522-0.31-0.752-0.542c-0.251-0.254-0.437-0.568-0.743-0.766
				c-0.403-0.262-1.029-0.266-1.208-0.712c0.072,0.136,0.28-0.01,0.321-0.158c0.041-0.149,0.095-0.352,0.249-0.342
				c0.045,0.003,0.086,0.027,0.127,0.047c0.184,0.091,0.404,0.11,0.601,0.05c-0.189-0.166-0.257-0.443-0.212-0.691
				c0.046-0.248,0.191-0.468,0.368-0.648c0.177-0.18,0.415-0.333,0.664-0.297C241.952,389.12,241.991,389.13,242.028,389.144z"/>
			<path style="opacity:0.2;fill:#FFFFFF;enable-background:new    ;" d="M242.028,389.144c0.295,0.111,0.501,0.447,0.818,0.51
				c0.128,0.025,0.262,0.002,0.39,0.025c0.228,0.041,0.411,0.229,0.492,0.445c0.082,0.216,0.075,0.457,0.032,0.685
				c0.404-0.089,0.714,0.014,0.934-0.352c0.19-0.317,0.261-0.652,0.703-0.704c0.152-0.018,0.306,0.01,0.457,0.037
				c0.471,0.086,0.99,0.2,1.27,0.589c0.137,0.19,0.205,0.434,0.383,0.586c0.36,0.309,0.911,0.078,1.382,0.135
				c0.409,0.049,0.787,0.38,1.002,0.721c0.161,0.256,0.436,0.78,0.438,1.079c0.002,0.276,0.004,0.553,0.007,0.829
				c0.003,0.35,0.003,0.711-0.134,1.032c-0.12,0.281-0.312,0.87,0.202,0.922c0.161,0.017,0.357-0.057,0.467,0.063
				c0.076,0.083,0.06,0.213,0.1,0.318c0.055,0.142,0.205,0.219,0.313,0.326c0.087,0.086,0.149,0.194,0.199,0.306
				c0.321,0.727,0.29,1.546,0.101,2.292c-0.111,0.44-0.463,1.057-0.463,1.507c0,0.743,0,1.486,0,2.228
				c0,1.109-0.162,2.241-0.007,3.328c0.037,0.261,0.074,0.529,0.013,0.785c-0.053,0.221-0.156,0.316-0.323,0.431
				c-0.132,0.091-0.311-0.009-0.337,0.259c-0.014,0.146,0.045,0.288,0.068,0.432c0.049,0.306-0.089,0.771-0.321,0.359
				c-0.115-0.203-0.084-0.574-0.088-0.803c-0.009-0.579,0.027-1.158,0-1.738c-0.025-0.534-0.102-1.064-0.178-1.593
				c-0.025-0.173-0.056-0.358-0.177-0.483c-0.452-0.468-1.062,0.589-1.047,0.963c0.017,0.433,0.049,0.776-0.016,1.231
				c-0.221,1.555-0.436,3.101-0.125,4.654c0.041,0.206,0.071,0.462-0.098,0.586c-0.079,0.058-0.182,0.069-0.28,0.078
				c-0.188,0.017-0.406,0.024-0.535-0.115c-0.098-0.105-0.111-0.262-0.115-0.405c0-0.702,0.087-1.277-0.037-1.977
				c-0.014-0.082-0.03-0.166-0.079-0.233c-0.049-0.066-0.124-0.105-0.183-0.162c-0.184-0.176-0.173-0.467-0.159-0.721
				c0.05-0.967-0.061-1.934-0.173-2.896c-0.025-0.211-0.051-0.428-0.148-0.617c-0.097-0.189-0.281-0.349-0.494-0.353
				c-0.493-0.011-0.361,0.555-0.339,0.858c0.012,0.162,0.028,0.328-0.016,0.485c-0.044,0.156-0.165,0.304-0.326,0.324
				c-0.053,0.007-0.11-0.001-0.154-0.031c-0.092-0.062-0.105-0.19-0.109-0.301c-0.004-0.121-0.008-0.241-0.012-0.362
				c-0.002-0.049-0.004-0.1-0.028-0.143c-0.078-0.14-0.293-0.083-0.441-0.143c-0.21-0.086-0.289-0.921-0.346-1.158
				c-0.116-0.482-0.198-0.971-0.278-1.46c-0.133-0.816-0.182-1.722-0.495-2.496c-0.242-0.6-0.377-1.236-0.679-1.812
				c-0.077-0.147-0.162-0.293-0.193-0.455c-0.038-0.199,0.008-0.409-0.043-0.604c-0.058-0.222-0.235-0.404-0.263-0.631
				c-0.034-0.275,0.156-0.519,0.276-0.769c0.291-0.605,0.133-1.392-0.338-1.863c-0.228-0.228-0.522-0.31-0.752-0.542
				c-0.251-0.254-0.437-0.568-0.743-0.766c-0.403-0.262-1.029-0.266-1.208-0.712c0.072,0.136,0.28-0.01,0.321-0.158
				c0.041-0.149,0.095-0.352,0.249-0.342c0.045,0.003,0.086,0.027,0.127,0.047c0.184,0.091,0.404,0.11,0.601,0.05
				c-0.189-0.166-0.257-0.443-0.212-0.691c0.046-0.248,0.191-0.468,0.368-0.648c0.177-0.18,0.415-0.333,0.664-0.297
				C241.952,389.12,241.991,389.13,242.028,389.144z"/>
		</g>
		<path style="opacity:0.2;enable-background:new    ;" d="M342.47,320.25c-3.11-6.17-6.76-12.26-10.46-17.88l8.05-20.95
			C340.06,281.42,344.8,301.33,342.47,320.25z"/>
		<path style="fill:#E4897B;" d="M338.083,298.077c0,0,0.463,21.195-2.238,26.861c-2.701,5.666-39.334,35.793-39.334,35.793
			s-0.93,6.769-2.446,7.897s-10.489,3.119-11.419,3.119c-0.93,0-1.693-12.659-0.784-13.714c0.909-1.055,8.821-3.692,10.14-3.692
			c0,0,32.703-32.827,32.703-35.534c0-2.707,0.791-24.083,0.791-24.083L338.083,298.077z"/>
		<g>
			<path style="fill:#407BFF;" d="M323.72,302.4c0,0-2.476-32.524-0.712-38.717c1.764-6.193,13.538,0.581,17.157,11.337
				c3.619,10.757-0.99,32.195-0.99,32.195L323.72,302.4z"/>
			<path style="opacity:0.4;fill:#FFFFFF;enable-background:new    ;" d="M323.72,302.4c0,0-2.476-32.524-0.712-38.717
				c1.764-6.193,13.538,0.581,17.157,11.337c3.619,10.757-0.99,32.195-0.99,32.195L323.72,302.4z"/>
			<polygon style="fill:#407BFF;" points="322.299,299.926 323.047,304.357 340.185,309.636 341.698,304.333 			"/>
			<polygon style="opacity:0.6;fill:#FFFFFF;enable-background:new    ;" points="322.299,299.926 323.047,304.357 340.185,309.636 
				341.698,304.333 			"/>
		</g>
	</g>
</g>
<g id="Character_1">
	<g>
		<path style="fill:#B97964;" d="M211.41,362.637c-2.369,0.199-6.499-2.07-7.285-2.607c-0.786-0.537-1.771-4.08-1.771-4.08
			s-21.008-15.037-24.013-19.346c-0.12-0.169-0.229-0.338-0.348-0.527c-4.229-6.628-9.006-24.421-9.932-27.954
			c-0.099-0.398-0.159-0.617-0.159-0.617s0.348-12.559,5.881-12.171c5.235,0.358,7.782,27.347,13.216,35.617
			c1.742,2.647,20.739,21.326,21.883,22.57c1.145,1.244,9.215,2.229,10.001,3.413C219.68,358.109,213.769,362.448,211.41,362.637z"
			/>
		<path style="opacity:0.2;enable-background:new    ;" d="M177.993,336.076c-4.229-6.628-9.006-24.421-9.932-27.954l6.558-11.295
			C174.619,296.827,180.57,320.442,177.993,336.076z"/>
		<path style="fill:#407BFF;" d="M137.997,289.005c-0.816-0.04-1.612-0.109-2.408-0.209c-8.24-1.045,0.856-18.639,19.833-31.158
			c15.893-10.479,30.124-11.613,35.746-6.618c1.095,0.955,1.861,2.159,2.259,3.563C195.786,262.971,163.782,290.368,137.997,289.005
			z"/>
		<path style="opacity:0.2;enable-background:new    ;" d="M158.284,264.48c5.043-3.597,13.424-9.692,23.284-8.472
			s-4.05,15.943-18.6,23.394c-14.55,7.451-18.688,6.598-19.373,4.499C142.426,280.32,150.956,269.707,158.284,264.48z"/>
		<path style="fill:#263238;" d="M149.795,275.04c0,0-2.165,4.124,0,10.331c0,0-7.48,1.68-8.76,8.964
			c-1.279,7.283,9.842,7.086,13.779,5.807c3.937-1.279-1.021-13.878-1.021-13.878s6.738-4.331,8.063-8.366
			C163.181,273.863,149.795,275.04,149.795,275.04z"/>
		<g>
			<path style="fill:#407BFF;" d="M162.787,361.262c-4.723,9.939-40.353,12.537-43.109,5.481
				c-2.756-7.056,16.141-32.449,16.929-44.063c0.787-11.614,33.529-20.275,33.529-20.275S175.976,333.507,162.787,361.262z"/>
			<path style="opacity:0.4;fill:#FFFFFF;enable-background:new    ;" d="M162.787,361.262c-4.723,9.939-40.353,12.537-43.109,5.481
				c-2.756-7.056,16.141-32.449,16.929-44.063c0.787-11.614,33.529-20.275,33.529-20.275S175.976,333.507,162.787,361.262z"/>
		</g>
		<g>
			<polygon style="fill:#B97964;" points="122.669,402.056 138.298,401.865 137.549,410.296 117.835,407.531 			"/>
			<polygon style="opacity:0.2;enable-background:new    ;" points="122.669,402.056 138.298,401.865 137.549,410.296 
				117.835,407.531 			"/>
		</g>
		<g>
			<path style="fill:#263238;" d="M126.498,401.479c0.535,0.489-5.745,6.83-5.745,6.83s-7.802,0.469-12.244,3.659
				c-4.442,3.19-4.895-1.151-0.986-5.636c3.909-4.485,6.892-7.908,9.669-11.094C119.97,392.051,120.949,396.408,126.498,401.479z"/>
			<path style="opacity:0.2;enable-background:new    ;" d="M126.498,401.479c0.535,0.489-5.745,6.83-5.745,6.83
				s-7.802,0.469-12.244,3.659c-4.442,3.19-4.895-1.151-0.986-5.636c3.909-4.485,6.892-7.908,9.669-11.094
				C119.97,392.051,120.949,396.408,126.498,401.479z"/>
		</g>
		<g>
			<path style="fill:#407BFF;" d="M153.745,348.167l1.398,8.972c0,0,38.942,30.314,41.501,47.243
				c2.559,16.929-13.189,16.575-63.187,12.618l-1.575-16.144l18.757-2.587c0,0-31.012-12.204-26.434-33.453
				C128.423,345.244,153.745,348.167,153.745,348.167z"/>
			<path style="opacity:0.2;enable-background:new    ;" d="M153.745,348.167l1.398,8.972c0,0,38.942,30.314,41.501,47.243
				c2.559,16.929-13.189,16.575-63.187,12.618l-1.575-16.144l18.757-2.587c0,0-31.012-12.204-26.434-33.453
				C128.423,345.244,153.745,348.167,153.745,348.167z"/>
		</g>
		<polygon style="fill:#B97964;" points="109.696,407.765 125.325,407.573 124.576,416.004 104.862,413.24 		"/>
		<path style="fill:#263238;" d="M113.525,407.187c0.535,0.489-5.745,6.83-5.745,6.83s-7.802,0.469-12.244,3.659
			c-4.442,3.19-4.895-1.151-0.986-5.636c3.909-4.485,6.892-7.908,9.669-11.094C106.997,397.759,107.976,402.117,113.525,407.187z"/>
		<path style="fill:#263238;" d="M153.745,348.167l-30.445-5.02c0.934,0.154,6.846-12.942,8.194-17.606
			c1.861-6.439,3.314-18.764,2.047-26.733c-0.003-0.019-0.006-0.039-0.009-0.058c-0.518-3.396,1.932-6.555,5.357-6.82
			c2.428-0.188,4.863-0.283,7.307-0.287c4.831-0.058,9.666,0.228,14.465,0.851c6.164,0.97,13.127,2.839,13.127,2.839
			s0.961,0.411,0.52,7.036C173.872,308.6,171.529,328.897,153.745,348.167z"/>
		<path style="fill:#B97964;" d="M165.134,286.367c0,0-3.921,2.538-4.597,4.21c-0.04,0.09-0.07,0.199-0.1,0.328
			c-0.249,0.965-0.398,2.886-0.398,2.886c1.144,3.354-3.145,5.274-3.145,5.274c-7.643-2.299-9.434-6.021-9.434-6.021
			c6.29-2.468,7.494-14.519,7.494-14.519l3.045,2.349L165.134,286.367z"/>
		<path style="opacity:0.2;enable-background:new    ;" d="M165.134,286.367c0,0-3.921,2.538-4.597,4.21
			c-0.04,0.09-0.07,0.199-0.1,0.328c-5.712-4.369-4.986-10.897-4.986-10.897l2.548,0.866L165.134,286.367z"/>
		<g>
			
				<path style="fill:none;stroke:#263238;stroke-width:0.4885;stroke-linecap:round;stroke-linejoin:round;stroke-miterlimit:10;" d="
				M169.485,258.104c0,0,7.929-2.22,11.768,4.177c3.838,6.397,0.769,11.246-1.897,13.558"/>
			<path style="fill:#263238;" d="M172.646,257.754c0,0,6.46,0.197,8.245,5.656c1.786,5.459,0.459,11.585-9.13,18.192
				c-4.69,3.231-16.339-3.078-16.339-3.078l-0.929,2.817c-1.714-1.229-3.142-2.646-4.215-3.907
				c-3.768-4.425-2.795-19.069,7.667-21.932C168.87,252.513,172.646,257.754,172.646,257.754z"/>
			<path style="fill:#B97964;" d="M166.484,259.577c8.212,1.119,10.256,5.875,9.705,14.419
				c-0.689,10.678-4.057,17.871-14.017,14.214C148.646,283.242,152.847,257.719,166.484,259.577z"/>
			<path style="fill:#A24E3F;" d="M170.943,272.813c0,0,0.846,2.3,1.925,3.731c0,0-0.855,1.021-2.291,0.634L170.943,272.813z"/>
			<g>
				<path style="fill:#263238;" d="M166.008,271.457c-0.076,0.677-0.504,1.184-0.955,1.133c-0.451-0.051-0.755-0.64-0.679-1.317
					c0.076-0.677,0.504-1.184,0.955-1.133C165.781,270.191,166.085,270.78,166.008,271.457z"/>
				<path style="fill:#263238;" d="M165.137,270.152l1.537-0.412C166.674,269.74,165.802,270.896,165.137,270.152z"/>
			</g>
			<g>
				<path style="fill:#263238;" d="M174.436,272.263c-0.076,0.677-0.503,1.184-0.955,1.133c-0.451-0.051-0.755-0.64-0.679-1.317
					c0.076-0.677,0.503-1.184,0.955-1.134C174.208,270.996,174.512,271.586,174.436,272.263z"/>
				<path style="fill:#263238;" d="M173.565,270.957l1.537-0.412C175.102,270.545,174.23,271.701,173.565,270.957z"/>
			</g>
			
				<path style="fill:none;stroke:#263238;stroke-width:0.708;stroke-linecap:round;stroke-linejoin:round;stroke-miterlimit:10;" d="
				M166.698,265.776c0,0-2.266-0.614-3.73,0.756"/>
			
				<path style="fill:none;stroke:#263238;stroke-width:0.708;stroke-linecap:round;stroke-linejoin:round;stroke-miterlimit:10;" d="
				M172.714,266.242c0,0,1.523-0.339,3.181,1.121"/>
			<path style="fill:#263238;" d="M155.624,272.194c0,0,4.758-6.224,4.886-11.511c0,0,17.178-4.431,15.731,12.195
				c0,0,3.588-14.449-10.484-16.699c-14.049-2.246-17.315,17.132-10.863,24.278C154.895,280.457,152.675,276.09,155.624,272.194z"/>
			<path style="fill:#B97964;" d="M156.73,274.11c0.125-1.33-0.934-3.753-3.43-3.82c-2.582-0.069-4.507,4.99,1.651,7.108
				C155.835,277.702,156.468,276.884,156.73,274.11z"/>
			<g>
				<path style="fill:#263238;" d="M170.136,279.632c-0.434,1.048-0.827,2.996-0.827,2.996c-0.183-0.004-0.366-0.008-0.548-0.021
					c-2.479-0.114-3.592-0.986-4.073-1.918c-0.261-0.511-0.328-1.046-0.325-1.48c-0.002-0.501,0.111-0.86,0.111-0.86
					c1.278,0.846,3.581,1.13,4.817,1.23C169.809,279.627,170.136,279.632,170.136,279.632z"/>
				<path style="fill:#FFFFFF;" d="M169.292,279.58l-0.267,0.877c-2.335-0.113-3.963-0.506-4.662-1.248
					c-0.002-0.501,0.111-0.86,0.111-0.86C165.752,279.195,168.055,279.479,169.292,279.58z"/>
				<path style="fill:#DE5753;" d="M168.761,282.607c-2.479-0.114-3.592-0.986-4.073-1.918c0.843,0.071,1.852,0.251,2.728,0.672
					C168.087,281.68,168.496,282.144,168.761,282.607z"/>
			</g>
		</g>
		<path style="fill:#407BFF;" d="M123.299,343.147c-14.054,19.887-11.102,40.567,27.108,57.407l-30.139,4.887l0.787,10.93
			c0,0,29.791,2.986,54.046,2.986c10.519,0,15.663-17.923,1.871-33.383c-13.792-15.46-31.401-25.946-31.401-25.946
			c4.885-3.49,8.173-11.86,8.173-11.86L123.299,343.147z"/>
		<g>
			<path style="fill:#407BFF;" d="M146.196,291.115c0,0,4.19,23.34-4.471,48.448c-8.661,25.108-28.167,49.202-28.167,49.202
				s-5.69-28.041,8.876-46.145c0,0,10.604-19.88,9.844-42.315C131.884,288.69,146.196,291.115,146.196,291.115z"/>
			<path style="opacity:0.6;fill:#FFFFFF;enable-background:new    ;" d="M141.729,339.559
				c-8.668,25.108-28.173,49.211-28.173,49.211s-5.692-28.044,8.877-46.146c0,0,6.678-12.519,9.056-28.909
				c0.617-4.259,0.945-8.787,0.786-13.415c-0.04-1.333,0.11-2.488,0.408-3.473c2.309-7.613,13.514-5.712,13.514-5.712
				S150.387,314.451,141.729,339.559z"/>
		</g>
		<g>
			<path style="fill:#407BFF;" d="M163.574,292.821c0,0,6.83,13.91,5.187,36.156s-5.974,32.285-5.974,32.285
				s18.11-24.398,11.637-65.748L163.574,292.821z"/>
			<path style="opacity:0.6;fill:#FFFFFF;enable-background:new    ;" d="M163.574,292.821c0,0,6.83,13.91,5.187,36.156
				s-5.974,32.285-5.974,32.285s18.11-24.398,11.637-65.748L163.574,292.821z"/>
		</g>
		<g>
			<path style="fill:#407BFF;" d="M167.905,254.581c0,0-11.544-6.505-17.058-5.456c-5.514,1.05-3.387,4.724-3.387,4.724
				s-3.045-0.136-3.177,3.082c-0.131,3.217,2.925,11.673,2.925,11.673L167.905,254.581z"/>
			<path style="opacity:0.2;fill:#FFFFFF;enable-background:new    ;" d="M167.905,254.581c0,0-11.544-6.505-17.058-5.456
				c-5.514,1.05-3.387,4.724-3.387,4.724s-3.045-0.136-3.177,3.082c-0.131,3.217,2.925,11.673,2.925,11.673L167.905,254.581z"/>
		</g>
		<path style="fill:#407BFF;" d="M191.169,251.02l-1.742,3.563c0,0-15.485-0.866-29.268,8.558
			c-13.773,9.424-19.943,22.311-19.943,22.311l-2.219,3.553c-0.816-0.04-1.612-0.109-2.408-0.209
			c-8.24-1.045,0.856-18.639,19.833-31.158C171.315,247.158,185.546,246.024,191.169,251.02z"/>
		<g>
			<g>
				<path style="fill:#407BFF;" d="M201.255,323.073c0,0,1.049-2.066-0.575-4.576c-1.624-2.51-6.004-3.543-6.004-3.543
					s-0.394,5.61,1.329,7.677C197.727,324.698,201.255,323.073,201.255,323.073z"/>
				<path style="fill:#407BFF;" d="M208.764,323.914c0,0-0.899-5.565,8.156-5.22C216.919,318.694,215.667,326.231,208.764,323.914z"
					/>
				<path style="opacity:0.1;fill:#FFFFFF;enable-background:new    ;" d="M201.255,323.073c0,0,1.049-2.066-0.575-4.576
					c-1.624-2.51-6.004-3.543-6.004-3.543s-0.394,5.61,1.329,7.677C197.727,324.698,201.255,323.073,201.255,323.073z"/>
				<path style="opacity:0.1;fill:#FFFFFF;enable-background:new    ;" d="M208.764,323.914c0,0-0.899-5.565,8.156-5.22
					C216.919,318.694,215.667,326.231,208.764,323.914z"/>
			</g>
			<g>
				<path style="fill:#407BFF;" d="M210.809,321.969c-0.174-0.212-0.487-0.243-0.699-0.069c-0.723,0.593-1.432,1.219-2.023,1.956
					c-0.614,0.716-1.134,1.512-1.572,2.349c-0.421,0.792-0.754,1.63-1.01,2.492c-0.261-0.578-0.542-1.148-0.841-1.707
					c-1.211-2.237-2.744-4.335-4.744-5.968c-0.202-0.164-0.501-0.146-0.68,0.048c-0.186,0.202-0.174,0.517,0.028,0.703l0.008,0.008
					c1.755,1.617,3.087,3.681,4.098,5.856c1.008,2.184,1.713,4.513,2.083,6.867c0.369,2.36,0.379,4.761,0.074,7.102
					c-0.169,1.169-0.411,2.323-0.746,3.444c-0.326,1.097-0.773,2.263-1.258,3.144l-0.039,0.071
					c-0.013,0.024-0.026,0.049-0.038,0.074c-0.328,0.696-0.029,1.526,0.667,1.854c0.696,0.328,1.526,0.029,1.854-0.667
					c0.628-1.334,0.975-2.528,1.288-3.821c0.298-1.274,0.488-2.563,0.595-3.856c0.181-2.588,0.008-5.184-0.541-7.694
					c-0.205-0.932-0.472-1.844-0.77-2.745c0.02-0.707,0.118-1.487,0.29-2.216c0.191-0.833,0.468-1.648,0.83-2.425
					c0.357-0.778,0.789-1.526,1.314-2.207c0.502-0.701,1.122-1.306,1.76-1.891l0.025-0.023
					C210.955,322.473,210.977,322.174,210.809,321.969z"/>
				<path style="opacity:0.3;fill:#FFFFFF;enable-background:new    ;" d="M210.809,321.969c-0.174-0.212-0.487-0.243-0.699-0.069
					c-0.723,0.593-1.432,1.219-2.023,1.956c-0.614,0.716-1.134,1.512-1.572,2.349c-0.421,0.792-0.754,1.63-1.01,2.492
					c-0.261-0.578-0.542-1.148-0.841-1.707c-1.211-2.237-2.744-4.335-4.744-5.968c-0.202-0.164-0.501-0.146-0.68,0.048
					c-0.186,0.202-0.174,0.517,0.028,0.703l0.008,0.008c1.755,1.617,3.087,3.681,4.098,5.856c1.008,2.184,1.713,4.513,2.083,6.867
					c0.369,2.36,0.379,4.761,0.074,7.102c-0.169,1.169-0.411,2.323-0.746,3.444c-0.326,1.097-0.773,2.263-1.258,3.144l-0.039,0.071
					c-0.013,0.024-0.026,0.049-0.038,0.074c-0.328,0.696-0.029,1.526,0.667,1.854c0.696,0.328,1.526,0.029,1.854-0.667
					c0.628-1.334,0.975-2.528,1.288-3.821c0.298-1.274,0.488-2.563,0.595-3.856c0.181-2.588,0.008-5.184-0.541-7.694
					c-0.205-0.932-0.472-1.844-0.77-2.745c0.02-0.707,0.118-1.487,0.29-2.216c0.191-0.833,0.468-1.648,0.83-2.425
					c0.357-0.778,0.789-1.526,1.314-2.207c0.502-0.701,1.122-1.306,1.76-1.891l0.025-0.023
					C210.955,322.473,210.977,322.174,210.809,321.969z"/>
			</g>
			<path style="fill:#407BFF;" d="M190.608,356.997c0.67-1.034,1.434-2.017,2.228-2.958c1.621-1.922,3.348-3.303,5.476-4.619
				c0.602-0.372,1.204-0.744,1.806-1.117c0.21-0.13,0.421-0.26,0.632-0.39c0.941-0.582,1.886-1.167,2.715-1.9
				c0.795-0.703,1.605-1.595,2.667-1.592c1.84,0.004,2.717,1.468,3.823,2.745c1.073,1.239,2.182,2.722,3.619,3.562
				c1.968,1.151,5.411,5.422,5.315,6.203c-0.096,0.781-8.858,7.045-16.207,5.72C195.332,361.327,190.608,356.997,190.608,356.997z"
				/>
		</g>
		<path style="opacity:0.2;enable-background:new    ;" d="M139.958,316.969c-3.592-0.109-6.419-1.592-8.469-3.254
			c0.617-4.259,0.945-8.787,0.786-13.415c-0.04-1.333,0.11-2.488,0.408-3.473C136.286,301.773,147.004,317.198,139.958,316.969z"/>
		<path style="fill:#B97964;" d="M137.083,292.825c5.146-0.445,15.637,33.07,19.574,36.744c3.937,3.674,37.269,25.983,37.269,25.983
			s2.887-0.262,4.724,0c1.837,0.263,10.236,2.637,10.236,2.637s-3.15,5.57-6.299,6.716c-3.15,1.146-11.548-2.266-12.598-5.153
			c0,0-33.066-16.753-40.286-21.499c-7.22-4.747-14.905-27.308-16.837-33.875C130.935,297.812,134.044,293.088,137.083,292.825z"/>
	</g>
</g>
</svg>
