
<svg version="1.1" xmlns="http://www.w3.org/2000/svg" width="258" height="240">
<path d="M0 0 C85.14 0 170.28 0 258 0 C258 79.2 258 158.4 258 240 C172.86 240 87.72 240 0 240 C0 160.8 0 81.6 0 0 Z " fill="#4586F6" transform="translate(0,0)"/>
<path d="M0 0 C85.14 0 170.28 0 258 0 C258 79.2 258 158.4 258 240 C172.86 240 87.72 240 0 240 C0 160.8 0 81.6 0 0 Z M28 27 C27.67 27.33 27.34 27.66 27 28 C26.8957424 30.3288998 26.85666584 32.62839668 26.85955811 34.95806885 C26.85658698 35.69451842 26.85361586 36.43096799 26.8505547 37.18973422 C26.84183034 39.67630544 26.84035631 42.16282872 26.83886719 44.64941406 C26.83424158 46.42467859 26.82921727 48.19994211 26.82382202 49.97520447 C26.81066949 54.81210319 26.80424729 59.64898801 26.79981136 64.48590183 C26.79688467 67.50564576 26.7927806 70.52538586 26.78830719 73.54512787 C26.77462352 82.98672444 26.76496165 92.4283123 26.7611053 101.86991811 C26.75662501 112.78043051 26.73908208 123.6908176 26.7101047 134.60129189 C26.68850402 143.02595155 26.67840185 151.45057592 26.67706418 159.87526298 C26.67601481 164.91070854 26.67007927 169.94603646 26.65224457 174.98145294 C26.6357922 179.71906256 26.63359458 184.45646574 26.64238358 189.1940937 C26.64315553 190.93356185 26.63879048 192.67304096 26.62892532 194.41248131 C26.61625013 196.78656685 26.62205815 199.15991645 26.63250732 201.53399658 C26.62445092 202.2230119 26.61639452 202.91202721 26.60809398 203.62192178 C26.65230468 207.91450761 27.37146166 210.59161141 30 214 C33.76124193 216.50749462 36.71576725 216.28761423 41.07174683 216.27415466 C41.90382695 216.27939134 42.73590708 216.28462802 43.59320176 216.29002339 C46.39144696 216.3050685 49.18951004 216.30572952 51.98779297 216.30639648 C53.9899527 216.31401491 55.9921095 216.32244186 57.9942627 216.33161926 C63.44053367 216.35360178 68.8867485 216.36236815 74.33305883 216.36744571 C77.73373554 216.37108471 81.13439744 216.37732236 84.53506851 216.3844471 C96.39334004 216.40895417 108.25156773 216.42199631 120.10986328 216.42553711 C131.17247213 216.42917385 142.23480378 216.45907601 153.29732788 216.50094169 C162.78784353 216.53560217 172.27826713 216.55108481 181.76884568 216.55178314 C187.44037202 216.55257738 193.11161614 216.56138321 198.78307724 216.58978081 C204.11669496 216.61588882 209.44979501 216.61820724 214.78344727 216.60212517 C216.74223074 216.60030491 218.70104348 216.60705315 220.65976334 216.62294388 C223.33188866 216.64330256 226.00218527 216.63291358 228.67428589 216.61473083 C229.45142877 216.6279308 230.22857166 216.64113077 231.02926433 216.65473074 C235.05439962 216.59206944 236.79637476 216.16614506 239.95785713 213.58657932 C243.2181332 209.45711179 243.12859307 207.2137251 243.14044189 201.9596405 C243.14341302 201.22642006 243.14638414 200.49319961 243.1494453 199.73776037 C243.15815278 197.26811465 243.15964227 194.79851729 243.16113281 192.32885742 C243.16575955 190.56329748 243.17078402 188.79773855 243.17617798 187.03218079 C243.18931821 182.22633203 243.19575014 177.42049725 243.20018864 172.61463332 C243.20311686 169.61381259 243.20722119 166.6129957 243.21169281 163.6121769 C243.22537226 154.22824883 243.23503662 144.84432952 243.2388947 135.46039218 C243.24337616 124.6189401 243.26092628 113.77761406 243.2898953 102.93620032 C243.31149562 94.56247548 243.32159811 86.18878614 243.32293582 77.81503373 C243.32398507 72.81090189 243.32991825 67.80688845 243.34775543 62.80278587 C243.36420752 58.09553131 243.36640557 53.3884845 243.35761642 48.68121147 C243.3568445 46.95303034 243.36120916 45.22483817 243.37107468 43.49668503 C243.38375056 41.13797813 243.37794154 38.78001189 243.36749268 36.42131042 C243.37554908 35.73686818 243.38360548 35.05242593 243.39190602 34.34724301 C243.34760054 30.07302079 242.6819981 27.35619126 240 24 C236.4324935 21.24578368 232.15768851 21.71240551 227.84596252 21.72584534 C227.01711152 21.72060866 226.18826053 21.71537198 225.33429283 21.70997661 C222.55297277 21.69495756 219.77183637 21.69427105 216.99047852 21.69360352 C214.99802336 21.68598342 213.00557116 21.67755618 211.01312256 21.66838074 C205.59790149 21.64641663 200.1827369 21.63763449 194.76747632 21.63255429 C191.38572279 21.62891359 188.00398412 21.62267508 184.62223625 21.6155529 C172.82879866 21.5910537 161.0354051 21.57800507 149.24194336 21.57446289 C138.24122909 21.5708252 127.24079341 21.54091421 116.24016434 21.49905831 C106.80058347 21.46439839 97.36109513 21.44891521 87.92145103 21.44821686 C82.28123806 21.4474227 76.64130891 21.43862026 71.00116158 21.41021919 C65.69789838 21.38411165 60.39515583 21.38179248 55.09185791 21.39787483 C53.14436143 21.39969504 51.1968355 21.39294732 49.249403 21.37705612 C46.59265439 21.35669656 43.9377449 21.36708679 41.28102112 21.38526917 C40.12216639 21.36546921 40.12216639 21.36546921 38.93990046 21.34526926 C33.55150546 21.42963438 31.35320331 22.86111722 28 27 Z " fill="#4485F6" transform="translate(0,0)"/>
<path d="M0 0 C1.55073147 1.55073147 1.12969128 3.03062253 1.1328125 5.18359375 C1.13410156 6.02857422 1.13539063 6.87355469 1.13671875 7.74414062 C1.13285156 8.63294922 1.12898437 9.52175781 1.125 10.4375 C1.12886719 11.32244141 1.13273438 12.20738281 1.13671875 13.11914062 C1.13478516 14.38854492 1.13478516 14.38854492 1.1328125 15.68359375 C1.13168457 16.46275146 1.13055664 17.24190918 1.12939453 18.04467773 C1 20 1 20 0 22 C-1.65 21.67 -3.3 21.34 -5 21 C-5 17.7 -5 14.4 -5 11 C-11.63969184 16.26917429 -17.95821409 21.74372484 -24.13891602 27.53588867 C-28.52381175 31.62081693 -33.06937572 35.42471033 -37.7578125 39.16015625 C-38.49773437 39.76730469 -39.23765625 40.37445313 -40 41 C-40.61617187 41.49371094 -41.23234375 41.98742187 -41.8671875 42.49609375 C-43.21137133 43.939199 -43.21137133 43.939199 -42.87109375 45.890625 C-41.84537951 48.37441734 -40.50335164 50.48127517 -39.0625 52.75 C-33.2676829 63.2618542 -33.03149898 74.52303923 -36.03125 85.953125 C-39.62810749 97.26582195 -46.95985508 106.11168025 -57.48046875 111.81640625 C-68.00352471 116.75979533 -79.00296117 117.79137276 -90.25 114.4375 C-101.74491141 110.07525 -110.89205296 102.19594262 -116.17578125 91.0546875 C-116.44777344 90.37664062 -116.71976563 89.69859375 -117 89 C-117.35835937 88.11183594 -117.71671875 87.22367187 -118.0859375 86.30859375 C-119.22387627 82.18964443 -119.34090277 78.43992686 -119.3125 74.1875 C-119.31121094 73.39230957 -119.30992188 72.59711914 -119.30859375 71.77783203 C-119.21381654 65.99523725 -118.36781126 61.32757534 -116 56 C-117.87075349 54.14947838 -117.87075349 54.14947838 -121 53 C-123.90063886 53.30488467 -126.64042879 53.87867755 -129.4765625 54.5546875 C-132 55 -132 55 -135 54 C-135.32871094 54.77730469 -135.32871094 54.77730469 -135.6640625 55.5703125 C-137.53497586 58.97296779 -139.94154797 61.85880025 -142.375 64.875 C-145.8009616 69.13455119 -149.03487331 73.40475626 -152 78 C-151.505 78.99 -151.505 78.99 -151 80 C-150.42677225 84.69858808 -150.58259107 88.14972255 -152.6875 92.4375 C-155.22359508 95.24776752 -156.30815084 96.26163017 -160 97 C-164.98252389 97.14521017 -168.06405822 96.7604527 -172 93.5625 C-175.16705834 89.5047065 -175.35009167 87.16385214 -175 82 C-173.18740101 77.89780229 -170.89202893 75.23584641 -167 73 C-165.43350486 73.15051733 -163.8707816 73.34267971 -162.3125 73.5625 C-159.65245446 73.82298172 -159.65245446 73.82298172 -157 73 C-153.46996288 69.55290061 -150.81802945 65.73642391 -148.11328125 61.62841797 C-146.64146724 59.47556721 -144.94649291 57.54045651 -143.25 55.5625 C-141.83431296 53.78417025 -141.83431296 53.78417025 -141 52 C-141.61598022 48.98395292 -141.61598022 48.98395292 -143 46 C-143.2487365 41.00750312 -142.73662319 37.88394783 -139.5 34 C-138.675 33.34 -137.85 32.68 -137 32 C-136.505 31.505 -136.505 31.505 -136 31 C-131.78075631 30.36145546 -127.75601692 30.20523742 -123.81640625 31.98828125 C-120.83260252 34.19046487 -119.20985846 35.7914401 -118.5625 39.51953125 C-118.48030281 41.27392749 -118.41724512 43.02934365 -118.375 44.78515625 C-118.189375 45.88150391 -118.189375 45.88150391 -118 47 C-115.11320156 49.23886732 -115.11320156 49.23886732 -112 50 C-111.773125 49.46375 -111.54625 48.9275 -111.3125 48.375 C-106.8764726 40.3479028 -99.63026422 34.96340398 -91 32 C-78.5535536 29.33414083 -66.34571645 30.03299357 -55 36 C-54.32582031 36.57105469 -53.65164062 37.14210937 -52.95703125 37.73046875 C-51.06348346 39.19915564 -51.06348346 39.19915564 -48.67578125 39.0703125 C-44.73278422 37.49311369 -42.1878419 34.82291821 -39.1875 31.875 C-37.93297282 30.67637001 -36.67777033 29.4784464 -35.421875 28.28125 C-34.82568359 27.70761719 -34.22949219 27.13398437 -33.61523438 26.54296875 C-26.41905149 19.66874326 -18.60622345 13.41195361 -11 7 C-14.3 6.67 -17.6 6.34 -21 6 C-21 4.35 -21 2.7 -21 1 C-13.98218921 0.33502977 -7.05192014 -0.2312105 0 0 Z " fill="#4787F6" transform="translate(222,42)"/>
<path d="M0 0 C0.78353906 0.00086648 1.56707813 0.00173296 2.3743608 0.0026257 C3.20064852 -0.00034542 4.02693625 -0.00331654 4.878263 -0.0063777 C7.66886276 -0.01510382 10.45941983 -0.01657624 13.25003219 -0.01806521 C15.24204261 -0.02269068 17.23405214 -0.02771497 19.22606063 -0.03311038 C24.65384964 -0.0462639 30.08162627 -0.05268525 35.50942874 -0.05712104 C38.89769384 -0.06004745 42.28595551 -0.06415146 45.67421889 -0.06862521 C56.26698145 -0.08230888 66.85973623 -0.09197086 77.45250702 -0.0958271 C89.69534546 -0.10030797 101.93807225 -0.11785362 114.18087673 -0.1468277 C123.63312844 -0.16842365 133.08534871 -0.17853029 142.53762484 -0.17986822 C148.18786997 -0.18091789 153.83801028 -0.18685987 159.48822951 -0.20468783 C164.80365851 -0.2211321 170.1189035 -0.22334174 175.43434882 -0.21454883 C177.38667392 -0.21377645 179.33900876 -0.21814742 181.29130912 -0.22800708 C183.95438633 -0.24066865 186.61680618 -0.23488138 189.27987838 -0.22442508 C190.05449455 -0.23248148 190.82911073 -0.24053789 191.62720013 -0.24883842 C196.11199224 -0.20758873 199.07537201 0.2684336 202.58108687 3.1430676 C205.17270899 6.60690205 204.83522601 10.21653236 204.84178329 14.42393613 C204.84560883 15.15886542 204.84943438 15.89379472 204.85337585 16.6509946 C204.86369757 19.1144894 204.85971532 21.57775077 204.85574508 24.04126096 C204.86009201 25.80711704 204.86527509 27.57297122 204.87123275 29.3388226 C204.88463587 34.13631033 204.88519997 38.93371935 204.88266945 43.73122215 C204.88160066 47.73482185 204.88648074 51.73840556 204.89127487 55.74200183 C204.90237454 65.18616805 204.90280483 74.6302945 204.8967607 84.07446408 C204.8907191 93.82088719 204.90303562 103.567166 204.92433077 113.31356448 C204.94193696 121.67884387 204.94794969 130.04407729 204.94469303 138.40937454 C204.9428785 143.40676034 204.94553323 148.4040432 204.95940757 153.40141225 C204.97196535 158.10049872 204.97006127 162.79935995 204.95699668 167.49844289 C204.95462689 169.22339572 204.95737994 170.9483643 204.9656198 172.67329907 C204.97605517 175.02753379 204.96801297 177.38100824 204.95530868 179.73521543 C204.95547642 181.05279308 204.95564416 182.37037074 204.95581698 183.72787499 C204.55376104 187.39210817 203.81342519 189.24281896 201.58108687 192.1430676 C197.81984495 194.65056222 194.86531962 194.43068183 190.50934005 194.41722226 C189.26121986 194.42507728 189.26121986 194.42507728 187.98788512 194.43309098 C185.18963991 194.4481361 182.39157684 194.44879712 179.59329391 194.44946408 C177.59113417 194.45708251 175.58897737 194.46550946 173.58682418 194.47468686 C168.1405532 194.49666938 162.69433838 194.50543575 157.24802804 194.51051331 C153.84735133 194.5141523 150.44668944 194.52038996 147.04601836 194.5275147 C135.18774684 194.55202177 123.32951915 194.56506391 111.47122359 194.56860471 C100.40861474 194.57224144 89.34628309 194.60214361 78.283759 194.64400929 C68.79324335 194.67866977 59.30281974 194.69415241 49.8122412 194.69485074 C44.14071485 194.69564497 38.46947073 194.7044508 32.79800963 194.73284841 C27.46439191 194.75895642 22.13129187 194.76127484 16.79763961 194.74519277 C14.83885614 194.74337251 12.8800434 194.75012074 10.92132354 194.76601148 C8.24919822 194.78637016 5.5789016 194.77598118 2.90680099 194.75779843 C2.1296581 194.7709984 1.35251521 194.78419837 0.55182254 194.79779834 C-3.47331275 194.73513704 -5.21528789 194.30921266 -8.37677026 191.72964692 C-11.53850867 187.72498724 -11.56927824 185.00075356 -11.57281327 180.06474423 C-11.57719553 179.32744024 -11.58157778 178.59013624 -11.58609283 177.8304897 C-11.59950295 175.34703332 -11.60566462 172.86361244 -11.61178422 170.38012815 C-11.61968339 168.60471553 -11.62795222 166.82930453 -11.63656449 165.05389524 C-11.66280404 159.21254125 -11.67809313 153.37118002 -11.69235063 147.52978635 C-11.69770934 145.52087834 -11.70308684 143.51197039 -11.70848298 141.50306249 C-11.73011372 133.14853371 -11.74885166 124.79400688 -11.76010537 116.43945718 C-11.77635258 104.45563184 -11.80954687 92.47213034 -11.86650622 80.4884271 C-11.90516843 72.06799606 -11.9247336 63.64765178 -11.93002594 55.22713429 C-11.93368424 50.19495896 -11.94575638 45.16312886 -11.97812867 40.13104939 C-12.00814421 35.39743293 -12.0145445 30.66437177 -12.00274491 25.93068051 C-12.00252364 24.19280866 -12.0108733 22.45491153 -12.02839875 20.71712804 C-12.05102173 18.34486061 -12.04282954 15.9746186 -12.02691483 13.60234189 C-12.04079692 12.9140087 -12.05467901 12.2256755 -12.06898177 11.51648372 C-12.00501367 7.64874922 -11.49368157 6.23076927 -8.94341302 3.23936296 C-8.11032805 2.54758549 -7.27724309 1.85580802 -6.41891313 1.1430676 C-4.6610165 -0.61482903 -2.3427556 0.0127456 0 0 Z M-5.89051747 5.2217114 C-8.22986482 8.16252029 -7.9195252 10.55247358 -7.92011857 14.27244687 C-7.92565297 15.00314375 -7.93118736 15.73384064 -7.93688947 16.48667985 C-7.95053355 18.94206558 -7.93550724 21.39644137 -7.92062211 23.85180783 C-7.92440397 25.60928904 -7.92990292 27.36676728 -7.93699479 29.12423825 C-7.95098508 33.90322854 -7.93975419 38.68186023 -7.92328358 43.46083069 C-7.90945702 48.45713133 -7.9158905 53.45341063 -7.91941667 58.44972348 C-7.92212094 66.84211132 -7.9086254 75.23435632 -7.88546586 83.62671018 C-7.85886342 93.33395313 -7.85710547 103.04095706 -7.86885422 112.74822396 C-7.87962875 122.07877878 -7.87344693 131.40924702 -7.85929894 140.73979497 C-7.85353545 144.71380842 -7.85362471 148.68775858 -7.85836434 152.66177297 C-7.86313212 157.34117218 -7.85304072 162.02030929 -7.83140969 166.69965863 C-7.82583861 168.41857067 -7.82537947 170.13750787 -7.83036256 171.85642171 C-7.83630548 174.20014155 -7.82383003 176.54305735 -7.80659318 178.88670468 C-7.80416328 180.19912861 -7.80173339 181.51155253 -7.79922986 182.86374688 C-7.30781357 187.16315867 -7.30781357 187.16315867 -4.41891313 190.1430676 C-1.63452051 190.54385108 0.75870772 190.68327225 3.54567122 190.65100217 C4.36620626 190.65724213 5.1867413 190.66348209 6.03214103 190.66991115 C8.79150269 190.68591171 11.54998959 190.67320954 14.30935836 190.66064572 C16.28358644 190.66606375 18.25781048 190.67318461 20.23202682 190.68188596 C25.60188154 190.70016136 30.97142974 190.69303405 36.34129 190.68036962 C41.95419494 190.67026235 47.56707314 190.67962909 53.17997909 190.68591428 C62.60808196 190.69319792 72.03605963 190.68358479 81.46414351 190.66455197 C92.37111154 190.64278822 103.27778044 190.6498282 114.1847412 190.6718576 C123.54022685 190.68999868 132.89562235 190.69257604 142.25111991 190.68210292 C147.84262381 190.67586009 153.43398703 190.67505395 159.02548194 190.68824887 C164.28274603 190.69978769 169.53962387 190.69181752 174.79684615 190.66867185 C176.72861821 190.66337397 178.66042267 190.66491689 180.59218192 190.67372251 C183.22506926 190.68461924 185.85671135 190.67098601 188.48951888 190.65100217 C189.25790176 190.65992506 190.02628465 190.66884794 190.81795186 190.67804122 C194.11821816 190.62929963 196.25000601 190.3546477 199.05506396 188.56205106 C201.15649014 185.23096401 201.08447436 182.86234365 201.08902144 178.93139768 C201.09526141 178.20392992 201.10150137 177.47646216 201.10793042 176.72694993 C201.12388968 174.28850353 201.11124545 171.85105272 201.098665 169.41259885 C201.10408484 167.66482069 201.11120672 165.91704711 201.11990523 164.1692822 C201.13815798 159.42135433 201.13106303 154.67377369 201.11838889 149.92583966 C201.10827132 144.9602348 201.11765111 139.99465994 201.12393355 135.02905393 C201.13121358 126.68972546 201.12161292 118.35053863 201.10257125 110.01123166 C201.08080184 100.36584013 201.08785295 90.72078679 201.10987687 81.07540345 C201.12802073 72.79844158 201.13059416 64.52158159 201.12012219 56.24460626 C201.11388168 51.29921478 201.11306694 46.35398234 201.12626815 41.40860105 C201.13781128 36.7595 201.12982915 32.11083555 201.10669112 27.46178174 C201.10139579 25.75415515 201.10293188 24.0464919 201.11174178 22.33887982 C201.12264885 20.01033408 201.10899412 17.68319336 201.08902144 15.35473752 C201.08751334 14.05098676 201.08600524 12.74723599 201.08445144 11.40397763 C200.80207905 8.13654413 200.80207905 8.13654413 199.05227065 5.72366357 C195.60832809 3.52088052 192.49342903 3.59207449 188.53421187 3.64186215 C187.71690597 3.63632776 186.89960006 3.63079336 186.0575273 3.62509125 C183.31507246 3.61146289 180.57352427 3.62646555 177.83108687 3.64135861 C175.86656471 3.63757623 173.9020452 3.63207685 171.93753219 3.62498593 C166.59871474 3.61100358 161.26021857 3.62222067 155.92141891 3.63869715 C150.3392222 3.65252876 144.75704452 3.64608972 139.17483687 3.64256406 C129.79978409 3.63986044 120.42485922 3.6533506 111.04983687 3.67651486 C100.20480202 3.70312551 89.35998108 3.70487224 78.51492476 3.6931265 C68.09033632 3.68235424 57.66582541 3.68853146 47.24124312 3.70268178 C42.80112036 3.70844637 38.36105424 3.70835518 33.92093062 3.70361638 C28.69407152 3.69885059 23.4674472 3.70893184 18.24063277 3.73057103 C16.32014929 3.73614449 14.39964327 3.73659909 12.47915816 3.73161817 C9.86183054 3.72568031 7.24522441 3.73814141 4.62796187 3.75538754 C3.86415206 3.7493775 3.10034225 3.74336745 2.31338668 3.73717529 C-0.70152093 3.77341353 -3.11397105 4.00998648 -5.89051747 5.2217114 Z " fill="#657BF6" transform="translate(38.41891312599182,21.856932401657104)"/>
<path d="M0 0 C1.55073147 1.55073147 1.12969128 3.03062253 1.1328125 5.18359375 C1.13410156 6.02857422 1.13539063 6.87355469 1.13671875 7.74414062 C1.13285156 8.63294922 1.12898437 9.52175781 1.125 10.4375 C1.12886719 11.32244141 1.13273438 12.20738281 1.13671875 13.11914062 C1.13478516 14.38854492 1.13478516 14.38854492 1.1328125 15.68359375 C1.13168457 16.46275146 1.13055664 17.24190918 1.12939453 18.04467773 C1 20 1 20 0 22 C-1.65 21.67 -3.3 21.34 -5 21 C-5 17.7 -5 14.4 -5 11 C-11.63969184 16.26917429 -17.95821409 21.74372484 -24.13891602 27.53588867 C-28.52381175 31.62081693 -33.06937572 35.42471033 -37.7578125 39.16015625 C-38.49773437 39.76730469 -39.23765625 40.37445313 -40 41 C-40.61617187 41.49371094 -41.23234375 41.98742187 -41.8671875 42.49609375 C-43.21137133 43.939199 -43.21137133 43.939199 -42.87109375 45.890625 C-41.84537951 48.37441734 -40.50335164 50.48127517 -39.0625 52.75 C-33.2676829 63.2618542 -33.03149898 74.52303923 -36.03125 85.953125 C-39.62810749 97.26582195 -46.95985508 106.11168025 -57.48046875 111.81640625 C-68.00352471 116.75979533 -79.00296117 117.79137276 -90.25 114.4375 C-101.74491141 110.07525 -110.89205296 102.19594262 -116.17578125 91.0546875 C-116.44777344 90.37664062 -116.71976563 89.69859375 -117 89 C-117.35835937 88.11183594 -117.71671875 87.22367187 -118.0859375 86.30859375 C-119.22387627 82.18964443 -119.34090277 78.43992686 -119.3125 74.1875 C-119.31121094 73.39230957 -119.30992188 72.59711914 -119.30859375 71.77783203 C-119.21381654 65.99523725 -118.36781126 61.32757534 -116 56 C-117.87075349 54.14947838 -117.87075349 54.14947838 -121 53 C-123.90063886 53.30488467 -126.64042879 53.87867755 -129.4765625 54.5546875 C-132 55 -132 55 -135 54 C-135.32871094 54.77730469 -135.32871094 54.77730469 -135.6640625 55.5703125 C-137.53497586 58.97296779 -139.94154797 61.85880025 -142.375 64.875 C-145.8009616 69.13455119 -149.03487331 73.40475626 -152 78 C-151.505 78.99 -151.505 78.99 -151 80 C-150.42677225 84.69858808 -150.58259107 88.14972255 -152.6875 92.4375 C-155.22359508 95.24776752 -156.30815084 96.26163017 -160 97 C-164.98252389 97.14521017 -168.06405822 96.7604527 -172 93.5625 C-175.16705834 89.5047065 -175.35009167 87.16385214 -175 82 C-173.18740101 77.89780229 -170.89202893 75.23584641 -167 73 C-165.43350486 73.15051733 -163.8707816 73.34267971 -162.3125 73.5625 C-159.65245446 73.82298172 -159.65245446 73.82298172 -157 73 C-153.46996288 69.55290061 -150.81802945 65.73642391 -148.11328125 61.62841797 C-146.64146724 59.47556721 -144.94649291 57.54045651 -143.25 55.5625 C-141.83431296 53.78417025 -141.83431296 53.78417025 -141 52 C-141.61598022 48.98395292 -141.61598022 48.98395292 -143 46 C-143.2487365 41.00750312 -142.73662319 37.88394783 -139.5 34 C-138.675 33.34 -137.85 32.68 -137 32 C-136.505 31.505 -136.505 31.505 -136 31 C-131.78075631 30.36145546 -127.75601692 30.20523742 -123.81640625 31.98828125 C-120.83260252 34.19046487 -119.20985846 35.7914401 -118.5625 39.51953125 C-118.48030281 41.27392749 -118.41724512 43.02934365 -118.375 44.78515625 C-118.189375 45.88150391 -118.189375 45.88150391 -118 47 C-115.11320156 49.23886732 -115.11320156 49.23886732 -112 50 C-111.773125 49.46375 -111.54625 48.9275 -111.3125 48.375 C-106.8764726 40.3479028 -99.63026422 34.96340398 -91 32 C-78.5535536 29.33414083 -66.34571645 30.03299357 -55 36 C-54.32582031 36.57105469 -53.65164062 37.14210937 -52.95703125 37.73046875 C-51.06348346 39.19915564 -51.06348346 39.19915564 -48.67578125 39.0703125 C-44.73278422 37.49311369 -42.1878419 34.82291821 -39.1875 31.875 C-37.93297282 30.67637001 -36.67777033 29.4784464 -35.421875 28.28125 C-34.82568359 27.70761719 -34.22949219 27.13398437 -33.61523438 26.54296875 C-26.41905149 19.66874326 -18.60622345 13.41195361 -11 7 C-14.3 6.67 -17.6 6.34 -21 6 C-21 4.35 -21 2.7 -21 1 C-13.98218921 0.33502977 -7.05192014 -0.2312105 0 0 Z M-102 46 C-102.61488281 46.57492188 -103.22976562 47.14984375 -103.86328125 47.7421875 C-110.55567271 54.649538 -114.21945984 62.93450627 -114.5625 72.5625 C-114.19343249 81.35685157 -111.33479554 88.99808086 -106 96 C-105.40960938 96.80308594 -104.81921875 97.60617188 -104.2109375 98.43359375 C-101.8736588 101.14665401 -99.65583052 102.798537 -96.625 104.6875 C-95.70976563 105.26886719 -94.79453125 105.85023438 -93.8515625 106.44921875 C-85.27860885 111.11149628 -75.91365555 111.35357005 -66.484375 109.1953125 C-55.92322556 105.56648153 -48.52771585 99.60037561 -43.4375 89.625 C-39.38409235 80.73735831 -38.42698339 70.80377062 -40.6484375 61.1953125 C-41.58637989 58.94264743 -42.64787595 57.03019219 -44 55 C-44.48597656 54.24460937 -44.97195312 53.48921875 -45.47265625 52.7109375 C-51.74671322 43.84123049 -60.23791262 37.89223514 -71 36 C-82.25110941 34.53166598 -93.78734302 38.20432119 -102 46 Z " fill="#F4F7FE" transform="translate(222,42)"/>
<path d="M0 0 C1.39873124 1.50423899 2.71795269 3.08265149 4 4.6875 C4.79535156 5.68265625 5.59070313 6.6778125 6.41015625 7.703125 C7.2742837 8.80141808 8.13753686 9.9003995 9 11 C9.67651611 11.85754883 9.67651611 11.85754883 10.36669922 12.73242188 C11.72932923 14.46308257 13.08497704 16.19893203 14.4375 17.9375 C14.86224609 18.48043701 15.28699219 19.02337402 15.72460938 19.58276367 C20.30798133 25.5331874 21.85953476 29.50593128 21 37 C19.25160799 41.14092845 16.83270162 43.66705119 13 46 C8.58864281 47.19864974 5.11123597 47.36328868 0.75 45.9375 C-5.19556871 41.74857659 -8.18600785 36.21737372 -11.125 29.75 C-11.47046875 29.00435791 -11.8159375 28.25871582 -12.171875 27.49047852 C-14.61024988 22.12454143 -16.64404824 16.74867047 -18 11 C-17.18015625 10.45730469 -16.3603125 9.91460937 -15.515625 9.35546875 C-14.43796875 8.64003906 -13.3603125 7.92460937 -12.25 7.1875 C-11.18265625 6.47980469 -10.1153125 5.77210938 -9.015625 5.04296875 C-7.21934872 3.82606137 -5.44716858 2.57012591 -3.734375 1.23828125 C-2 0 -2 0 0 0 Z " fill="#FBFCFE" transform="translate(181,149)"/>
<path d="M0 0 C1.65 0.33 3.3 0.66 5 1 C5.020625 1.7425 5.04125 2.485 5.0625 3.25 C6.31210189 6.91549888 8.03699913 7.33929053 11.34375 9.046875 C13 10 13 10 14.4375 11.8125 C15.23220802 14.90303118 15.12203667 17.8270466 15 21 C13.35 21 11.7 21 10 21 C9.67 18.69 9.34 16.38 9 14 C6.277797 12.67778712 4.42332301 11.97984176 1.375 12.125 C-1.60623626 13.2233502 -2.5817658 14.16353159 -4 17 C-3.7434556 20.50610679 -2.9814066 22.0278901 -1 25 C1.24784086 25.8331447 1.24784086 25.8331447 3.8125 26.375 C8.42978845 27.63608023 10.95799789 29.17296508 14 33 C15.73459436 36.46918872 15.47173877 40.20696532 15 44 C12.9949912 47.8026029 11.57313738 49.61790841 8 52 C7.01 52 6.02 52 5 52 C5 53.98 5 55.96 5 58 C3.68 58 2.36 58 1 58 C0 57 0 57 -0.0625 54.4375 C-0.041875 53.633125 -0.02125 52.82875 0 52 C-0.78375 51.9175 -1.5675 51.835 -2.375 51.75 C-5 51 -5 51 -6.3125 48.9375 C-6.539375 48.298125 -6.76625 47.65875 -7 47 C-7.66 47 -8.32 47 -9 47 C-10.4783226 44.04335481 -10.06032783 41.25770263 -10 38 C-8.02 37.505 -8.02 37.505 -6 37 C-4.35 39.97 -2.7 42.94 -1 46 C3.10645548 46.32235558 3.10645548 46.32235558 6.875 44.9375 C8.66235303 41.85928089 8.43386742 39.47093932 8 36 C5.71117516 33.21360454 2.90671108 32.6628949 -0.4375 31.6875 C-5.38329236 30.09603216 -7.39104454 28.54463209 -10 24 C-10.97349058 19.14993084 -10.49643177 15.91012491 -8.125 11.5625 C-6 9 -6 9 -4 7 C-2.68 7 -1.36 7 0 7 C0 4.69 0 2.38 0 0 Z " fill="#F3F7FE" transform="translate(143,86)"/>
<path d="M0 0 C1.875 1.125 1.875 1.125 3 3 C3.53852618 6.61581862 3.42236225 8.34111489 1.4375 11.4375 C-1 13 -1 13 -4.75 12.75 C-6.35875 12.37875 -6.35875 12.37875 -8 12 C-8 11.34 -8 10.68 -8 10 C-8.66 10 -9.32 10 -10 10 C-9.40140845 3.65492958 -9.40140845 3.65492958 -7.8125 1.0625 C-5.08912093 -0.5339636 -3.09046979 -0.38630872 0 0 Z " fill="#4D8BF7" transform="translate(95,78)"/>
<path d="M0 0 C3.04192065 1.21676826 4.57779972 2.33849191 6.5 5 C6.43019221 7.86211941 5.87347914 9.42995288 4.3125 11.8125 C1.61075568 13.58260835 -0.34673574 13.39415803 -3.5 13 C-5.375 11.875 -5.375 11.875 -6.5 10 C-7.04955021 6.31016285 -6.95269677 4.65389533 -4.8125 1.5625 C-2.5 0 -2.5 0 0 0 Z " fill="#4787F6" transform="translate(59.5,120)"/>
</svg>
