<?xml version="1.0" encoding="utf-8"?>
<!-- Generator: Adobe Illustrator 27.5.0, SVG Export Plug-In . SVG Version: 6.00 Build 0)  -->
<svg version="1.1" xmlns="http://www.w3.org/2000/svg" xmlns:xlink="http://www.w3.org/1999/xlink" x="0px" y="0px"
	 viewBox="0 0 500 500" style="enable-background:new 0 0 500 500;" xml:space="preserve">
<g id="Background_Complete">
	<g>
		<rect y="382.398" style="fill:#EBEBEB;" width="500" height="0.25"/>
		<rect x="416.779" y="398.494" style="fill:#EBEBEB;" width="33.122" height="0.25"/>
		<rect x="322.527" y="401.208" style="fill:#EBEBEB;" width="8.693" height="0.25"/>
		<rect x="396.586" y="389.208" style="fill:#EBEBEB;" width="19.192" height="0.25"/>
		<rect x="52.459" y="390.888" style="fill:#EBEBEB;" width="43.193" height="0.25"/>
		<rect x="104.556" y="390.888" style="fill:#EBEBEB;" width="6.333" height="0.25"/>
		<rect x="131.471" y="395.111" style="fill:#EBEBEB;" width="93.676" height="0.25"/>
		<path style="fill:#EBEBEB;" d="M237.014,337.8H43.915c-3.147,0-5.708-2.561-5.708-5.708V60.66c0-3.147,2.561-5.708,5.708-5.708
			h193.099c3.146,0,5.707,2.561,5.707,5.708v271.432C242.721,335.239,240.16,337.8,237.014,337.8z M43.915,55.203
			c-3.01,0-5.458,2.448-5.458,5.458v271.432c0,3.01,2.448,5.458,5.458,5.458h193.099c3.009,0,5.457-2.448,5.457-5.458V60.66
			c0-3.009-2.448-5.458-5.457-5.458H43.915z"/>
		<path style="fill:#EBEBEB;" d="M453.31,337.8H260.212c-3.147,0-5.707-2.561-5.707-5.708V60.66c0-3.147,2.561-5.708,5.707-5.708
			H453.31c3.148,0,5.708,2.561,5.708,5.708v271.432C459.019,335.239,456.458,337.8,453.31,337.8z M260.212,55.203
			c-3.009,0-5.457,2.448-5.457,5.458v271.432c0,3.01,2.448,5.458,5.457,5.458H453.31c3.01,0,5.458-2.448,5.458-5.458V60.66
			c0-3.009-2.448-5.458-5.458-5.458H260.212z"/>
	</g>
	<g>
		<rect x="415.701" y="113.835" style="fill:#E0E0E0;" width="5.237" height="110.175"/>
		<g>
			
				<rect x="318.297" y="113.835" transform="matrix(-1 -1.224647e-16 1.224647e-16 -1 736.2108 337.8451)" style="fill:#E0E0E0;" width="99.618" height="110.175"/>
			
				<rect x="315.116" y="113.835" transform="matrix(-1 -1.224647e-16 1.224647e-16 -1 733.5529 337.8451)" style="fill:#F0F0F0;" width="103.321" height="110.175"/>
			
				<rect x="319.486" y="117.349" transform="matrix(-1 -1.224647e-16 1.224647e-16 -1 733.7176 336.2971)" style="fill:#FFFFFF;" width="94.745" height="101.599"/>
			
				<rect x="319.486" y="117.349" transform="matrix(-1 -1.224647e-16 1.224647e-16 -1 641.7127 336.2971)" style="fill:#E0E0E0;" width="2.74" height="101.599"/>
			
				<rect x="366.834" y="145.509" transform="matrix(6.123234e-17 -1 1 6.123234e-17 176.4244 559.983)" style="fill:#E0E0E0;" width="2.74" height="92.541"/>
			
				<rect x="319.486" y="185.81" transform="matrix(-1 -1.224647e-16 1.224647e-16 -1 735.1871 376.2193)" style="fill:#F0F0F0;" width="96.214" height="4.6"/>
		</g>
		<g>
			<rect x="66.057" y="183.187" style="fill:#F0F0F0;" width="156.536" height="198.22"/>
			<g>
				<rect x="71.59" y="190.411" style="fill:#E0E0E0;" width="145.47" height="42.387"/>
				<rect x="71.59" y="197.273" style="fill:#EBEBEB;" width="8.264" height="35.525"/>
				<rect x="111.548" y="197.273" style="fill:#EBEBEB;" width="8.264" height="35.525"/>
				
					<rect x="159.986" y="196.83" transform="matrix(0.9855 -0.1698 0.1698 0.9855 -34.0616 30.9911)" style="fill:#EBEBEB;" width="8.264" height="35.525"/>
				<rect x="81.829" y="201.955" style="fill:#EBEBEB;" width="8.264" height="30.843"/>
				<rect x="100.823" y="201.955" style="fill:#EBEBEB;" width="8.264" height="30.843"/>
				<rect x="148.766" y="201.955" style="fill:#EBEBEB;" width="8.264" height="30.843"/>
				
					<rect x="125.845" y="201.426" transform="matrix(0.9762 -0.2169 0.2169 0.9762 -43.9425 33.3568)" style="fill:#EBEBEB;" width="8.264" height="30.843"/>
				<rect x="93.107" y="195.51" style="fill:#EBEBEB;" width="4.132" height="37.289"/>
				<rect x="142.259" y="195.51" style="fill:#EBEBEB;" width="4.132" height="37.289"/>
			</g>
			<g>
				
					<rect x="71.59" y="239.51" transform="matrix(-1 -1.224647e-16 1.224647e-16 -1 288.6497 521.4059)" style="fill:#E0E0E0;" width="145.47" height="42.387"/>
				
					<rect x="208.796" y="246.372" transform="matrix(-1 -1.224647e-16 1.224647e-16 -1 425.8557 528.2678)" style="fill:#EBEBEB;" width="8.264" height="35.525"/>
				
					<rect x="168.838" y="246.372" transform="matrix(-1 -1.224647e-16 1.224647e-16 -1 345.94 528.2678)" style="fill:#EBEBEB;" width="8.264" height="35.525"/>
				
					<rect x="120.4" y="245.928" transform="matrix(-0.9855 -0.1698 0.1698 -0.9855 202.4678 544.7)" style="fill:#EBEBEB;" width="8.264" height="35.525"/>
				
					<rect x="198.557" y="251.053" transform="matrix(-1 -1.224647e-16 1.224647e-16 -1 405.3768 532.9493)" style="fill:#EBEBEB;" width="8.264" height="30.843"/>
				
					<rect x="179.563" y="251.053" transform="matrix(-1 -1.224647e-16 1.224647e-16 -1 367.389 532.9493)" style="fill:#EBEBEB;" width="8.264" height="30.843"/>
				
					<rect x="131.62" y="251.053" transform="matrix(-1 -1.224647e-16 1.224647e-16 -1 271.5034 532.9493)" style="fill:#EBEBEB;" width="8.264" height="30.843"/>
				
					<rect x="154.541" y="250.524" transform="matrix(-0.9762 -0.2169 0.2169 -0.9762 255.8803 559.9775)" style="fill:#EBEBEB;" width="8.264" height="30.843"/>
				
					<rect x="191.411" y="244.608" transform="matrix(-1 -1.224647e-16 1.224647e-16 -1 386.9538 526.5041)" style="fill:#EBEBEB;" width="4.132" height="37.289"/>
				
					<rect x="142.259" y="244.608" transform="matrix(-1 -1.224647e-16 1.224647e-16 -1 288.6496 526.5041)" style="fill:#EBEBEB;" width="4.132" height="37.289"/>
				<rect x="71.59" y="246.372" style="fill:#EBEBEB;" width="8.264" height="35.525"/>
				<rect x="81.829" y="251.053" style="fill:#EBEBEB;" width="8.264" height="30.843"/>
				<rect x="100.823" y="251.053" style="fill:#EBEBEB;" width="8.264" height="30.843"/>
				<rect x="93.107" y="244.608" style="fill:#EBEBEB;" width="4.132" height="37.289"/>
			</g>
			<g>
				<rect x="71.59" y="288.608" style="fill:#E0E0E0;" width="145.47" height="42.387"/>
				<g>
					<rect x="155.085" y="295.47" style="fill:#EBEBEB;" width="8.264" height="35.525"/>
					
						<rect x="203.523" y="295.026" transform="matrix(0.9855 -0.1698 0.1698 0.9855 -50.1066 39.812)" style="fill:#EBEBEB;" width="8.264" height="35.525"/>
					<rect x="125.366" y="300.151" style="fill:#EBEBEB;" width="8.264" height="30.843"/>
					<rect x="144.36" y="300.151" style="fill:#EBEBEB;" width="8.264" height="30.843"/>
					<rect x="192.303" y="300.151" style="fill:#EBEBEB;" width="8.264" height="30.843"/>
					
						<rect x="169.382" y="299.622" transform="matrix(0.9762 -0.2169 0.2169 0.9762 -64.2054 45.1379)" style="fill:#EBEBEB;" width="8.264" height="30.843"/>
					<rect x="136.644" y="293.706" style="fill:#EBEBEB;" width="4.132" height="37.289"/>
					<rect x="185.796" y="293.706" style="fill:#EBEBEB;" width="4.132" height="37.289"/>
					
						<rect x="108.453" y="295.026" transform="matrix(0.9855 -0.1698 0.1698 0.9855 -51.4884 23.6657)" style="fill:#EBEBEB;" width="8.264" height="35.525"/>
					<rect x="97.232" y="300.151" style="fill:#EBEBEB;" width="8.264" height="30.843"/>
					
						<rect x="74.312" y="299.622" transform="matrix(0.9762 -0.2169 0.2169 0.9762 -66.4697 24.5164)" style="fill:#EBEBEB;" width="8.264" height="30.843"/>
					<rect x="90.725" y="293.706" style="fill:#EBEBEB;" width="4.132" height="37.289"/>
				</g>
			</g>
		</g>
		<g>
			<path style="fill:#E6E6E6;" d="M318.203,263.089h88.214c9.568,0,17.325,7.757,17.325,17.325v68.884H300.878v-68.884
				C300.878,270.846,308.635,263.089,318.203,263.089z"/>
			<path style="fill:#E0E0E0;" d="M274.797,314.144h15.786c5.686,0,10.295,4.609,10.295,10.295v56.967h-36.376V324.44
				C264.502,318.754,269.111,314.144,274.797,314.144z"/>
			<path style="fill:#EBEBEB;" d="M274.797,314.144h0.333c5.686,0,10.295,4.609,10.295,10.295v56.967h-20.924V324.44
				C264.502,318.754,269.111,314.144,274.797,314.144z"/>
			<rect x="289.831" y="355.238" style="fill:#E6E6E6;" width="121.063" height="26.168"/>
			<path style="fill:#F5F5F5;" d="M289.659,331.306h116.753c5.781,0,10.467,4.686,10.467,10.467v6.52
				c0,5.781-4.686,10.467-10.467,10.467H289.659c-5.781,0-10.467-4.686-10.467-10.467v-6.52
				C279.193,335.992,283.879,331.306,289.659,331.306z"/>
			<path style="fill:#E0E0E0;enable-background:new    ;" d="M391.74,331.306h14.481c5.781,0,10.467,4.686,10.467,10.467v6.52
				c0,5.781-4.686,10.467-10.467,10.467H391.74c-5.781,0-10.467-4.686-10.467-10.467v-6.52
				C381.273,335.992,385.96,331.306,391.74,331.306z"/>
			<path style="fill:#E0E0E0;" d="M407.783,314.144h15.786c5.686,0,10.295,4.609,10.295,10.295v56.967h-36.376V324.44
				C397.488,318.754,402.097,314.144,407.783,314.144z"/>
			<path style="fill:#F0F0F0;" d="M407.783,314.144h0.333c5.686,0,10.295,4.609,10.295,10.295v56.967h-20.924V324.44
				C397.488,318.754,402.097,314.144,407.783,314.144z"/>
		</g>
		<g>
			
				<ellipse transform="matrix(0.9871 -0.1602 0.1602 0.9871 -15.2229 24.8287)" style="fill:#E0E0E0;" cx="146.391" cy="106.836" rx="23.554" ry="23.554"/>
			
				<ellipse transform="matrix(0.9871 -0.1602 0.1602 0.9871 -15.2229 24.8287)" style="fill:#F0F0F0;" cx="146.391" cy="106.836" rx="20.027" ry="20.027"/>
			
				<polyline style="fill:#F0F0F0;stroke:#E0E0E0;stroke-width:2;stroke-linecap:round;stroke-linejoin:round;stroke-miterlimit:10;" points="
				145.446,120.574 145.446,106.574 136.168,111.824 			"/>
		</g>
	</g>
</g>
<g id="Background_Simple" style="display:none;">
	<g style="display:inline;">
		<path style="fill:#407BFF;" d="M83.703,110.268c27.919-59.449,127.059-51.062,165.317-9.255
			c38.258,41.806,50.696,68.599,85.208,52.983c34.512-15.616,78.518-11.44,81.042,38.164
			c2.525,49.604-37.913,108.263-102.09,125.615c-64.177,17.352-64.161,78.759-149.1,66.368c-46.31-6.756-47.365-56.86-40.825-98.301
			S51.324,179.212,83.703,110.268z"/>
		<path style="opacity:0.9;fill:#FFFFFF;" d="M83.703,110.268c27.919-59.449,127.059-51.062,165.317-9.255
			c38.258,41.806,50.696,68.599,85.208,52.983c34.512-15.616,78.518-11.44,81.042,38.164
			c2.525,49.604-37.913,108.263-102.09,125.615c-64.177,17.352-64.161,78.759-149.1,66.368c-46.31-6.756-47.365-56.86-40.825-98.301
			S51.324,179.212,83.703,110.268z"/>
	</g>
</g>
<g id="Shadow_1_">
	<ellipse id="_x3C_Path_x3E__359_" style="fill:#F5F5F5;" cx="250" cy="416.238" rx="193.889" ry="11.323"/>
</g>
<g id="From_1">
	<g>
		<rect x="108.816" y="147.768" style="fill:#407BFF;" width="134.228" height="225.436"/>
		<rect x="108.816" y="147.768" style="opacity:0.5;fill:#FFFFFF;enable-background:new    ;" width="134.228" height="225.436"/>
	</g>
</g>
<g id="From_2">
	<g>
		<rect x="125.671" y="141.801" style="fill:#407BFF;" width="134.228" height="225.436"/>
		<rect x="125.671" y="141.801" style="opacity:0.6;fill:#FFFFFF;enable-background:new    ;" width="134.228" height="225.436"/>
		<g>
			<g style="opacity:0.5;">
				<rect x="134.537" y="273.544" width="64.879" height="2"/>
			</g>
			<g>
				<rect x="134.537" y="278.428" style="opacity:0.5;" width="89.407" height="2"/>
			</g>
			<rect x="134.537" y="284.566" style="opacity:0.2;" width="116.308" height="6.66"/>
			<g>
				<g>
					<rect x="134.537" y="216.509" style="opacity:0.5;" width="96.899" height="2"/>
				</g>
				<g>
					<rect x="134.537" y="221.393" style="opacity:0.5;" width="89.407" height="2"/>
				</g>
				<g>
					<rect x="184.686" y="229.187" style="opacity:0.2;" width="3.56" height="3.56"/>
					<rect x="184.686" y="236.49" style="opacity:0.2;" width="3.56" height="3.56"/>
					<rect x="184.686" y="243.793" style="opacity:0.2;" width="3.56" height="3.56"/>
					<rect x="184.686" y="251.096" style="opacity:0.2;" width="3.56" height="3.56"/>
					<rect x="184.686" y="258.4" style="opacity:0.2;" width="3.56" height="3.56"/>
					<g>
						<rect x="134.537" y="229.967" style="opacity:0.5;" width="46.468" height="2"/>
					</g>
					<g>
						<rect x="134.537" y="237.27" style="opacity:0.5;" width="46.468" height="2"/>
					</g>
					<g>
						<rect x="134.537" y="244.574" style="opacity:0.5;" width="46.468" height="2"/>
					</g>
					<g>
						<rect x="134.537" y="251.877" style="opacity:0.5;" width="46.468" height="2"/>
					</g>
					<g>
						<rect x="134.537" y="259.18" style="opacity:0.5;" width="46.468" height="2"/>
					</g>
					<rect x="246.725" y="229.187" style="opacity:0.2;" width="3.56" height="3.56"/>
					<rect x="246.725" y="236.49" style="opacity:0.2;" width="3.56" height="3.56"/>
					<rect x="246.725" y="243.793" style="opacity:0.2;" width="3.56" height="3.56"/>
					<rect x="246.725" y="251.096" style="opacity:0.2;" width="3.56" height="3.56"/>
					<rect x="246.725" y="258.4" style="opacity:0.2;" width="3.56" height="3.56"/>
					<g>
						<rect x="196.576" y="229.967" style="opacity:0.5;" width="46.468" height="2"/>
					</g>
					<g>
						<rect x="196.576" y="237.27" style="opacity:0.5;" width="46.468" height="2"/>
					</g>
					<g>
						<rect x="196.576" y="244.574" style="opacity:0.5;" width="46.468" height="2"/>
					</g>
					<g>
						<rect x="196.576" y="251.877" style="opacity:0.5;" width="46.468" height="2"/>
					</g>
					<g>
						<rect x="196.576" y="259.18" style="opacity:0.5;" width="46.468" height="2"/>
					</g>
				</g>
			</g>
			<g>
				<g>
					<rect x="134.537" y="152.468" style="opacity:0.5;" width="64.879" height="2"/>
				</g>
				<g>
					<rect x="134.537" y="157.352" style="opacity:0.5;" width="89.407" height="2"/>
				</g>
				<g>
					<rect x="134.915" y="163.49" style="opacity:0.2;" width="116.308" height="6.66"/>
					<rect x="134.917" y="170.894" style="opacity:0.1;" width="57.62" height="6.66"/>
					<rect x="193.397" y="170.894" style="opacity:0.2;" width="57.83" height="6.66"/>
					<rect x="134.917" y="178.304" style="opacity:0.1;" width="57.62" height="6.66"/>
					<rect x="193.397" y="178.304" style="opacity:0.1;" width="28.44" height="6.66"/>
					<rect x="222.687" y="178.304" style="opacity:0.1;" width="28.54" height="6.66"/>
					<rect x="134.917" y="185.704" style="opacity:0.1;" width="57.62" height="6.66"/>
					<rect x="193.397" y="185.704" style="opacity:0.1;" width="28.44" height="6.66"/>
					<rect x="222.687" y="185.704" style="opacity:0.1;" width="28.54" height="6.66"/>
					<rect x="134.917" y="193.104" style="opacity:0.1;" width="57.62" height="6.66"/>
					<rect x="193.397" y="193.104" style="opacity:0.1;" width="28.44" height="6.66"/>
					<rect x="222.687" y="193.104" style="opacity:0.1;" width="28.54" height="6.66"/>
					<rect x="134.917" y="200.514" style="opacity:0.1;" width="57.62" height="6.66"/>
					<rect x="193.397" y="200.514" style="opacity:0.1;" width="28.44" height="6.66"/>
					<rect x="222.687" y="200.514" style="opacity:0.1;" width="28.54" height="6.66"/>
				</g>
			</g>
			<g>
				<rect x="134.537" y="298.56" style="opacity:0.5;" width="64.879" height="2"/>
			</g>
			<g>
				<rect x="134.537" y="303.444" style="opacity:0.5;" width="49.381" height="2"/>
			</g>
			<rect x="134.537" y="309.582" style="opacity:0.2;" width="116.308" height="6.66"/>
			<g>
				<rect x="134.537" y="322.575" style="opacity:0.5;" width="64.879" height="2"/>
			</g>
			<g>
				<rect x="134.537" y="327.46" style="opacity:0.5;" width="74.397" height="2"/>
			</g>
			<rect x="134.537" y="333.597" style="opacity:0.2;" width="116.308" height="6.66"/>
			<g>
				<rect x="247.152" y="358.007" style="opacity:0.5;" width="3.692" height="2"/>
			</g>
		</g>
	</g>
</g>
<g id="From_3">
	<g>
		<rect x="151.471" y="118.04" style="fill:#407BFF;" width="134.228" height="225.436"/>
		<rect x="151.471" y="118.04" style="opacity:0.7;fill:#FFFFFF;enable-background:new    ;" width="134.228" height="225.436"/>
		<rect x="151.471" y="118.04" style="fill:#407BFF;" width="134.228" height="19.293"/>
		<g>
			<path style="fill:#FFFFFF;" d="M160.266,124.867h-2.783v-1.319h7.124v1.319h-2.782v7.076h-1.559V124.867z"/>
			<path style="fill:#FFFFFF;" d="M170.812,130.001h-4.198l-0.827,1.943h-1.607l3.778-8.396h1.535l3.79,8.396h-1.631
				L170.812,130.001z M170.296,128.777l-1.583-3.67l-1.571,3.67H170.296z"/>
			<path style="fill:#FFFFFF;" d="M179.224,131.943l-2.279-3.191l-2.255,3.191h-1.775l3.118-4.282l-2.95-4.114h1.763l2.146,2.986
				l2.123-2.986h1.691l-2.938,4.054l3.154,4.342H179.224z"/>
			<path style="fill:#FFFFFF;" d="M187.122,124.855v2.554h4.054v1.319h-4.054v3.214h-1.559v-8.396h6.128v1.308H187.122z"/>
			<path style="fill:#FFFFFF;" d="M192.511,127.746c0-2.482,1.919-4.317,4.521-4.317c2.603,0,4.521,1.823,4.521,4.317
				c0,2.495-1.919,4.318-4.521,4.318C194.43,132.064,192.511,130.229,192.511,127.746z M199.983,127.746
				c0-1.715-1.259-2.95-2.95-2.95s-2.951,1.235-2.951,2.95c0,1.715,1.26,2.951,2.951,2.951S199.983,129.461,199.983,127.746z"/>
			<path style="fill:#FFFFFF;" d="M208.708,131.943l-1.715-2.459c-0.108,0.012-0.216,0.012-0.324,0.012h-1.895v2.447h-1.559v-8.396
				h3.454c2.207,0,3.574,1.127,3.574,2.986c0,1.271-0.648,2.207-1.787,2.651l1.931,2.758H208.708z M206.597,124.867h-1.823v3.346
				h1.823c1.368,0,2.075-0.624,2.075-1.679C208.672,125.479,207.964,124.867,206.597,124.867z"/>
			<path style="fill:#FFFFFF;" d="M219.699,131.943l-0.012-5.565l-2.758,4.605h-0.696l-2.758-4.534v5.493h-1.487v-8.396h1.283
				l3.334,5.565l3.274-5.565h1.283l0.012,8.396H219.699z"/>
		</g>
		<circle style="fill:#407BFF;" cx="283.04" cy="113.904" r="2.659"/>
		<circle style="fill:#407BFF;" cx="275.326" cy="113.904" r="2.659"/>
		<circle style="fill:#407BFF;" cx="267.611" cy="113.904" r="2.659"/>
		<circle style="opacity:0.7;fill:#FFFFFF;enable-background:new    ;" cx="283.04" cy="113.904" r="2.659"/>
		<circle style="opacity:0.7;fill:#FFFFFF;enable-background:new    ;" cx="275.326" cy="113.904" r="2.659"/>
		<circle style="opacity:0.7;fill:#FFFFFF;enable-background:new    ;" cx="267.611" cy="113.904" r="2.659"/>
		<g>
			<g style="opacity:0.5;">
				<rect x="160.337" y="143.717" width="64.879" height="2"/>
			</g>
			<g>
				<rect x="160.337" y="148.601" style="opacity:0.5;" width="89.407" height="2"/>
			</g>
			<rect x="160.337" y="154.739" style="opacity:0.2;" width="116.308" height="6.66"/>
			<g>
				<rect x="160.337" y="166.732" style="opacity:0.5;" width="96.899" height="2"/>
			</g>
			<g>
				<rect x="160.337" y="171.616" style="opacity:0.5;" width="89.407" height="2"/>
			</g>
			<g>
				<rect x="210.485" y="179.41" style="opacity:0.2;" width="3.56" height="3.56"/>
				<rect x="210.485" y="186.713" style="opacity:0.2;" width="3.56" height="3.56"/>
				<rect x="210.485" y="194.017" style="opacity:0.2;" width="3.56" height="3.56"/>
				<rect x="210.485" y="201.32" style="opacity:0.2;" width="3.56" height="3.56"/>
				<rect x="210.485" y="208.623" style="opacity:0.2;" width="3.56" height="3.56"/>
				<g>
					<rect x="160.337" y="180.191" style="opacity:0.5;" width="46.468" height="2"/>
				</g>
				<g>
					<rect x="160.337" y="187.494" style="opacity:0.5;" width="46.468" height="2"/>
				</g>
				<g>
					<rect x="160.337" y="194.797" style="opacity:0.5;" width="46.468" height="2"/>
				</g>
				<g>
					<rect x="160.337" y="202.1" style="opacity:0.5;" width="46.468" height="2"/>
				</g>
				<g>
					<rect x="160.337" y="209.403" style="opacity:0.5;" width="46.468" height="2"/>
				</g>
				<rect x="272.524" y="179.41" style="opacity:0.2;" width="3.56" height="3.56"/>
				<rect x="272.524" y="186.713" style="opacity:0.2;" width="3.56" height="3.56"/>
				<rect x="272.524" y="194.017" style="opacity:0.2;" width="3.56" height="3.56"/>
				<rect x="272.524" y="201.32" style="opacity:0.2;" width="3.56" height="3.56"/>
				<rect x="272.524" y="208.623" style="opacity:0.2;" width="3.56" height="3.56"/>
				<g>
					<rect x="222.376" y="180.191" style="opacity:0.5;" width="46.468" height="2"/>
				</g>
				<g>
					<rect x="222.376" y="187.494" style="opacity:0.5;" width="46.468" height="2"/>
				</g>
				<g>
					<rect x="222.376" y="194.797" style="opacity:0.5;" width="46.468" height="2"/>
				</g>
				<g>
					<rect x="222.376" y="202.1" style="opacity:0.5;" width="46.468" height="2"/>
				</g>
				<g>
					<rect x="222.376" y="209.403" style="opacity:0.5;" width="46.468" height="2"/>
				</g>
			</g>
			<g>
				<rect x="160.337" y="219.765" style="opacity:0.5;" width="64.879" height="2"/>
			</g>
			<g>
				<rect x="160.337" y="224.649" style="opacity:0.5;" width="89.407" height="2"/>
			</g>
			<g>
				<rect x="160.714" y="230.787" style="opacity:0.2;" width="116.308" height="6.66"/>
				<rect x="160.717" y="238.191" style="opacity:0.1;" width="57.62" height="6.66"/>
				<rect x="219.197" y="238.191" style="opacity:0.2;" width="57.83" height="6.66"/>
				<rect x="160.717" y="245.601" style="opacity:0.1;" width="57.62" height="6.66"/>
				<rect x="219.197" y="245.601" style="opacity:0.1;" width="28.44" height="6.66"/>
				<rect x="248.487" y="245.601" style="opacity:0.1;" width="28.54" height="6.66"/>
				<rect x="160.717" y="253.001" style="opacity:0.1;" width="57.62" height="6.66"/>
				<rect x="219.197" y="253.001" style="opacity:0.1;" width="28.44" height="6.66"/>
				<rect x="248.487" y="253.001" style="opacity:0.1;" width="28.54" height="6.66"/>
				<rect x="160.717" y="260.401" style="opacity:0.1;" width="57.62" height="6.66"/>
				<rect x="219.197" y="260.401" style="opacity:0.1;" width="28.44" height="6.66"/>
				<rect x="248.487" y="260.401" style="opacity:0.1;" width="28.54" height="6.66"/>
				<rect x="160.717" y="267.811" style="opacity:0.1;" width="57.62" height="6.66"/>
				<rect x="219.197" y="267.811" style="opacity:0.1;" width="28.44" height="6.66"/>
				<rect x="248.487" y="267.811" style="opacity:0.1;" width="28.54" height="6.66"/>
			</g>
			<g>
				<rect x="160.337" y="280.803" style="opacity:0.5;" width="64.879" height="2"/>
			</g>
			<g>
				<rect x="160.337" y="285.687" style="opacity:0.5;" width="49.381" height="2"/>
			</g>
			<rect x="160.337" y="291.826" style="opacity:0.2;" width="116.308" height="6.66"/>
			<g>
				<rect x="160.337" y="302.817" style="opacity:0.5;" width="64.879" height="2"/>
			</g>
			<g>
				<rect x="160.337" y="307.702" style="opacity:0.5;" width="74.397" height="2"/>
			</g>
			<rect x="160.337" y="313.84" style="opacity:0.2;" width="116.308" height="6.66"/>
			<g>
				<rect x="272.952" y="334.247" style="opacity:0.5;" width="3.692" height="2"/>
			</g>
		</g>
		<g>
			<path style="fill:none;stroke:#263238;stroke-width:0.75;stroke-linecap:round;stroke-linejoin:round;stroke-miterlimit:10;" d="
				M163.044,158.352c0,0,8.218-1.559,8.955-1.258c0.737,0.301-0.298,3.085,3.681,1.99c3.979-1.095,8.164-2.567,7.852-1.732
				c-0.312,0.835,2.455,0.967,4.038,1c1.583,0.033,4.155-1.258,4.155-1.258s-0.074-0.775,1.051,0.258
				c1.125,1.033,5.477,0.995,7.059,0.717c1.582-0.278,2.769,1.015,2.769,1.015s9.537-2.093,10.702-1.99
				c1.166,0.103,1.561,2.096,2.946,1.99c1.385-0.106,9.692-1.33,10.681-1.015c0.989,0.315,32.835,0.283,32.835,0.283"/>
			
				<polyline style="fill:none;stroke:#263238;stroke-width:0.75;stroke-linecap:round;stroke-linejoin:round;stroke-miterlimit:10;" points="
				273.354,180.736 274.213,181.634 275.254,180.191 			"/>
			
				<polyline style="fill:none;stroke:#263238;stroke-width:0.75;stroke-linecap:round;stroke-linejoin:round;stroke-miterlimit:10;" points="
				273.354,188.318 274.213,189.215 275.254,187.772 			"/>
			
				<polyline style="fill:none;stroke:#263238;stroke-width:0.75;stroke-linecap:round;stroke-linejoin:round;stroke-miterlimit:10;" points="
				211.407,180.736 212.265,181.634 213.307,180.191 			"/>
			
				<polyline style="fill:none;stroke:#263238;stroke-width:0.75;stroke-linecap:round;stroke-linejoin:round;stroke-miterlimit:10;" points="
				211.315,188.318 212.174,189.215 213.215,187.772 			"/>
			
				<polyline style="fill:none;stroke:#263238;stroke-width:0.75;stroke-linecap:round;stroke-linejoin:round;stroke-miterlimit:10;" points="
				211.407,202.98 212.265,203.877 213.307,202.434 			"/>
			
				<polyline style="fill:none;stroke:#263238;stroke-width:0.75;stroke-linecap:round;stroke-linejoin:round;stroke-miterlimit:10;" points="
				211.315,210.227 212.174,211.125 213.215,209.681 			"/>
		</g>
	</g>
</g>
<g id="Plant">
	<g>
		<g>
			<path style="fill:#407BFF;" d="M100.939,345.356c0.21,1.47-3.776,2.438-7.028,2.98c0.265,2.669,2.041,5.367,4.494,7.886
				c3.086-1.738,7.49-4.036,8.302-3.475c0.886,0.613-3.624,3.529-6.445,5.244c1.984,1.761,4.218,3.402,6.389,4.84
				c1.383-1.292,3.002-2.426,3.967-1.813c1.001,0.637,0.73,2.636,0.236,4.42c3.356,1.957,5.87,3.147,5.87,3.147
				s1.409-4.271,2.242-9.53c-0.169-0.334-0.338-0.672-0.492-1.029c-0.541-1.251-0.014-1.783,0.879-1.959
				c0.231-2.302,0.297-4.669,0.055-6.866c-3.799-0.797-8.418-2.271-6.688-4.55c1.043-1.374,2.954-1.53,4.942-1.185
				c-0.278-0.458-0.585-0.89-0.938-1.278c-6.914-7.618-11.737,0-11.737,0c-4.018-3.349-9.662-2.442-10.882,2.79
				C96.362,344.4,100.68,343.54,100.939,345.356z"/>
			<path style="opacity:0.3;enable-background:new    ;" d="M100.939,345.356c0.21,1.47-3.776,2.438-7.028,2.98
				c0.265,2.669,2.041,5.367,4.494,7.886c3.086-1.738,7.49-4.036,8.302-3.475c0.886,0.613-3.624,3.529-6.445,5.244
				c1.984,1.761,4.218,3.402,6.389,4.84c1.383-1.292,3.002-2.426,3.967-1.813c1.001,0.637,0.73,2.636,0.236,4.42
				c3.356,1.957,5.87,3.147,5.87,3.147s1.409-4.271,2.242-9.53c-0.169-0.334-0.338-0.672-0.492-1.029
				c-0.541-1.251-0.014-1.783,0.879-1.959c0.231-2.302,0.297-4.669,0.055-6.866c-3.799-0.797-8.418-2.271-6.688-4.55
				c1.043-1.374,2.954-1.53,4.942-1.185c-0.278-0.458-0.585-0.89-0.938-1.278c-6.914-7.618-11.737,0-11.737,0
				c-4.018-3.349-9.662-2.442-10.882,2.79C96.362,344.4,100.68,343.54,100.939,345.356z"/>
		</g>
		<g>
			<g>
				<path style="fill:#407BFF;" d="M109.566,401.342l-0.997-0.082c0.043-0.515,4.094-51.525-7.354-56.334
					c-1.229-0.517-2.365-0.488-3.47,0.087c-4.136,2.151-6.119,11.082-6.138,11.173l-0.977-0.213
					c0.084-0.386,2.102-9.479,6.653-11.847c1.367-0.711,2.82-0.752,4.32-0.122C113.713,349.091,109.741,399.211,109.566,401.342z"/>
			</g>
			<g>
				<path style="fill:#407BFF;" d="M111.009,400.237c-0.203-2.295-4.876-56.268,3.862-61.997c2.095-1.373,3.962-1.667,5.549-0.863
					c4.129,2.082,4.671,10.91,4.692,11.284l-0.998,0.057c-0.005-0.086-0.529-8.626-4.145-10.449
					c-1.244-0.625-2.775-0.357-4.55,0.808c-8.242,5.405-3.463,60.517-3.414,61.073L111.009,400.237z"/>
			</g>
			<g>
				<path style="fill:#407BFF;" d="M112.323,404.6c-0.065-1.757-1.504-43.071,6.452-46.688c1.573-0.715,3.165-0.727,4.732-0.038
					c5.46,2.402,8.832,12.577,8.973,13.009l-0.951,0.311c-0.033-0.102-3.374-10.183-8.425-12.404
					c-1.313-0.576-2.595-0.567-3.915,0.033c-6.101,2.773-6.304,33.958-5.867,45.74L112.323,404.6z"/>
			</g>
			<g>
				<path style="fill:#407BFF;" d="M110.298,402.71l-0.993-0.113c1.402-12.296,4.082-45.061-0.297-48.97
					c-0.653-0.584-1.238-0.764-1.791-0.554c-2.935,1.126-4.722,11.783-5.163,15.795l-0.994-0.109
					c0.169-1.538,1.769-15.073,5.798-16.619c0.922-0.354,1.869-0.105,2.816,0.741C115.333,357.932,110.506,400.884,110.298,402.71z"
					/>
			</g>
		</g>
		<g>
			<polygon style="fill:#263238;" points="93.61,379.4 129.538,379.4 126.537,419.643 96.61,419.643 			"/>
			<polygon style="opacity:0.2;fill:#FFFFFF;enable-background:new    ;" points="104.523,379.4 105.523,419.643 126.537,419.643 
				129.538,379.4 			"/>
		</g>
		<g>
			<path style="fill:#407BFF;" d="M98.504,364.632c-0.375,0.979-3.165,0.209-5.356-0.572c-0.752,1.737-0.581,4.009,0.068,6.404
				c2.499-0.014,6.003,0.079,6.311,0.703c0.336,0.682-3.445,0.934-5.772,1.025c0.62,1.766,1.435,3.544,2.281,5.175
				c1.296-0.323,2.683-0.467,3.068,0.242c0.399,0.736-0.453,1.876-1.37,2.807c1.399,2.357,2.541,3.953,2.541,3.953
				s2.333-2.151,4.65-5.108c0.01-0.264,0.022-0.53,0.049-0.803c0.095-0.957,0.603-1.105,1.214-0.907
				c0.932-1.34,1.784-2.777,2.388-4.215c-2.07-1.794-4.413-4.287-2.565-5.099c1.115-0.49,2.346,0.069,3.454,0.963
				c-0.014-0.378-0.056-0.749-0.14-1.11c-1.652-7.069-7.239-4.024-7.239-4.024c-1.33-3.443-5.121-4.819-7.668-2.01
				C96.009,362.473,98.967,363.423,98.504,364.632z"/>
			<path style="opacity:0.3;enable-background:new    ;" d="M98.504,364.632c-0.375,0.979-3.165,0.209-5.356-0.572
				c-0.752,1.737-0.581,4.009,0.068,6.404c2.499-0.014,6.003,0.079,6.311,0.703c0.336,0.682-3.445,0.934-5.772,1.025
				c0.62,1.766,1.435,3.544,2.281,5.175c1.296-0.323,2.683-0.467,3.068,0.242c0.399,0.736-0.453,1.876-1.37,2.807
				c1.399,2.357,2.541,3.953,2.541,3.953s2.333-2.151,4.65-5.108c0.01-0.264,0.022-0.53,0.049-0.803
				c0.095-0.957,0.603-1.105,1.214-0.907c0.932-1.34,1.784-2.777,2.388-4.215c-2.07-1.794-4.413-4.287-2.565-5.099
				c1.115-0.49,2.346,0.069,3.454,0.963c-0.014-0.378-0.056-0.749-0.14-1.11c-1.652-7.069-7.239-4.024-7.239-4.024
				c-1.33-3.443-5.121-4.819-7.668-2.01C96.009,362.473,98.967,363.423,98.504,364.632z"/>
		</g>
		<g>
			<path style="fill:#407BFF;" d="M125.18,369.41c-1.133,0.084-2.221,0.344-3.283,0.691c-0.277-0.759-0.458-1.55-0.484-2.377
				c-0.228-7.246,4.959-4.191,7.7-6.32c1.367-1.062,3.041-1.744,4.585-1.438c-0.231,0.399-0.443,0.812-0.62,1.24
				c-0.287,0.694,0.166,1.417,0.877,1.55c0.669,0.125,1.42,0.067,2.035-0.241c0.192-0.096,0.352-0.236,0.523-0.362
				c0.383,0.646,0.722,1.439,0.995,2.423c0.279,1.007,0.423,2.051,0.469,3.099c-0.408,0.091-0.813,0.2-1.212,0.342
				c-0.623,0.221-0.956,1.217-0.454,1.722c0.441,0.443,0.946,0.795,1.495,1.049c-0.179,1.193-0.512,2.325-0.912,3.396
				c-0.123,0.019-0.247,0.033-0.369,0.057c-0.264,0.052-0.524,0.12-0.782,0.193c-0.148,0.042-0.295,0.092-0.434,0.159
				c-0.359,0.17-0.621,0.477-0.677,0.879c-0.056,0.395,0.109,0.804,0.427,1.046c0.169,0.129,0.355,0.23,0.539,0.332
				c-0.826,1.307-1.803,2.343-2.87,2.896c0,0-1.322-0.577-3.053-1.613c0.217-0.29,0.433-0.58,0.634-0.88
				c0.237-0.353,0.343-0.716,0.307-1.138c-0.034-0.409-0.282-0.766-0.587-1.022c-0.294-0.248-0.764-0.356-1.138-0.308
				c-0.366,0.047-0.811,0.272-1.022,0.587c-0.24,0.357-0.505,0.696-0.767,1.038c-1.324-0.998-2.641-2.203-3.68-3.573
				c0.041-0.012,0.083-0.024,0.11-0.032c0.669-0.175,1.353-0.288,2.042-0.339c0.861-0.064,1.397-0.93,1.33-1.725
				C126.833,369.879,125.982,369.35,125.18,369.41z"/>
		</g>
		<g>
			<path style="fill:#407BFF;" d="M127.253,344.428c0.632-0.453,1.317-0.794,2.028-1.078c-0.188-0.52-0.44-1.015-0.789-1.461
				c-3.06-3.906-4.444-0.025-6.819,0.059c-1.184,0.042-2.363,0.418-3.04,1.257c0.297,0.108,0.589,0.232,0.87,0.38
				c0.455,0.239,0.535,0.817,0.219,1.199c-0.296,0.359-0.716,0.659-1.175,0.766c-0.143,0.034-0.289,0.031-0.434,0.039
				c0.083,0.508,0.252,1.073,0.541,1.71c0.295,0.652,0.678,1.263,1.114,1.833c0.254-0.131,0.515-0.251,0.787-0.352
				c0.425-0.157,1.037,0.22,0.994,0.706c-0.037,0.426-0.148,0.833-0.325,1.207c0.618,0.548,1.289,0.997,1.97,1.384
				c0.073-0.044,0.144-0.091,0.219-0.132c0.161-0.089,0.328-0.167,0.496-0.242c0.096-0.043,0.196-0.081,0.298-0.107
				c0.263-0.068,0.535-0.022,0.741,0.164c0.203,0.183,0.296,0.47,0.235,0.737c-0.032,0.142-0.085,0.276-0.138,0.411
				c1.008,0.324,1.975,0.44,2.779,0.262c0,0,0.441-0.883,0.895-2.187c-0.241-0.057-0.482-0.115-0.719-0.184
				c-0.28-0.081-0.494-0.225-0.661-0.463c-0.162-0.23-0.188-0.526-0.14-0.795c0.046-0.259,0.245-0.522,0.463-0.661
				c0.213-0.136,0.545-0.213,0.795-0.14c0.283,0.082,0.571,0.144,0.858,0.208c0.257-1.105,0.421-2.316,0.365-3.492
				c-0.027,0.012-0.054,0.024-0.072,0.031c-0.428,0.202-0.837,0.442-1.222,0.718c-0.48,0.344-1.142,0.124-1.456-0.323
				C126.591,345.4,126.806,344.749,127.253,344.428z"/>
			<path style="opacity:0.3;enable-background:new    ;" d="M127.253,344.428c0.632-0.453,1.317-0.794,2.028-1.078
				c-0.188-0.52-0.44-1.015-0.789-1.461c-3.06-3.906-4.444-0.025-6.819,0.059c-1.184,0.042-2.363,0.418-3.04,1.257
				c0.297,0.108,0.589,0.232,0.87,0.38c0.455,0.239,0.535,0.817,0.219,1.199c-0.296,0.359-0.716,0.659-1.175,0.766
				c-0.143,0.034-0.289,0.031-0.434,0.039c0.083,0.508,0.252,1.073,0.541,1.71c0.295,0.652,0.678,1.263,1.114,1.833
				c0.254-0.131,0.515-0.251,0.787-0.352c0.425-0.157,1.037,0.22,0.994,0.706c-0.037,0.426-0.148,0.833-0.325,1.207
				c0.618,0.548,1.289,0.997,1.97,1.384c0.073-0.044,0.144-0.091,0.219-0.132c0.161-0.089,0.328-0.167,0.496-0.242
				c0.096-0.043,0.196-0.081,0.298-0.107c0.263-0.068,0.535-0.022,0.741,0.164c0.203,0.183,0.296,0.47,0.235,0.737
				c-0.032,0.142-0.085,0.276-0.138,0.411c1.008,0.324,1.975,0.44,2.779,0.262c0,0,0.441-0.883,0.895-2.187
				c-0.241-0.057-0.482-0.115-0.719-0.184c-0.28-0.081-0.494-0.225-0.661-0.463c-0.162-0.23-0.188-0.526-0.14-0.795
				c0.046-0.259,0.245-0.522,0.463-0.661c0.213-0.136,0.545-0.213,0.795-0.14c0.283,0.082,0.571,0.144,0.858,0.208
				c0.257-1.105,0.421-2.316,0.365-3.492c-0.027,0.012-0.054,0.024-0.072,0.031c-0.428,0.202-0.837,0.442-1.222,0.718
				c-0.48,0.344-1.142,0.124-1.456-0.323C126.591,345.4,126.806,344.749,127.253,344.428z"/>
		</g>
		<g>
			<path style="fill:#407BFF;" d="M97.981,351.68c-0.21,1.47,3.776,2.438,7.028,2.98c-0.265,2.669-2.041,5.366-4.494,7.886
				c-3.085-1.738-7.49-4.036-8.302-3.475c-0.886,0.613,3.624,3.529,6.444,5.244c-1.984,1.761-4.218,3.402-6.389,4.84
				c-1.383-1.292-3.002-2.426-3.967-1.813c-1.001,0.637-0.73,2.636-0.236,4.42c-3.357,1.957-5.87,3.147-5.87,3.147
				s-1.409-4.271-2.242-9.53c0.169-0.334,0.337-0.672,0.492-1.029c0.541-1.251,0.014-1.783-0.879-1.959
				c-0.231-2.302-0.298-4.669-0.055-6.866c3.799-0.797,8.418-2.272,6.688-4.55c-1.044-1.374-2.954-1.529-4.942-1.185
				c0.278-0.458,0.585-0.89,0.938-1.278c6.914-7.618,11.737,0,11.737,0c4.018-3.349,9.662-2.442,10.882,2.79
				C102.559,350.724,98.24,349.864,97.981,351.68z"/>
		</g>
	</g>
</g>
<g id="Character">
	<g>
		<g>
			<path style="fill:#EBC0BB;" d="M342.958,205.596c-3.759,2.735-7.504,5.106-11.572,7.311c-2.033,1.085-4.112,2.128-6.345,3.038
				c-2.25,0.908-4.539,1.774-7.519,2.187c-0.366,0.053-0.76,0.092-1.185,0.109c-0.225,0.009-0.371,0.027-0.66,0.024
				c-0.3-0.006-0.6-0.02-0.898-0.043c-1.096-0.121-1.961-0.371-2.694-0.642c-1.477-0.554-2.614-1.21-3.698-1.873
				c-2.149-1.325-3.945-2.801-5.706-4.291c-3.474-3.027-6.549-6.238-9.449-9.745c-0.93-1.124-0.772-2.789,0.352-3.719
				c0.93-0.77,2.232-0.794,3.18-0.142l0.062,0.044c3.52,2.425,7.114,4.889,10.652,7.084c1.758,1.1,3.561,2.125,5.24,2.915
				c0.83,0.386,1.664,0.697,2.264,0.832c0.301,0.08,0.509,0.074,0.5,0.053c-0.025-0.014-0.052-0.02-0.079-0.018
				c-0.015,0.001,0.11-0.024,0.158-0.033c0.121-0.016,0.269-0.046,0.441-0.092c1.337-0.319,3.157-1.067,4.896-1.923
				c1.758-0.875,3.553-1.867,5.332-2.921c3.541-2.102,7.167-4.454,10.556-6.751l0.092-0.063c2.419-1.639,5.71-1.007,7.349,1.412
				C345.83,200.716,345.251,203.923,342.958,205.596z"/>
		</g>
		<path style="fill:#407BFF;" d="M345.788,192.462c-8.506-1.538-11.82,3.33-21.812,11.803c1.025,9.323,8.03,13.315,8.03,13.315
			S352.813,204.025,345.788,192.462z"/>
		<path style="opacity:0.6;fill:#FFFFFF;enable-background:new    ;" d="M345.386,204.03c-3.6,6.63-11.34,12.16-13.04,13.32
			c-0.22,0.15-0.34,0.23-0.34,0.23s-7.01-3.99-8.03-13.32c9.99-8.47,13.31-13.34,21.81-11.8
			C348.116,196.29,347.386,200.33,345.386,204.03z"/>
		<path style="fill:#EEC1BB;" d="M288.099,192.407l2.606-0.175c0.98-0.066,1.931,0.346,2.554,1.106l2.909,3.55
			c1.163,1.419,1.567,3.314,1.083,5.084l-0.299,1.096c-4.302,0.586-9.382-1.951-9.382-1.951l-1.528-0.562
			c-1.361-0.501-2.051-1.906-1.584-3.228l1.075-3.043C285.903,193.232,286.924,192.486,288.099,192.407z"/>
		<path style="opacity:0.2;" d="M345.386,204.03c-3.6,6.63-11.34,12.16-13.04,13.32c0.6-3.02,2.5-9.42,8.12-13.51
			C342.266,202.53,343.986,202.81,345.386,204.03z"/>
		<path style="fill:#263238;" d="M344.673,158.085c0,0-7.615,19.048,0,35.636c7.615,16.587,29.011,6.626,31.121,2.656
			c2.11-3.97-2.835-12.079-2.835-19.497s1.801-11.461,0.455-17.549C372.068,153.242,344.673,158.085,344.673,158.085z"/>
		<path style="fill:#EEC1BB;" d="M365.853,247.26c0,0-0.49,8.37-4.58,23.03c-2.06,7.38-5.03,16.36-9.32,26.66
			c-2.04,4.91-4.38,10.11-7.06,15.59c-1.21,2.49-2.5,5.03-3.86,7.63c-1.57,44.4-26.48,89.54-26.48,89.54
			c-1.38,0.71-6.2-0.07-6.17-1.47c3.69-5.86,10.95-62.75,15.63-89.73c0.29-3.67,0.71-7.6,1.23-11.66
			c1.37-10.89,3.39-22.74,5.36-33.16c3.09-16.41,6.04-29.28,6.04-29.28l8.21,0.8L365.853,247.26z"/>
		<path style="fill:#EEC1BB;" d="M375.643,308.72h-0.01c-0.66,4.77-1.51,9.87-2.56,15.32c8.9,29.7-9.4,87.65-9.4,87.65
			c-3.1,0.61-5.84,0.21-7.23-0.83c3.45-17.46,0.97-62.86-1.71-89.99c-0.24-2.46-0.54-5.17-0.87-8.06
			c-0.55-4.89-1.21-10.29-1.91-15.86c-1.18-9.33-2.51-19.15-3.71-27.85c-1.46-10.52-2.74-19.42-3.39-23.89
			c-0.28-1.97-0.44-3.08-0.44-3.08l25.7,2.78c0,0,6.53,7.33,7.52,30.21C378.003,283.88,377.573,294.93,375.643,308.72z"/>
		<path style="opacity:0.2;" d="M375.643,308.72h-0.01c-8.09,2.65-15.36,3.84-21.77,4.09c-0.55-4.89-1.21-10.29-1.91-15.86
			c-2.04,4.91-4.38,10.11-7.06,15.59c-8.83-0.88-15.43-3.47-19.65-5.69c1.37-10.89,3.39-22.74,5.36-33.16
			c2.4-1.44,5.28-2.65,8.73-3.52c2.7-0.68,5.71-1.03,8.91-1.07c4.13-0.06,8.57,0.37,13.03,1.19c5.62,1.04,11.27,2.71,16.36,4.83
			C378.003,283.88,377.573,294.93,375.643,308.72z"/>
		<path style="fill:#407BFF;" d="M375.793,193.25c0,0-1.78,6.6-3.32,17.17c-0.46,3.22-0.91,6.81-1.27,10.69
			c-0.67,7.08-1.07,15.14-0.86,23.74h-33.84c0,0-5.34-39.58,3.48-52.34C339.983,192.51,357.333,184.34,375.793,193.25z"/>
		<path style="opacity:0.2;" d="M372.473,210.42c-0.46,3.22-0.91,6.81-1.27,10.69c-1.55-3.08-3.384-10.44-0.963-18.249
			L372.473,210.42z"/>
		<path style="fill:#EEC1BB;" d="M356.023,223.24l2.611,0.018c0.982,0.007,1.9,0.488,2.465,1.291l2.639,3.755
			c1.055,1.501,1.318,3.421,0.705,5.15l-0.379,1.071c-4.333,0.267-9.213-2.638-9.213-2.638l-1.483-0.674
			c-1.32-0.601-1.904-2.053-1.341-3.337l1.297-2.955C353.773,223.901,354.847,223.231,356.023,223.24z"/>
		<path style="fill:#407BFF;" d="M358.292,186.765c10.613-0.008,11.948,8.731,11.948,8.731l-4.962-2.136l-14.582,9.752l-3.584-9.845
			l-4.497,0.836C342.615,194.103,349.072,186.772,358.292,186.765z"/>
		<path style="opacity:0.6;fill:#FFFFFF;enable-background:new    ;" d="M358.292,186.765c10.613-0.008,11.948,8.731,11.948,8.731
			l-4.962-2.136l-14.582,9.752l-3.584-9.845l-4.497,0.836C342.615,194.103,349.072,186.772,358.292,186.765z"/>
		<path style="fill:#EEC1BB;" d="M351.169,202.524l13.685-11.9c-3.324-3.412-1.625-12.783-0.241-17.896l-10.378,8.331
			c0.697,3.974,0.529,8.205-5.275,9.566C348.96,190.624,351.182,202.492,351.169,202.524z"/>
		<path style="opacity:0.2;" d="M360.382,176.126l-6.142,4.927c0.168,0.94,0.283,1.894,0.28,2.821
			c2.202-0.315,5.373-2.706,5.774-4.987C360.494,177.749,360.528,176.656,360.382,176.126z"/>
		<g>
			<path style="fill:#EEC1BB;" d="M368.98,162.463c-1.552,8.258-2.033,11.776-6.745,15.737c-7.088,5.958-16.826,2.806-17.756-5.613
				c-0.838-7.577,1.84-19.808,10.349-22.535C363.211,147.366,370.531,154.205,368.98,162.463z"/>
			<path style="fill:#263238;" d="M361.879,156.497c4.557,5.88-4.802,12.642,4.557,12.25c9.359-0.392,5.557-13.608,0-16.612
				C360.88,149.132,361.879,156.497,361.879,156.497z"/>
			<path style="fill:#263238;" d="M355.899,163.839c-0.1,0.699-0.544,1.238-0.992,1.205c-0.447-0.033-0.729-0.626-0.628-1.325
				c0.1-0.699,0.544-1.238,0.991-1.205C355.718,162.547,355.999,163.14,355.899,163.839z"/>
			<path style="fill:#263238;" d="M347.465,163.341c-0.1,0.699-0.544,1.238-0.992,1.205c-0.447-0.033-0.729-0.626-0.629-1.325
				c0.1-0.699,0.544-1.238,0.992-1.205C347.284,162.05,347.565,162.643,347.465,163.341z"/>
			<path style="fill:#263238;" d="M347.028,162.07l-1.574-0.605C345.454,161.465,346.109,162.838,347.028,162.07z"/>
			<path style="fill:#D4827D;" d="M349.647,164.66c0,0-1.593,2.922-3.079,4.279c0.78,0.928,2.373,0.647,2.373,0.647L349.647,164.66z
				"/>
			<path style="fill:#263238;" d="M352.505,172.459c-0.364,0.038-0.751,0.046-1.162,0.016c-0.111-0.008-0.188-0.107-0.171-0.22
				c0.016-0.113,0.116-0.198,0.231-0.19c3.001,0.223,4.713-1.817,4.73-1.837c0.074-0.091,0.203-0.109,0.287-0.04
				c0.084,0.069,0.092,0.198,0.018,0.288C356.372,170.555,354.994,172.199,352.505,172.459z"/>
			<path style="fill:#EEC1BB;" d="M369.782,170.426c-0.846,1.693-2.234,2.737-3.511,3.076c-1.921,0.51-2.755-1.693-2.116-3.894
				c0.576-1.98,2.27-4.632,4.147-4.154C370.152,165.926,370.749,168.49,369.782,170.426z"/>
			<path style="fill:#263238;" d="M358.254,160.083c-0.107,0.002-0.212-0.039-0.287-0.123c-1.171-1.31-2.655-1.029-2.672-1.026
				c-0.22,0.042-0.425-0.1-0.454-0.323c-0.028-0.223,0.13-0.439,0.353-0.484c0.078-0.015,1.941-0.369,3.393,1.257
				c0.145,0.162,0.123,0.423-0.048,0.582C358.457,160.043,358.354,160.082,358.254,160.083z"/>
			<path style="fill:#263238;" d="M345.569,159.329c-0.102,0.008-0.203-0.022-0.282-0.091c-0.163-0.144-0.169-0.402-0.014-0.576
				c1.558-1.75,3.415-1.566,3.494-1.557c0.222,0.025,0.368,0.227,0.327,0.451c-0.041,0.224-0.254,0.386-0.475,0.363
				c-0.073-0.008-1.516-0.13-2.755,1.262C345.784,159.27,345.676,159.32,345.569,159.329z"/>
			<path style="fill:#263238;" d="M355.463,162.567l-1.574-0.605C353.888,161.962,354.544,163.335,355.463,162.567z"/>
			<path style="fill:#263238;" d="M357.925,152.352c0,0,2.493,11.068,10.642,12.309c8.149,1.241,6.238-10.775-4.625-15.201
				c-10.863-4.426-19.665,4.376-20.16,6.75s1.672,3.875,1.672,3.875S349.414,152.567,357.925,152.352z"/>
		</g>
		<g>
			<path style="fill:#263238;" d="M364.317,419.273l-1.432-0.002l-0.398-1.768l-4.74,2.14h-12.01c0,0-1.91-1.92,3.81-3.45
				c0.26-0.07,0.53-0.17,0.81-0.31c3.05-1.43,7.39-6.26,7.39-6.26h6.59c0,0,0.23,0.33,0.54,0.95
				C365.597,412.023,366.841,415.066,364.317,419.273z"/>
			<path style="fill:#FFC2BC;" d="M364.877,410.573c0,0.01,0,0.02,0,0.02c-0.87-0.97-4.83,3.29-7.73,4.74
				c-2.59,1.29-5.5,1.86-6.79,0.55c3.05-1.43,7.846-7.674,7.846-7.674h5.299C363.503,408.209,364.567,409.953,364.877,410.573z"/>
		</g>
		<g>
			<path style="fill:#263238;" d="M314.285,419.273l-1.432-0.002l-0.398-1.768l-4.74,2.14h-12.01c0,0-1.91-1.92,3.81-3.45
				c0.26-0.07,0.53-0.17,0.81-0.31c3.05-1.43,7.39-6.26,7.39-6.26h6.59c0,0,0.23,0.33,0.54,0.95
				C315.565,412.023,316.809,415.066,314.285,419.273z"/>
			<path style="fill:#FFC2BC;" d="M314.845,410.573c0,0.01,0,0.02,0,0.02c-0.87-0.97-4.83,3.29-7.73,4.74
				c-2.59,1.29-5.5,1.86-6.79,0.55c3.05-1.43,7.846-7.674,7.846-7.674h5.299C313.471,408.209,314.535,409.953,314.845,410.573z"/>
		</g>
		<path style="fill:#263238;" d="M336.179,242.134h34.119l0.921,4.393c0,0,12.531,17.351,6.18,60.604c0,0-27.45,3.165-53.297-2.374
			c0,0,5.802-44.44,11.868-58.945L336.179,242.134z"/>
		<g>
			<polygon style="fill:#407BFF;" points="360.126,245.912 371.574,245.912 370.881,242.648 360.126,242.648 			"/>
			<polygon style="fill:#407BFF;" points="339.332,242.648 335.903,242.648 335.607,245.912 339.332,245.912 			"/>
			<rect x="340.469" y="242.648" style="fill:#407BFF;" width="18.544" height="3.264"/>
			<polygon style="opacity:0.6;fill:#FFFFFF;enable-background:new    ;" points="360.126,245.912 371.574,245.912 370.881,242.648 
				360.126,242.648 			"/>
			<polygon style="opacity:0.6;fill:#FFFFFF;enable-background:new    ;" points="339.332,242.648 335.903,242.648 335.607,245.912 
				339.332,245.912 			"/>
			<rect x="340.469" y="242.648" style="opacity:0.6;fill:#FFFFFF;enable-background:new    ;" width="18.544" height="3.264"/>
			<path style="fill:#FFFFFF;" d="M350.772,246.159h-5.143c-0.31,0-0.56-0.251-0.56-0.56v-2.637c0-0.31,0.251-0.56,0.56-0.56h5.143
				c0.309,0,0.56,0.251,0.56,0.56v2.637C351.332,245.908,351.081,246.159,350.772,246.159z"/>
		</g>
		<g>
			<path style="fill:#EBC0BB;" d="M381.943,202.269c0.798,2.128,1.416,4.163,2.071,6.252c0.627,2.082,1.211,4.176,1.733,6.289
				c0.538,2.108,1.021,4.234,1.452,6.377c0.457,2.134,0.811,4.303,1.155,6.472l0.041,0.259c0.039,0.244,0.054,0.51,0.05,0.749
				c-0.031,1.304-0.491,2.858-1.316,4.013c-0.81,1.16-1.804,1.913-2.665,2.393c-1.749,0.949-3.182,1.211-4.514,1.425
				c-2.637,0.359-4.935,0.205-7.192,0.003c-2.246-0.239-4.413-0.61-6.544-1.079c-2.137-0.501-4.198-1.017-6.315-1.729
				c-1.384-0.465-2.129-1.965-1.664-3.349c0.379-1.127,1.444-1.83,2.573-1.801l0.09,0.003c1.997,0.053,4.079,0.143,6.098,0.129
				c2.025,0.011,4.034-0.01,5.971-0.136c1.921-0.105,3.833-0.347,5.316-0.748c0.714-0.19,1.331-0.496,1.388-0.619
				c0.035-0.055-0.15-0.005-0.37,0.29c-0.238,0.286-0.405,0.793-0.412,1.053l0.091,1.008c-1.014-3.981-2.149-7.957-3.342-11.928
				l-1.827-5.947l-1.857-5.87l-0.018-0.055c-0.881-2.787,0.664-5.761,3.451-6.643C378.085,198.229,380.958,199.658,381.943,202.269z
				"/>
		</g>
		<g>
			<path style="fill:#407BFF;" d="M373.675,192.481c5.698,0.88,8.828,5.315,13.484,16.767c-5.385,9.269-13.397,10.535-13.397,10.535
				S365.844,205.733,373.675,192.481z"/>
			<path style="opacity:0.6;fill:#FFFFFF;enable-background:new    ;" d="M373.675,192.481c5.698,0.88,8.828,5.315,13.484,16.767
				c-5.385,9.269-13.397,10.535-13.397,10.535S365.844,205.733,373.675,192.481z"/>
		</g>
		<path style="opacity:0.6;fill:#FFFFFF;enable-background:new    ;" d="M350.977,206.055c0,0.367-0.298,0.665-0.665,0.665
			c-0.367,0-0.665-0.298-0.665-0.665c0-0.367,0.298-0.665,0.665-0.665C350.679,205.39,350.977,205.688,350.977,206.055z"/>
		<path style="opacity:0.6;fill:#FFFFFF;enable-background:new    ;" d="M349.647,215.846c0,0.367-0.298,0.665-0.665,0.665
			c-0.367,0-0.665-0.298-0.665-0.665c0-0.367,0.298-0.665,0.665-0.665C349.349,215.181,349.647,215.479,349.647,215.846z"/>
		<path style="opacity:0.6;fill:#FFFFFF;enable-background:new    ;" d="M348.865,226.06c0,0.367-0.298,0.665-0.665,0.665
			c-0.367,0-0.665-0.298-0.665-0.665c0-0.367,0.298-0.665,0.665-0.665C348.567,225.395,348.865,225.693,348.865,226.06z"/>
		<path style="opacity:0.6;fill:#FFFFFF;enable-background:new    ;" d="M348.865,236.912c0,0.367-0.298,0.665-0.665,0.665
			c-0.367,0-0.665-0.298-0.665-0.665c0-0.367,0.298-0.665,0.665-0.665C348.567,236.247,348.865,236.545,348.865,236.912z"/>
		<path style="fill:#263238;" d="M293.986,194.249l-13.982,6.377l-2.134,0.144l1.507-1.518l13.982-6.377
			c0.28-0.128,0.611-0.004,0.738,0.276l0.164,0.36C294.389,193.791,294.266,194.121,293.986,194.249z"/>
	</g>
</g>
</svg>
