<?xml version="1.0" encoding="iso-8859-1"?>
<!-- Uploaded to: SVG Repo, www.svgrepo.com, Generator: SVG Repo Mixer Tools -->
<svg height="200px" width="200px" version="1.1" id="Layer_1" xmlns="http://www.w3.org/2000/svg" xmlns:xlink="http://www.w3.org/1999/xlink" 
	 viewBox="0 0 392.598 392.598" xml:space="preserve">
<path style="fill:#FFFFFF;" d="M234.665,102.206v-80.42H77.574c-6.012,0-10.925,4.848-10.925,10.925v327.111
	c0,6.012,4.848,10.925,10.925,10.925h237.446c6.012,0,10.925-4.848,10.925-10.925V113.131h-80.42
	C239.514,113.131,234.665,108.283,234.665,102.206z"/>
<path style="fill:#FFC10D;" d="M88.435,43.507v305.325h215.661V115.588l-2.457-2.457h-56.113c-6.012,0-10.925-4.848-10.925-10.925
	V46.093l-2.651-2.651H88.435V43.507z"/>
<g>
	<path style="fill:#194F82;" d="M279.078,184.307h-78.739c-6.012,0-10.925-4.848-10.925-10.925c0-6.012,4.848-10.925,10.925-10.925
		h78.739c6.012,0,10.925,4.848,10.925,10.925C290.003,179.394,285.09,184.307,279.078,184.307z"/>
	<path style="fill:#194F82;" d="M279.078,229.43H113.389c-6.012,0-10.925-4.848-10.925-10.925c0-6.012,4.848-10.925,10.925-10.925
		h165.754c6.012,0,10.925,4.848,10.925,10.925C290.067,224.582,285.09,229.43,279.078,229.43z"/>
	<path style="fill:#194F82;" d="M279.078,274.489H113.389c-6.012,0-10.925-4.848-10.925-10.925c0-6.012,4.848-10.925,10.925-10.925
		h165.754c6.012,0,10.925,4.848,10.925,10.925C290.067,269.576,285.09,274.489,279.078,274.489z"/>
	<path style="fill:#194F82;" d="M279.078,319.612H113.389c-6.012,0-10.925-4.848-10.925-10.925c0-6.012,4.848-10.925,10.925-10.925
		h165.754c6.012,0,10.925,4.848,10.925,10.925C290.067,314.634,285.09,319.612,279.078,319.612z"/>
	<path style="fill:#194F82;" d="M149.914,108.412h-12.412c-4.59,0-8.275-3.685-8.275-8.275s3.685-8.275,8.275-8.275h31.677
		c6.012,0,10.925-4.848,10.925-10.925c0-6.012-4.848-10.925-10.925-10.925h-9.762v-3.62c0-6.012-4.848-10.925-10.925-10.925
		s-10.925,4.848-10.925,10.925v3.62h-0.129c-16.614,0-30.061,13.511-30.061,30.061c0,16.614,13.511,30.061,30.061,30.061h12.412
		c4.59,0,8.275,3.685,8.275,8.275c0,4.59-3.685,8.275-8.275,8.275h-31.677c-6.012,0-10.925,4.848-10.925,10.925
		c0,6.077,4.848,10.925,10.925,10.925h19.329v3.685c0,6.012,4.848,10.925,10.925,10.925s10.925-4.848,10.925-10.925v-5.236
		c11.96-3.943,20.622-15.192,20.622-28.509C180.039,121.923,166.528,108.412,149.914,108.412z"/>
</g>
<polygon style="fill:#56ACE0;" points="256.451,91.345 310.56,91.345 256.451,37.236 "/>
<path style="fill:#194F82;" d="M344.629,94.513L253.284,3.168C251.28,1.164,248.5,0,245.526,0H77.574
	C59.538,0,44.863,14.675,44.863,32.711v327.111c0,18.101,14.675,32.776,32.711,32.776h237.446c18.036,0,32.711-14.675,32.711-32.711
	V102.206C347.797,99.362,346.633,96.582,344.629,94.513z M326.011,359.822c0,6.012-4.848,10.925-10.925,10.925H77.574
	c-6.012,0-10.925-4.848-10.925-10.925V32.711c0-6.012,4.848-10.925,10.925-10.925h157.091v80.42c0,6.012,4.848,10.925,10.925,10.925
	h80.42L326.011,359.822L326.011,359.822z M256.451,91.345V37.236l54.109,54.109H256.451z"/>
</svg>